<svg width="177" height="182" viewBox="0 0 177 182" fill="none" xmlns="http://www.w3.org/2000/svg">
<rect width="177" height="181.909" fill="white"/>
<path fill-rule="evenodd" clip-rule="evenodd" d="M150.512 136.575C177.617 111.72 142.623 97.5385 149.072 76.535C155.522 55.5314 171.846 23.9448 110.936 29.5098C50.0269 35.0747 -0.540766 98.2994 21.1738 128.055C42.8883 157.811 123.408 161.429 150.512 136.575Z" fill="#3D3D3D"/>
<path fill-rule="evenodd" clip-rule="evenodd" d="M100.229 85.6208C101.988 86.4989 103.748 87.377 105.507 88.2551C108.279 89.6383 111.099 91.055 113.334 93.2304C115.569 95.4058 117.168 98.5002 116.833 101.639C116.439 105.329 113.592 108.171 110.918 110.677C107.433 113.944 103.948 117.211 100.463 120.478C98.9356 121.91 97.2631 123.948 98.0857 125.894C100.222 130.947 102.157 136.695 100.214 141.83C99.6659 143.28 98.5305 144.776 97.0139 144.705C95.8854 144.652 94.9905 143.743 94.2646 142.857C91.3794 139.334 89.2385 135.174 88.0306 130.745C86.4838 125.075 86.6726 118.429 90.4368 113.978C93.3617 110.519 98.4018 108.193 98.7131 103.629C93.0146 98.674 84.7712 96.9853 77.6497 99.3144C70.5282 101.644 64.7667 107.912 62.928 115.333C61.9266 119.374 64.1681 123.533 66.9252 126.601C69.6823 129.669 73.0643 132.212 75.1858 135.77C79.4522 142.927 77.5896 152.09 75.5933 160.222C74.9005 163.044 70.72 163.515 68.6389 161.534C66.5577 159.553 66.1994 156.317 66.4199 153.416C66.6404 150.515 67.3018 147.583 66.7471 144.73C65.3154 137.365 56.8965 134.003 52.7711 127.794C49.6445 123.089 49.2138 116.933 50.3714 111.367C51.5291 105.801 54.1179 100.672 56.6791 95.6217C51.9129 88.1497 49.912 78.8754 51.1605 70.0427C51.7904 65.5861 46.0621 62.157 46.6586 57.6956C47.1347 54.1348 51.2141 52.527 54.6624 51.857C61.2254 50.582 67.9369 50.1107 74.6084 50.4562C76.1001 50.5335 76.7565 48.3144 76.0094 46.99C75.2623 45.6655 73.8036 44.9838 72.5955 44.0844C70.1616 42.2726 68.6323 39.416 67.7892 36.4582C66.7071 32.6623 66.705 28.3523 68.7147 24.9758C69.217 24.1319 70.0805 22.8812 71.3943 24.0932C71.7885 21.9777 75.9735 19.9444 78.6492 21.0801C80.253 21.7608 81.9619 20.3649 82.9811 18.9257C84.0003 17.4866 84.9861 15.7488 86.6797 15.3583C89.7124 14.659 91.6545 18.8147 91.3052 21.9777C90.956 25.1408 89.5975 28.4824 90.9313 31.3577C91.4383 32.451 92.3167 33.3976 92.4851 34.5955C92.6311 35.6347 92.3694 35.2295 91.8001 37.6222C91.2308 40.0148 89.859 40.7832 89.2936 42.107C88.4233 44.1443 88.554 45.9339 86.7354 47.7371C86.4294 48.0405 87.0526 48.7358 86.8325 49.2511C91.3115 49.3168 94.7141 53.1417 98.1808 56.0467C102.492 59.6594 107.766 62.1867 113.317 62.677C118.867 63.1672 124.675 61.4996 128.819 57.6871C130.441 56.1946 134.311 58.1444 134.593 55.93C134.647 55.3563 134.499 55.1094 133.968 54.9682C133.694 54.8952 133.045 55.0471 132.843 54.7815C132.252 54.0029 135.693 52.6611 135.548 53.73C135.511 54.0037 135.354 54.206 135.374 54.3834C135.432 54.899 135.718 55.058 136.161 55.149C137.093 55.2086 138.429 54.5538 138.987 53.73C139.361 53.1781 139.215 53.0317 138.922 53.0073C138.443 52.9674 137.57 53.2538 137.927 52.6273C138.367 51.857 139.501 51.1266 140.579 51.7972C140.812 51.9419 140.73 52.223 140.611 52.4991C140.392 53.0056 140.046 53.4954 141.284 53.0971C143.197 52.4817 143.307 52.597 143.801 52.7474C144.296 52.8978 145.021 53.7907 145.486 54.6246C146.442 56.3408 147.423 58.1407 147.512 60.1143C147.602 62.0879 146.49 64.2702 144.599 64.6649C144.582 65.2392 144.856 65.7803 145.273 66.161C145.726 66.5756 146.891 66.323 146.696 66.6936C146.059 67.8974 144.51 68.2062 143.29 67.785C142.956 67.6694 143.728 67.0767 143.801 66.666C143.919 66.0086 143.785 65.3005 143.394 64.7632C142.291 65.2414 141.188 65.7196 140.085 66.1977C140.405 66.617 140.259 67.1145 140.579 67.5338C140.881 67.9295 141.657 67.8293 141.787 68.3911C141.929 69.002 140.783 69.2584 140.191 69.3155C139.543 69.3781 138.533 69.4463 138.231 69.002C137.887 68.4969 138.964 68.3351 139.013 67.8065C139.068 67.2296 138.862 66.6129 138.367 66.3338C137.42 65.799 136.06 66.7837 136.237 67.8767C136.683 70.6302 135.568 73.591 133.434 75.3264C131.299 77.0619 128.23 77.5016 125.713 76.4329C123.436 75.4665 120.914 76.7096 118.559 77.4505C113.218 79.1302 107.124 78.0589 102.636 74.6515C102.377 78.4607 101.664 82.5865 99.2865 85.3952C99.6721 85.6208 99.4739 85.6208 100.229 85.6208Z" fill="white"/>
<ellipse cx="76.473" cy="43.0516" rx="1.298" ry="1.32935" fill="#FFB61D"/>
<ellipse cx="85.786" cy="40.3835" rx="1.298" ry="1.33374" fill="#FFB61D"/>
<path fill-rule="evenodd" clip-rule="evenodd" d="M93.3665 99.8044C92.7823 99.5353 92.197 99.2657 91.6081 99.0031C87.2974 97.0813 82.1269 95.6991 78.0596 98.1141C77.4384 94.0506 81.6925 90.9473 85.6074 90.028C86.6811 89.7759 87.789 89.5971 88.8969 89.4183C91.8288 88.945 94.7612 88.4717 97.0627 86.64C100.48 83.9203 101.391 79.0726 101.692 74.6515C106.18 78.0589 112.274 79.1302 117.615 77.4505C118.022 77.3223 118.435 77.179 118.85 77.0348C120.836 76.3455 122.886 75.6338 124.769 76.4329C127.287 77.5016 130.355 77.0619 132.49 75.3265C134.625 73.5911 135.739 70.6302 135.293 67.8767C135.116 66.7837 136.476 65.799 137.423 66.3338C137.918 66.6129 138.124 67.2296 138.069 67.8066C138.047 68.0431 137.819 68.2062 137.605 68.3595C137.341 68.5487 137.097 68.723 137.287 69.002C137.589 69.4463 138.599 69.3781 139.247 69.3155C139.839 69.2584 140.985 69.002 140.843 68.3912C140.769 68.0691 140.482 67.9646 140.194 67.8596C139.98 67.7813 139.764 67.7027 139.635 67.5338C139.475 67.3242 139.431 67.095 139.388 66.8658C139.344 66.6366 139.301 66.4073 139.141 66.1977L142.45 64.7632C142.841 65.3005 142.975 66.0086 142.857 66.666C142.826 66.8427 142.665 67.0529 142.519 67.2444C142.325 67.4982 142.156 67.7191 142.346 67.785C143.566 68.2062 145.115 67.8975 145.752 66.6936C145.851 66.5051 145.599 66.4778 145.267 66.442C144.946 66.4074 144.551 66.3647 144.329 66.161C143.913 65.7803 143.638 65.2392 143.655 64.6649C145.546 64.2702 146.658 62.0879 146.568 60.1143C146.479 58.1407 145.498 56.3408 144.542 54.6246C144.077 53.7907 143.352 52.8979 142.857 52.7474C142.827 52.7381 142.797 52.7289 142.769 52.72C142.342 52.5855 142.135 52.52 140.34 53.0972C139.229 53.4547 139.393 53.0966 139.597 52.6532C139.62 52.6026 139.644 52.551 139.667 52.4991C139.786 52.223 139.868 51.942 139.635 51.7972C138.557 51.1266 137.423 51.857 136.983 52.6273C136.721 53.0873 137.122 53.0552 137.543 53.0214C137.696 53.0091 137.851 52.9967 137.978 53.0073C138.271 53.0317 138.417 53.1781 138.043 53.73C137.485 54.5538 136.149 55.2086 135.217 55.149C134.774 55.058 134.488 54.899 134.43 54.3834C134.42 54.2891 134.459 54.1877 134.504 54.0724C134.543 53.9707 134.587 53.8582 134.604 53.73C134.749 52.6611 131.308 54.0029 131.899 54.7815C132.03 54.9545 132.352 54.9503 132.636 54.9466C132.788 54.9446 132.929 54.9428 133.024 54.9683C133.555 55.1094 133.703 55.3563 133.649 55.93C133.495 57.1392 132.271 57.1067 130.928 57.0711C129.811 57.0414 128.611 57.0096 127.875 57.6871C123.731 61.4996 117.923 63.1673 112.373 62.677C106.822 62.1867 101.548 59.6594 97.2369 56.0467C96.6418 55.5481 96.0487 55.0223 95.4516 54.4932C92.5704 51.9394 89.5987 49.3055 85.8885 49.2511C85.9974 48.9962 85.8999 48.6972 85.8106 48.4234C85.7194 48.1438 85.6368 47.8904 85.7914 47.7371C86.7493 46.7874 87.2386 44.9373 87.6623 43.3351C88.0432 41.8952 88.3711 40.6556 88.9385 40.4496C90.0739 40.0374 90.407 39.0087 90.7912 37.822C90.8126 37.7559 90.8342 37.6892 90.8561 37.6222C90.9872 37.2205 91.1041 36.8962 91.2037 36.6198C91.5084 35.7746 91.6512 35.3787 91.5411 34.5955C91.4313 33.8144 91.0197 33.1402 90.6059 32.4625C90.3851 32.1008 90.1637 31.7381 89.9873 31.3577C89.017 29.2659 89.4716 26.9273 89.9258 24.5902C90.096 23.7148 90.2661 22.8397 90.3613 21.9777C90.7105 18.8147 88.7684 14.659 85.7358 15.3583C84.2579 15.699 83.319 17.0656 82.4266 18.3645C82.2963 18.5541 82.167 18.7424 82.0371 18.9257C81.0179 20.3649 79.309 21.7608 77.7053 21.0801C75.0295 19.9444 70.8445 21.9777 70.4503 24.0932C69.1365 22.8812 68.273 24.1319 67.7708 24.9758C65.761 28.3523 65.7631 32.6623 66.8452 36.4582C67.6884 39.416 69.2176 42.2726 71.6515 44.0844C71.9609 44.3148 72.2868 44.5308 72.6129 44.7471C73.5601 45.3751 74.5097 46.0048 75.0654 46.99C75.8125 48.3144 75.1561 50.5335 73.6644 50.4562C66.9929 50.1107 60.2814 50.582 53.7184 51.8571C50.2702 52.527 46.1907 54.1348 45.7146 57.6956C45.417 59.9215 46.6938 61.8904 47.9698 63.8582C49.2514 65.8345 50.5322 67.8096 50.2165 70.0428C48.9681 78.8754 50.969 88.1498 55.7351 95.6217C53.1739 100.673 50.5851 105.801 49.4275 111.367C48.2698 116.933 48.7005 123.089 51.8271 127.794C53.4564 130.246 55.7554 132.254 58.0292 134.24C61.5126 137.283 64.9369 140.273 65.8031 144.73C66.2103 146.824 65.9622 148.962 65.7142 151.098C65.6244 151.871 65.5346 152.645 65.4759 153.416C65.2554 156.317 65.6138 159.553 67.6949 161.534C68.8832 162.665 70.7559 162.996 72.273 162.548C72.2601 162.786 72.2467 163.007 72.234 163.216L72.234 163.216L72.234 163.217L72.234 163.217C72.165 164.354 72.1197 165.1 72.3145 165.985C72.3652 166.215 72.4477 166.477 72.6632 166.561C73.0923 166.728 73.3784 166.055 73.3494 165.599C73.2396 163.869 73.0292 162.893 72.8266 162.341C73.7094 161.938 74.4019 161.23 74.6493 160.222C76.6457 152.09 78.5082 142.927 74.2418 135.77C72.8323 133.406 70.8665 131.49 68.8971 129.571C67.9023 128.601 66.9066 127.631 65.9812 126.601C63.2241 123.534 60.9826 119.374 61.984 115.333C63.8227 107.912 69.5842 101.644 76.7057 99.3144C83.8272 96.9854 92.0706 98.674 97.7691 103.629C97.5571 106.738 95.1512 108.808 92.7141 110.905C91.5732 111.887 90.4255 112.875 89.4928 113.978C85.7287 118.429 85.5398 125.075 87.0866 130.746C88.2945 135.174 90.4354 139.334 93.3206 142.857C94.0465 143.743 94.9414 144.652 96.0699 144.705C97.5866 144.776 98.722 143.28 99.2704 141.83C101.213 136.695 99.2779 130.947 97.1417 125.894C96.3191 123.948 97.9916 121.91 99.5189 120.478L109.974 110.677C112.648 108.171 115.495 105.329 115.889 101.639C116.224 98.5002 114.625 95.4058 112.39 93.2304C110.155 91.0551 107.335 89.6384 104.563 88.2551L99.285 85.6209C101.025 87.911 103.651 89.1966 106.237 90.4624C106.737 90.7069 107.235 90.9507 107.725 91.2009C110.75 92.746 113.856 95.0009 114.549 98.3896C115.4 102.553 112.308 106.374 109.441 109.451C105.811 113.348 102.149 117.273 97.836 120.356C96.3687 121.405 94.7415 122.381 92.9532 122.446C91.1648 122.512 89.2192 121.364 88.9385 119.554C88.685 117.921 89.7841 116.423 90.8178 115.152L98.4615 105.749C99.6233 104.32 101.154 103.948 102.974 103.505C103.615 103.35 104.291 103.185 105 102.963C100.711 103.187 97.0586 101.505 93.3665 99.8044ZM62.4309 74.533C62.7395 77.3789 63.5957 80.2288 65.3319 82.4735C67.0681 84.7181 69.7734 86.2807 72.5671 86.1566C73.5026 86.1151 73.8023 84.6898 73.2468 83.9178C72.7651 83.2483 71.9684 82.9435 71.1959 82.6481C71.0778 82.6029 70.9603 82.5579 70.8445 82.5119C69.9716 82.1649 69.0408 81.5843 68.8833 80.6391C71.3464 82.6015 75.0238 82.7836 77.6604 81.0737C78.578 83.7709 81.6221 85.3903 84.3773 84.945C87.1324 84.4996 89.4351 82.2447 90.349 79.5461C90.3665 79.4945 90.3837 79.4424 90.401 79.3902C90.5398 78.9702 90.6825 78.5385 90.998 78.241C91.2918 77.9639 91.6926 77.8461 92.0776 77.7371L99.6107 75.6039C99.7977 75.5509 100.01 75.501 100.176 75.6041C100.353 75.714 100.402 75.9504 100.427 76.1606C100.949 80.3927 98.6286 84.8378 94.903 86.7457C92.9055 87.7687 90.6227 88.103 88.3594 88.4344C85.4065 88.8668 82.487 89.2944 80.2778 91.2402C79.0754 92.2992 78.2414 93.6902 77.4056 95.084C77.0064 95.7499 76.6068 96.4163 76.1664 97.0476C73.4663 100.918 68.5071 103.54 64.1028 102.027C61.5748 101.159 59.6099 99.1046 57.9948 96.9321C53.1329 90.3923 50.5666 82.1005 50.8622 73.8869C50.9158 72.3966 51.0653 70.8877 51.5916 69.4972C54.9292 73.4693 58.7885 76.9812 63.0328 79.9086C62.8845 79.1202 62.3511 78.4732 61.8202 77.8824C60.3011 76.1919 58.6245 74.6088 56.9498 73.0274C53.0552 69.3499 49.1705 65.6818 47.3 60.6948C46.8888 59.5986 46.5846 58.4018 46.8379 57.2564C47.4125 54.6588 50.3938 53.5774 52.9433 53.0501C59.0664 51.7836 65.3153 51.1562 71.5619 51.1809C71.8937 55.1432 75.1132 58.6869 78.9632 59.2086C82.8133 59.7303 86.8707 57.0918 87.9517 53.2721C87.9838 53.1588 88.0138 53.0439 88.044 52.9288C88.1784 52.4154 88.3141 51.8969 88.6352 51.486C89.0283 50.983 89.8279 50.7357 90.2867 51.1765C93.688 54.4442 97.2572 57.5856 101.324 59.9226C105.392 62.2595 110.013 63.7667 114.672 63.5554C106.714 66.5287 98.5785 69.0073 90.3269 70.9728C89.6959 71.1231 88.9144 71.2216 88.5088 70.7043C87.0716 68.8709 84.7278 67.8247 82.4379 67.9942C80.148 68.1638 77.9756 69.5444 76.8109 71.5704C76.3892 72.304 75.337 72.2118 74.5365 71.9824C72.8715 71.5052 71.158 70.7713 70.174 69.3154C70.0079 69.0696 69.864 68.8051 69.7204 68.5412C69.4392 68.0244 69.1591 67.5097 68.7154 67.1407C68.0879 66.6188 67.2661 66.4915 66.4521 66.3656C66.2258 66.3305 66.0002 66.2956 65.7795 66.2523C63.2668 65.7595 61.0416 63.9297 60.0292 61.5238C62.3979 59.8994 65.5967 60.6703 68.212 61.832C68.6239 62.015 69.0368 62.2072 69.4513 62.4001C71.6686 63.4321 73.9308 64.485 76.3226 64.2601C78.3562 64.0688 80.131 62.9851 81.9135 61.8967C83.4894 60.9345 85.0711 59.9687 86.8428 59.6128C91.3882 58.6997 95.8498 62.1659 97.9778 66.3789C97.994 66.4111 98.0103 66.4435 98.0267 66.476C98.3749 67.1677 98.7514 67.9157 99.4494 68.2061C98.7372 64.1055 95.7294 60.5086 91.8822 59.157C88.035 57.8054 83.5043 58.7538 80.4838 61.543C78.6095 63.2738 75.7615 63.3961 73.3153 62.76C71.9375 62.4016 70.6244 61.8406 69.3104 61.2792C68.2914 60.8439 67.2719 60.4083 66.2213 60.0669C63.8158 59.285 61.0375 59.0537 58.8964 60.4219C58.2536 58.9714 57.3936 57.6221 56.3558 56.4357C57.3844 62.4803 62.768 67.45 68.7456 67.8729L65.4286 69.1634C64.6535 69.465 63.8502 69.7854 63.2815 70.4031C62.3076 71.4609 62.2742 73.0881 62.4309 74.533ZM60.7946 116.812C60.4723 118.476 60.2954 120.279 61.0221 121.803C61.4137 122.624 62.0391 123.299 62.6541 123.963L62.6962 124.008C66.3954 128.001 69.87 132.211 73.0973 136.612C71.6643 138.022 70.0692 139.259 68.3554 140.288C67.878 140.575 67.3624 140.854 66.809 140.843C65.9843 140.828 65.3141 140.19 64.7338 139.589C60.6814 135.397 56.7336 131.098 52.8954 126.698C51.6751 125.3 50.4343 123.835 49.8797 122.047C49.1748 119.775 49.6739 117.317 50.1771 114.989C51.5648 108.57 53.0247 101.976 56.6434 96.5451C58.6763 100.283 62.4411 102.981 66.5671 103.657C63.7063 107.521 61.7161 112.056 60.7946 116.812ZM86.5746 45.2485C85.9693 46.5446 84.9482 47.6895 83.624 48.1642C81.8586 48.7972 79.9169 48.1639 78.1885 47.4317C77.2903 47.0512 76.3828 46.6291 75.6872 45.9339C75.0968 45.3438 74.6922 44.5896 74.3176 43.8369C73.1508 41.493 72.1866 39.0434 71.44 36.526C70.8225 34.4444 70.5044 31.8102 72.1479 30.4315C74.0252 31.907 76.55 32.2771 78.9007 31.9972C80.9905 31.7483 82.9926 31.0369 84.9841 30.3293C85.2325 30.241 85.4809 30.1528 85.7291 30.0655C86.0127 29.9658 86.3484 29.8738 86.5932 30.0511C86.7804 30.1867 86.8466 30.4355 86.8974 30.6645C87.6535 34.0708 87.8738 37.6011 87.5472 41.0782C87.4129 42.5083 87.1799 43.9524 86.5746 45.2485ZM94.1172 142.557C90.7519 137.963 88.4976 132.522 87.61 126.852C87.2289 124.417 87.1056 121.865 87.898 119.537C88.6546 122.586 92.2385 124.534 95.1289 123.466C95.8833 125.057 96.5692 126.683 97.1838 128.336C98.7986 132.68 99.8978 137.623 98.1094 141.895C97.6795 142.922 96.8302 144.015 95.751 143.851C95.0514 143.745 94.5415 143.136 94.1172 142.557ZM71.7109 23.9351C72.5616 22.3747 74.4335 21.5819 76.1726 21.7319C76.5784 21.7669 76.9827 21.8197 77.3788 21.8714C78.6339 22.0353 79.8078 22.1886 80.6942 21.7319C82.0438 21.0366 82.6078 20.0701 83.1819 19.0863C83.5651 18.4295 83.9528 17.7651 84.5816 17.1686C84.9795 16.7912 85.423 16.429 85.9527 16.3097C87.0359 16.0657 88.0759 16.9104 88.6928 17.8542C90.0169 19.8798 90.1916 22.6369 89.1343 24.8208C87.9699 27.2258 85.5695 28.7308 83.168 29.8072C81.439 30.5821 79.6093 31.2107 77.7224 31.2507C75.8355 31.2906 73.8718 30.6786 72.5708 29.2786C71.2697 27.8786 70.7909 25.6226 71.7109 23.9351ZM66.3905 150.505C66.3097 149.89 66.2459 149.204 66.61 148.709C68.1021 148.846 69.6421 148.293 70.7226 147.23C70.394 146.535 69.3766 146.582 68.7339 146.986C68.4872 147.14 68.2607 147.33 68.0348 147.52C67.6722 147.824 67.3113 148.127 66.8715 148.28C66.4464 147.849 66.5226 147.089 66.8762 146.595C67.2298 146.101 67.7852 145.81 68.3201 145.536L71.6878 143.811C71.0408 143.155 69.9623 143.147 69.1365 143.539C68.3106 143.931 67.6788 144.643 67.0707 145.337C66.3958 144.13 66.8775 142.397 68.0723 141.735L72.4351 139.317C72.774 139.129 73.1335 138.936 73.5187 138.948C74.3528 138.973 74.8561 139.898 75.0843 140.72C75.7444 143.098 75.5431 145.625 75.3363 148.088C75.0322 151.71 74.7232 155.359 73.7313 158.85C73.3894 160.053 72.8499 161.363 71.7143 161.829C70.4824 162.335 69.0333 161.567 68.2966 160.437C67.5599 159.306 67.364 157.907 67.1869 156.56L66.3905 150.505ZM124.555 68.3912C125.027 68.332 125.437 67.7731 125.206 67.3466L123.584 64.3425C123.371 63.9467 123.152 63.5342 123.124 63.0829C123.095 62.6316 123.315 62.1299 123.736 61.9903C124.337 61.7905 124.89 62.386 125.238 62.9264C125.971 64.065 126.611 65.267 127.147 66.5154C127.784 65.6466 127.089 64.4468 126.453 63.5772C125.818 62.7076 125.262 61.3739 126.056 60.6546C126.841 59.9441 128.089 60.6723 128.69 61.5509C129.006 62.0124 129.266 62.5242 129.524 63.0342C130.026 64.0222 130.523 65.0029 131.419 65.5956C131.806 65.3535 131.613 64.7467 131.378 64.3494L128.373 59.2548C128.104 58.7992 128.548 58.1814 129.063 58.1045C129.577 58.0275 130.073 58.3093 130.503 58.6088C132.57 60.0497 134.216 62.2553 134.604 64.7845C134.992 67.3138 133.938 70.1236 131.771 71.4004C131.115 71.7865 130.385 72.0271 129.643 72.1749C125.125 73.0745 120.18 70.1125 118.732 65.6389C118.51 64.9544 118.457 64.019 119.086 63.6947C119.565 63.4476 120.145 63.7413 120.544 64.1087C121.121 64.6396 121.533 65.319 121.946 65.9987C122.343 66.6534 122.741 67.3085 123.286 67.8316C123.634 68.1648 124.083 68.4504 124.555 68.3912ZM77.4235 73.4175C77.9785 73.4351 78.5538 73.4533 79.0152 73.7592C79.5241 74.0967 79.7459 74.951 79.2638 75.3275C79.0814 75.47 78.8447 75.5115 78.6182 75.5487C76.5125 75.8946 74.1102 76.1635 72.4733 74.7637C72.1052 74.9358 71.9978 75.4542 72.148 75.8388C72.2982 76.2235 72.6325 76.4973 72.9671 76.7302C74.4526 77.7646 76.231 78.3521 78.0268 78.4018C76.8507 79.4449 75.1293 79.7998 73.6506 79.3041C73.0702 79.1095 72.2537 78.8874 71.997 79.4549C73.1357 80.5696 74.8738 80.6553 76.4491 80.6763C73.635 82.0496 69.9428 81.1552 68.0278 78.6363C67.8914 78.457 67.5839 78.5486 67.4756 78.747C67.3673 78.9454 67.3968 79.1893 67.4293 79.4141C67.5951 80.5586 67.8226 81.8169 68.7096 82.5334C69.1792 82.9127 69.7617 83.0779 70.3447 83.2432C70.5773 83.3092 70.8099 83.3751 71.0354 83.4547C71.8264 83.7338 72.6438 84.3463 72.6514 85.2029C70.1035 85.4278 67.6093 83.9491 66.0668 81.8604C64.5244 79.7717 63.8158 77.1531 63.489 74.5559C63.4046 73.8844 63.3451 73.1893 63.5356 72.5411C63.9149 71.2504 65.1599 70.4702 66.3075 69.8099C67.1397 69.331 68.2876 68.8897 68.9478 69.5959C71.099 71.8967 74.1442 73.2959 77.2529 73.4118C77.3094 73.4139 77.3664 73.4157 77.4235 73.4175ZM82.8884 78.057L115.495 68.8136C116.915 68.4111 118.595 68.0591 119.732 69.0195C106.822 73.105 93.7465 76.6425 80.5508 79.6198C79.8324 79.7819 78.8084 79.7494 78.6831 79.0071C79.1168 79.0235 79.1151 78.5256 79.1132 77.9991C79.1115 77.4808 79.1096 76.9346 79.523 76.824L117.52 66.6613C117.75 66.5999 118.042 66.5588 118.183 66.7545C118.412 67.0725 117.943 67.4279 117.571 67.5338L81.3314 77.8508C81.6604 78.3135 82.3497 78.2097 82.8884 78.057ZM119.651 75.3934C117.299 77.0076 114.313 77.4313 111.501 77.0899C108.689 76.7484 106.008 75.7004 103.402 74.5657L119.002 70.0878C119.549 69.9308 120.225 69.8074 120.61 70.2341C123.776 73.7365 129.536 74.3616 133.348 71.6164C132.903 73.7959 130.978 75.569 128.815 75.7916C127.583 75.9184 126.369 75.5908 125.161 75.2649C124.841 75.1785 124.521 75.0921 124.202 75.0144C122.677 74.6438 120.953 74.5001 119.651 75.3934ZM76.5406 48.5716C76.7633 48.245 77.2429 48.0649 77.5516 48.3072C79.362 49.728 81.8787 50.1476 84.0356 49.3881C84.724 49.1457 85.5072 49.6476 85.7914 50.3339C86.0755 51.0202 85.9609 51.8155 85.7112 52.5157C84.9509 54.6479 82.9047 56.2342 80.6943 56.4049C78.4839 56.5756 76.2285 55.3214 75.1646 53.33C74.8362 52.7153 74.7266 51.7517 75.3601 51.4867C75.992 51.2224 76.1729 50.4078 76.2413 49.7123L76.2433 49.6913C76.2816 49.3012 76.3217 48.8924 76.5406 48.5716ZM136.826 65.6402C136.571 65.7109 136.302 65.7802 136.047 65.7104C135.792 65.6405 135.567 65.3782 135.631 65.1161C137.911 64.7454 140.113 63.8728 142.042 62.5747C142.794 62.0691 143.591 61.188 143.212 60.3532C142.96 59.7996 142.285 59.5865 141.69 59.6115C140.827 59.6476 140.023 60.0438 139.247 60.4323L135.063 62.5282C134.869 62.2923 134.95 61.9128 135.155 61.6872C135.354 61.4696 135.635 61.358 135.907 61.2502L135.937 61.2381C137.836 60.4832 139.606 59.3871 141.141 58.015C141.59 57.6131 141.357 56.7852 140.843 56.4735C140.33 56.1618 139.685 56.2233 139.098 56.3355C137.397 56.6609 135.759 57.3333 134.309 58.3016C133.595 58.7783 132.582 59.3063 131.998 58.6706C133.574 57.0351 135.734 56.1622 137.827 55.3335L141.876 53.7299C142.158 53.6184 142.462 53.5052 142.755 53.5819C143.153 53.6862 143.386 54.0981 143.566 54.4761C144.589 56.6209 145.342 58.9004 145.801 61.2405C145.867 61.5801 145.922 61.9552 145.752 62.2542C145.597 62.5252 145.295 62.6639 145.012 62.7839C142.346 63.9131 139.61 64.8678 136.826 65.6402ZM117.674 65.7836C117.523 65.9488 117.296 66.0133 117.082 66.0707L79.8953 76.0412C80.4726 74.6132 82.1694 74.1247 83.644 73.7952C93.9043 71.5021 103.955 68.3397 113.995 65.1807C114.566 65.0011 115.137 64.8215 115.708 64.642C116.203 64.4863 116.743 64.3314 117.228 64.5174C117.714 64.7034 118.029 65.3969 117.674 65.7836ZM67.3439 27.7577C67.5717 26.994 67.9441 25.9387 68.5269 25.4081C68.8241 25.1376 69.2265 24.8491 69.5842 25.027C69.809 25.1388 69.9193 25.3973 70.0115 25.6353C70.1493 25.9911 70.3462 26.4681 70.543 26.9452C70.7399 27.4223 70.9368 27.8994 71.0746 28.2552C71.268 28.7543 71.4551 29.5299 71.1005 29.7819C69.5842 30.8598 69.9292 34.7947 70.6082 36.6052C70.7704 37.0375 70.9094 37.9233 70.7697 38.5691C70.6299 39.2149 69.9292 39.7958 69.3561 39.4905C69.0274 39.3154 68.506 38.3874 68.3172 38.0512C68.2999 38.0205 68.2854 37.9947 68.2741 37.9749C65.4809 33.0804 67.0293 28.6592 67.308 27.8633C67.3253 27.8139 67.3377 27.7785 67.3439 27.7577ZM79.598 80.7535C82.0812 80.2825 84.5388 79.6701 86.9558 78.9203C86.9932 78.9086 87.0307 78.897 87.0682 78.8853C87.8206 78.6513 88.584 78.4138 89.3691 78.4178C89.2705 79.6899 88.5802 80.8685 87.6334 81.6985C86.6866 82.5286 85.501 83.0341 84.2865 83.3216C83.3657 83.5397 82.3947 83.6377 81.4796 83.3956C80.5645 83.1534 79.7111 82.5272 79.3631 81.6275C79.2384 81.3051 79.2649 80.8167 79.598 80.7535ZM82.6765 73.1619C81.0927 73.3916 79.4187 73.2739 77.993 72.5314C77.6917 72.3744 77.8478 71.9025 78.0606 71.6336C79.1551 70.2509 80.813 69.3512 82.5451 69.2C84.2771 69.0488 86.0599 69.6481 87.3673 70.8211C87.5833 71.015 87.8029 71.3218 87.6571 71.5752C87.5802 71.7087 87.4266 71.7702 87.2841 71.8226C85.7786 72.3757 84.2602 72.9322 82.6765 73.1619ZM77.797 58.1187C76.3888 57.6665 75.2869 56.5188 74.4818 55.2523C73.9937 54.4845 73.5944 53.6642 73.1949 52.8436C72.9353 52.3104 72.6757 51.7771 72.3916 51.2579C72.9134 51.1692 73.4213 51.5335 73.7106 51.9869C73.9172 52.3105 74.0424 52.6769 74.1677 53.0435C74.2179 53.1904 74.2681 53.3372 74.3235 53.4814C75.3647 56.1885 78.4655 57.8119 81.258 57.2753C84.0505 56.7388 86.3151 54.2198 86.7993 51.3529C86.8502 51.0517 86.9425 50.6791 87.2353 50.6193C87.5517 50.8899 87.5658 51.379 87.51 51.7972C87.1048 54.8325 84.4177 57.1164 81.5471 57.9789C80.329 58.3448 79.0082 58.5077 77.797 58.1187ZM133.619 59.9354C135.379 58.5293 137.453 57.5382 139.635 57.0602C139.897 57.0028 140.29 57.0619 140.267 57.3352C140.259 57.4216 140.205 57.495 140.15 57.5617C139.066 58.9007 137.479 59.6842 135.943 60.4278C135.513 60.6361 135.059 60.8494 134.584 60.8193C134.109 60.7892 133.618 60.4226 133.619 59.9354ZM141.234 60.6101C141.46 60.5361 141.707 60.4667 141.929 60.552C142.152 60.6373 142.299 60.9499 142.142 61.1327C140.795 62.7072 138.78 63.4842 136.813 64.0562C136.299 64.2058 135.543 64.202 135.455 63.6621C137.198 62.3251 139.16 61.2888 141.234 60.6101ZM88.3337 37.5385C88.4474 36.8179 88.5832 35.9568 88.5832 35.3999C88.5832 34.6348 88.6966 33.6991 89.3932 33.4267C90.0609 33.1655 90.8155 33.7921 90.9441 34.5122C91.0727 35.2323 90.2784 38.1396 89.884 38.7501C89.7038 39.029 89.4941 39.3073 89.1976 39.4476C88.901 39.5878 88.4972 39.5424 88.3156 39.2644C88.221 39.1196 88.1998 38.9389 88.1837 38.7655C88.1675 38.5917 88.2436 38.1091 88.3337 37.5385ZM88.3497 28.4823C88.3845 28.5335 88.3995 28.5957 88.4135 28.6564C88.7027 29.9138 88.815 31.2138 88.7456 32.5037C88.4138 32.6565 88.1389 32.203 88.0414 31.8441L87.6243 30.3088C87.4602 29.7045 87.3279 28.965 87.7662 28.5267C87.9253 28.3676 88.2227 28.2954 88.3497 28.4823ZM70.7921 42.1657C70.3609 41.8606 70.0113 41.6133 70.0113 40.8585C70.0113 39.9656 70.9537 39.0954 71.1591 39.2644C71.9059 39.8788 73.2481 42.9258 73.3153 43.9043C72.7534 43.6694 72.3391 43.3489 71.5829 42.7639C71.4183 42.6366 71.2375 42.4967 71.0355 42.3425C70.9527 42.2793 70.871 42.2215 70.7921 42.1657ZM75.693 76.9838L77.216 76.654C77.4059 76.6129 77.6368 76.5847 77.7639 76.735C78.0087 77.0246 77.5265 77.3906 77.1523 77.3978C76.6406 77.4075 76.1269 77.2618 75.693 76.9838ZM121.924 62.654C122.199 62.6859 122.432 63.0461 122.251 63.261L122.234 63.2803C121.996 63.4665 121.723 63.663 121.426 63.6193C121.13 63.5755 120.921 63.1311 121.166 62.9553C121.394 62.7925 121.648 62.622 121.924 62.654ZM124.115 67.3167L123.769 67.2647L123.735 67.2613L123.002 66.1062C123.645 65.8931 124.362 66.6723 124.115 67.3167ZM122.504 65.2317C122.223 65.2456 121.997 64.8859 122.126 64.6291C122.255 64.3723 122.672 64.3517 122.825 64.5945C122.977 64.8374 122.786 65.2177 122.504 65.2317ZM84.0625 27.5541L81.4151 28.8375C79.3925 29.818 76.8517 29.564 75.0526 28.2013C74.7987 28.141 74.5785 28.4519 74.6214 28.7151C74.6644 28.9783 74.8733 29.1774 75.0827 29.3363C76.5332 30.437 78.5165 30.575 80.2662 30.1188C82.0159 29.6625 83.5851 28.6804 85.1053 27.683C84.9951 27.288 84.4252 27.3783 84.0625 27.5541ZM81.5736 33.5095C81.356 33.7087 80.9794 33.4382 80.983 33.1394C80.9865 32.8406 81.2231 32.6004 81.4672 32.4364C82.4906 31.7491 83.958 31.8558 84.8763 32.6843C84.6736 33.0255 84.2 32.9464 83.8009 32.8797C83.7696 32.8745 83.7388 32.8694 83.7087 32.8645C82.9511 32.7426 82.1451 32.986 81.5736 33.5095ZM76.6704 34.6388C77.0177 34.5577 77.3853 34.2855 77.3523 33.9223C77.3244 33.6162 77.0236 33.4129 76.7343 33.3305C76.0521 33.1362 75.2689 33.3888 74.8186 33.9483C74.3684 34.5077 74.2761 35.3432 74.5929 35.9915C74.7454 35.8519 74.8697 35.68 74.9932 35.5091L74.9933 35.509C75.1767 35.2553 75.3586 35.0037 75.6292 34.8627C75.834 34.7559 76.0634 34.7275 76.2936 34.699C76.4203 34.6833 76.5472 34.6676 76.6704 34.6388ZM83.5838 38.6692C84.004 38.663 84.2874 38.2188 84.393 37.8024C84.6101 36.9461 84.3891 35.9864 83.8214 35.3195C83.5643 35.0176 83.1263 34.7664 82.7993 34.9862C82.6981 35.0542 82.6254 35.1586 82.5668 35.2671C82.1565 36.0261 82.362 36.9752 82.681 37.7789C82.8486 38.2013 83.1386 38.6757 83.5838 38.6692ZM78.2724 38.6712L78.1473 37.3359C78.0997 36.8278 77.9935 36.2304 77.5413 36.0155C76.9234 35.7219 76.2708 36.4253 76.1088 37.1027C75.9349 37.8302 76.0353 38.6227 76.3848 39.2807C76.7017 39.8775 77.4907 40.3775 77.9947 39.9357C78.3286 39.6429 78.3144 39.1193 78.2724 38.6712ZM77.2286 138.771C80.7113 138.665 84.194 138.56 87.6768 138.457C88.0594 138.446 88.4702 138.443 88.7877 138.661C89.0821 138.864 89.2432 139.252 89.1816 139.61L78.9576 139.807C78.5778 139.814 78.1848 139.819 77.8354 139.667C77.486 139.514 77.1911 139.158 77.2286 138.771ZM80.8063 42.994C80.433 42.8849 80.609 42.3174 80.7845 41.9628C81.3515 40.8172 81.032 39.4121 80.4642 38.2669L80.4502 38.2385C80.3241 37.9848 80.1895 37.7138 80.2342 37.4344C80.2807 37.1446 80.6374 36.9036 80.8602 37.0884C80.9273 37.144 80.968 37.2253 81.0067 37.3043C81.433 38.174 81.8513 39.068 81.9901 40.0308C82.129 40.9935 81.9501 42.0503 81.3054 42.7653C81.175 42.91 80.9911 43.0481 80.8063 42.994ZM81.3632 46.6418C83.1113 46.3549 84.5134 44.6121 84.4535 42.8005C84.4499 42.6928 84.4405 42.5806 84.3863 42.4881C84.2346 42.2288 83.8217 42.2892 83.6269 42.5164C83.4666 42.7033 83.4057 42.951 83.3456 43.1954C83.3327 43.248 83.3198 43.3004 83.306 43.3521C83.0723 44.2241 82.4908 44.9927 81.7246 45.4425C81.6872 45.4644 81.6491 45.4859 81.6108 45.5076C81.387 45.6341 81.1568 45.7642 81.0394 45.9919C80.9019 46.2586 81.0724 46.6896 81.3632 46.6418ZM92.0369 155.766C92.1115 157.918 92.3449 164.746 92.0722 165.986C92.0215 166.216 91.9389 166.478 91.7234 166.562C91.2943 166.729 91.0425 166.069 91.0372 165.599C90.994 161.79 90.9508 157.313 90.9076 152.836C90.8644 148.359 90.8212 143.883 90.7781 140.073C91.4896 140.073 91.7234 142.644 91.7234 144.304C91.7234 149.882 92.0369 155.766 92.0369 155.766ZM67.5536 108.451C67.4494 108.389 67.3282 108.326 67.2039 108.262C66.7083 108.008 66.1631 107.727 66.45 107.332C74.037 107.669 81.6414 107.591 89.2203 107.099C91.3667 106.959 93.7879 106.638 95.0638 104.865C95.1149 104.794 95.1642 104.72 95.2135 104.647C95.3832 104.394 95.5537 104.14 95.8032 103.976C96.1252 103.765 96.6406 103.792 96.8017 104.147C96.5743 106.048 94.8346 107.632 92.9647 107.642C92.1465 107.646 91.8691 108.739 91.7654 109.571C91.6617 110.402 91.1019 111.466 90.3339 111.177C90.5278 110.496 90.6533 109.794 90.7078 109.086C90.7261 108.849 90.7213 108.574 90.5421 108.422C90.4029 108.305 90.205 108.304 90.0247 108.309L70 108.894C69.873 108.898 69.7332 108.907 69.6425 108.998C69.5318 109.109 69.542 109.291 69.56 109.449L70.9812 121.857C71.0125 122.13 71.1208 122.479 71.3892 122.481L82.741 122.545C83.3444 122.548 84.2033 123.02 83.8346 123.51C83.6837 123.71 83.4006 123.728 83.1536 123.729L71.6009 123.777C71.113 123.779 70.9751 124.458 70.993 124.957L71.1769 130.063C69.7892 129.051 69.694 127.018 69.6843 125.273C69.656 120.188 69.2122 115.106 68.359 110.096C68.2525 109.471 68.0892 108.77 67.5536 108.451Z" fill="#00160A"/>
<path fill-rule="evenodd" clip-rule="evenodd" d="M93.2577 132.554C93.7331 131.451 94.8404 130.662 96.0166 130.59C96.3223 130.571 96.6693 130.617 96.856 130.866C97.0426 131.114 96.8824 131.586 96.5787 131.546C95.8497 131.448 95.1221 131.828 94.6106 132.369C94.0991 132.91 93.7653 133.597 93.4397 134.271C92.9718 133.879 93.0137 133.121 93.2577 132.554Z" fill="#00160A"/>
<path fill-rule="evenodd" clip-rule="evenodd" d="M145.202 26.9163C145.8 26.9742 146.354 26.6194 146.849 26.2719C148.227 25.3061 149.711 23.9892 149.62 22.2814C149.591 21.7391 149.401 21.2288 149.21 20.718C149.128 20.4993 149.046 20.2806 148.977 20.0592C148.616 18.9029 148.603 17.6838 148.589 16.4616C148.578 15.459 148.567 14.4544 148.364 13.4806C148.292 13.1314 148.146 12.7347 147.811 12.6353C147.623 12.5794 147.422 12.6362 147.233 12.6929L141.216 14.5022C140.083 14.8428 139.84 16.3499 139.808 17.5591L139.719 20.8492C139.362 20.8951 139.022 20.7515 138.683 20.6078C138.553 20.553 138.423 20.4981 138.293 20.4539C137.007 20.0178 135.452 20.751 134.939 22.0354C134.426 23.3198 135.033 24.9598 136.248 25.5728C137.463 26.1858 139.101 25.6784 139.782 24.4785C140.244 23.6637 140.271 22.6743 140.287 21.7321L140.315 19.9628C140.326 19.3016 141.05 18.9349 141.662 18.7247C143.546 18.0772 145.449 17.483 147.365 16.9428C147.555 16.8894 147.79 16.8494 147.919 17.0008C147.989 17.0826 148.005 17.1979 148.017 17.3059L148.279 19.6223C148.318 19.9658 148.28 20.4278 147.95 20.5006C146.357 20.8523 144.941 21.9673 144.198 23.4542C143.882 24.0876 143.682 24.8152 143.823 25.512C143.963 26.2089 144.511 26.8494 145.202 26.9163ZM147.636 13.6656C147.704 13.7356 147.723 13.8386 147.739 13.9352L147.922 15.0224C147.97 15.3095 148.016 15.618 147.894 15.8816C147.702 16.2979 147.192 16.4232 146.749 16.5127C145.726 16.7193 144.717 16.9936 143.729 17.3331C142.903 17.6169 142.093 17.9459 141.284 18.2748C141.215 18.3026 141.147 18.3305 141.078 18.3583C140.886 18.4362 140.621 18.4924 140.511 18.3139C140.484 18.2692 140.472 18.2164 140.463 18.1645C140.27 17.1103 140.745 15.9604 141.62 15.3651C142.102 15.0372 142.671 14.8764 143.23 14.7205L147.158 13.6249C147.32 13.5796 147.518 13.5432 147.636 13.6656ZM139.711 22.3366C139.695 23.3555 139.455 24.5205 138.573 25.0136C137.873 25.4049 136.96 25.2168 136.325 24.7255C135.579 24.1484 135.169 22.9992 135.714 22.226C135.941 21.9039 136.296 21.6952 136.663 21.5586C137.507 21.2449 138.47 21.2764 139.292 21.6446C139.423 21.7034 139.557 21.776 139.632 21.8991C139.711 22.0267 139.714 22.1862 139.711 22.3366ZM34.5742 24.6139C34.6761 24.9355 35.1202 24.9232 35.4417 24.8459L38.3645 24.1434C38.2829 23.3635 38.135 22.5909 37.9231 21.8372C37.8606 21.6151 37.7853 21.3828 37.6152 21.2307C37.3519 20.9953 36.9578 21.0279 36.6111 21.0741L32.1219 21.6725C31.8136 21.7136 31.4023 21.9189 31.5196 22.2136C32.5473 24.7959 33.358 27.4689 33.9396 30.1931C34.0508 30.7142 34.0321 31.446 33.5233 31.5603C32.0497 31.8914 30.7888 33.0758 30.3399 34.5507C30.2019 35.0044 30.1391 35.5083 30.3178 35.9469C30.4146 36.1846 30.5771 36.389 30.7592 36.5667C31.6331 37.4193 33.0271 37.6564 34.1234 37.1389C35.2196 36.6214 35.9488 35.3819 35.8832 34.1476C35.8584 33.6814 35.7317 33.228 35.6058 32.7792L32.736 22.5492L36.5357 22.2439C36.9174 22.2658 37.0786 22.8211 36.877 23.1537C36.6754 23.4862 36.2748 23.6245 35.9 23.7017C35.8461 23.7129 35.7916 23.7234 35.7369 23.7339C35.4122 23.7965 35.0819 23.8603 34.8185 24.0592C34.6481 24.1879 34.5089 24.4075 34.5742 24.6139Z" fill="#FFB61D"/>
<path fill-rule="evenodd" clip-rule="evenodd" d="M92.632 129.246C92.5179 129.397 92.2604 129.354 92.1505 129.199C92.0407 129.044 92.0505 128.829 92.1103 128.648C92.2175 128.323 92.4602 128.065 92.7145 127.841C93.3535 127.28 94.1143 126.865 94.9257 126.636C95.2455 126.545 95.6186 126.492 95.8833 126.697C96.1481 126.902 96.1054 127.449 95.7749 127.479C94.5501 127.592 93.3822 128.248 92.632 129.246Z" fill="#00160A"/>
</svg>
