<svg width="177" height="182" viewBox="0 0 177 182" fill="none" xmlns="http://www.w3.org/2000/svg">
<rect width="177" height="181.909" fill="white"/>
<path fill-rule="evenodd" clip-rule="evenodd" d="M16.2577 140.178C15.8968 138.472 15.5011 136.773 15.1555 135.064C14.9884 134.238 14.8928 133.395 14.7792 132.558C14.5672 130.996 14.3577 129.434 14.1641 127.87C14.096 127.32 14.0472 126.763 14.0411 126.209C13.9914 121.721 13.8726 117.23 13.9489 112.744C13.9842 110.666 14.4034 108.595 14.6547 106.522C14.9853 103.794 15.6798 101.153 16.4811 98.5405C17.6343 94.78 18.802 91.0241 19.9658 87.267C20.5911 85.2486 21.2625 83.244 21.8308 81.2089C22.093 80.2698 22.199 79.2769 22.3004 78.3002C22.3967 77.3717 22.4997 76.4221 22.4131 75.5003C22.251 73.7756 21.9722 72.0613 21.7074 70.3484C21.4813 68.8862 21.217 67.4299 20.9511 65.9746C20.5383 63.7143 20.4163 61.4332 20.4607 59.1395C20.4957 57.3303 20.4414 55.5115 20.6068 53.7144C20.846 51.1167 21.2098 48.5139 22.2077 46.0896C22.9712 44.2347 23.8173 42.4021 24.7903 40.6558C25.7514 38.9306 26.8926 37.308 28.0036 35.6755C28.6813 34.6798 29.3994 33.7021 30.1917 32.8023C31.4124 31.416 32.6743 30.0627 33.9876 28.7691C36.0384 26.749 38.3359 25.0461 40.7775 23.561C43.0817 22.1595 45.5204 21.0487 48.0814 20.2353C49.8344 19.6786 51.6024 19.1706 53.347 18.5879C54.5951 18.1711 55.7915 17.575 57.0544 17.2242C58.6216 16.7888 60.2235 16.4544 61.8292 16.2047C63.4774 15.9484 65.147 15.8321 66.8096 15.6825C68.029 15.5728 69.2513 15.4818 70.4742 15.4302C72.1029 15.3615 73.7332 15.3205 75.3632 15.3017C77.2092 15.2803 79.0562 15.2648 80.9015 15.3071C82.3095 15.3395 83.717 15.4452 85.1219 15.5557C87.0108 15.7044 88.8986 15.8727 90.7838 16.0639C92.1798 16.2054 93.577 16.3565 94.9628 16.5761C96.8497 16.875 98.7311 17.2164 100.606 17.5883C103.25 18.1128 105.906 18.6001 108.521 19.2546C111.283 19.946 114.046 20.6916 116.64 21.9292C118.972 23.0421 121.309 24.1557 123.577 25.3968C125.644 26.5274 127.619 27.8356 129.641 29.0533C130.417 29.5207 131.224 29.9335 131.994 30.4109C132.51 30.731 133.03 31.071 133.471 31.4882C135.476 33.3835 137.462 35.2995 139.435 37.2284C140.387 38.1586 141.297 39.1338 142.226 40.0886C143.269 41.1606 144.362 42.187 145.343 43.316C146.588 44.7491 147.73 46.2765 148.939 47.7435C150.565 49.7164 151.656 52.0176 152.835 54.272C153.636 55.8025 154.134 57.4453 154.719 59.0565C155.119 60.1576 155.577 61.2666 155.759 62.4139C156.037 64.1653 157.046 65.5564 157.652 67.1379C158.272 68.7583 158.768 70.4301 159.294 72.0873C159.745 73.5051 160.213 74.9203 160.579 76.3618C160.917 77.6888 161.133 79.0486 161.397 80.3952C161.6 81.4312 161.812 82.4659 161.985 83.5073C162.108 84.2459 162.17 84.995 162.263 85.739C162.426 87.0442 162.602 88.3479 162.753 89.6546C162.854 90.5269 162.945 91.4019 162.998 92.2785C163.064 93.3806 163.088 94.4855 163.127 95.5893C163.17 96.8199 163.289 98.0544 163.235 99.2806C163.106 102.17 158.478 113.787 156.609 116.637C155.526 118.29 154.482 119.97 153.37 121.603C151.913 123.741 150.424 125.856 148.919 127.959C147.117 130.477 145.306 132.989 143.455 135.469C142.58 136.64 141.621 137.748 140.664 138.851C139.864 139.773 139.061 140.703 138.17 141.529C136.431 143.141 134.638 144.693 132.853 146.251C130.499 148.305 127.917 150.042 125.249 151.604C123.071 152.88 120.766 153.953 118.445 154.936C114.945 156.417 111.389 157.759 107.845 159.127C105.136 160.173 102.427 161.222 99.6847 162.167C97.3654 162.966 95.0156 163.688 92.6464 164.312C90.6406 164.84 88.5932 165.211 86.5537 165.592C85.1255 165.859 83.6831 166.057 82.2406 166.229C80.8348 166.396 79.4215 166.5 78.0102 166.615C77.2671 166.676 76.5217 166.726 75.7766 166.742C73.3031 166.795 70.8293 166.85 68.3554 166.864C67.1376 166.871 65.9164 166.829 64.702 166.736C62.9971 166.605 61.2896 166.463 59.597 166.223C57.6663 165.949 55.7524 165.551 53.8284 165.225C52.245 164.957 50.6504 164.754 49.0735 164.452C46.3664 163.933 43.6563 163.418 40.9719 162.792C38.8233 162.29 36.684 161.71 34.5884 161.013C31.2546 159.904 28.1308 158.317 25.3102 156.16C24.3645 155.438 23.4293 154.664 22.6338 153.777C20.7383 151.664 19.2142 149.279 18.1125 146.561C17.2694 144.461 16.714 142.335 16.2577 140.178Z" fill="black" fill-opacity="0.76"/>
<path d="M96.0549 144.784C95.8076 146.117 95.7092 147.443 95.2758 148.642C94.7134 150.197 93.4116 151.137 91.9085 151.615C90.2573 152.141 88.5567 152.509 86.8667 152.895C86.3053 153.023 85.7102 152.998 85.1299 153.034C83.0406 153.164 80.9506 153.284 78.8615 153.418C77.7217 153.491 76.5839 153.6 75.4437 153.666C74.3504 153.728 73.2544 153.8 72.1608 153.783C71.9181 153.779 70.4011 154.004 68.2787 154.157C67.8664 154.187 68.508 156.476 67.7669 156.716C66.1158 157.25 62.0718 157.1 61.3663 155.965C60.6607 154.83 60.9109 154.352 60.1287 154.024C56.3036 152.42 52.3635 152.045 51.2088 148.642C50.4403 146.377 51.9031 141.011 51.4777 136.891C50.387 126.327 48.2178 114.54 48.1469 114.48C48.1541 114.472 45.8369 114.675 45.6644 113.802C43.5233 102.972 42.5469 88.6975 48.1469 85.0982C51.519 82.9308 57.9424 80.7047 65.0637 78.8863C66.0986 78.6221 66.7096 77.0593 67.7669 76.8136C68.0034 76.7587 68.7269 75.3466 69.3475 73.9281C69.9724 72.4997 70.4979 71.0648 71.7808 71.002C74.4178 70.873 78.9669 67.4017 82.0531 68.4849C84.879 69.4768 86.3118 75.0603 87.4031 74.3841C88.503 73.7027 89.4763 74.8859 90.9829 74.8859C101.766 74.8859 109.888 95.9391 111.017 101.119C109.13 103.918 103.54 103.918 98.2581 105.577C97.3843 104.469 95.6282 101.146 95.061 99.2772C94.4772 97.3538 94.2759 101.716 94.235 103.261C94.1821 105.261 94.3565 107.267 94.4527 109.269C94.516 110.589 94.621 111.907 94.6945 113.226C94.8237 115.542 94.9601 117.859 95.061 120.176C95.1319 121.807 95.1012 123.444 95.2035 125.073C95.3083 126.741 95.5246 128.402 95.6824 130.067C95.7752 131.047 95.8599 132.027 95.928 133.009C95.9854 133.836 96.0663 134.667 96.0436 135.494C95.9997 137.096 95.8366 138.696 95.8298 140.298C95.8263 141.134 96.0988 141.968 96.1551 142.809C96.1973 143.441 96.0936 144.083 96.0549 144.784Z" fill="white"/>
<path d="M113.298 44.8863C112.602 44.2094 112.177 43.3638 111.63 42.6111C111.614 42.5889 111.599 42.5657 111.587 42.5409C111.159 41.5868 110.742 40.633 110.538 39.5901C110.42 38.9812 110.425 38.3876 110.515 37.7836C110.559 37.4832 110.578 37.1781 110.636 36.8808C110.815 35.9683 111.247 35.1736 111.755 34.4178C111.908 34.1905 112.084 33.9789 112.233 33.7488C112.79 32.8869 113.576 32.332 114.492 31.9454C115.088 31.6938 115.7 31.4817 116.283 31.1972C116.355 31.1622 116.434 31.1308 116.512 31.1233C117.476 31.0295 118.441 30.932 119.407 30.8529C120.349 30.7756 121.292 30.797 122.234 30.8594C122.745 30.8931 123.258 30.9077 123.767 30.9608C124.87 31.076 125.937 31.332 126.962 31.7923C127.677 32.1139 128.398 32.4146 129.085 32.8036C129.873 33.2506 130.542 33.8441 131.175 34.4889C131.464 34.7841 131.686 35.1299 131.884 35.4936C132.003 35.7107 132.108 35.938 132.246 36.1407C133.052 37.3197 133.226 38.6324 133.031 40.0204C132.985 40.3477 132.882 40.667 132.909 41.004C132.75 41.6764 132.595 42.3515 132.205 42.9338C131.899 43.3904 131.568 43.8256 131.155 44.1896C131.012 44.3157 130.868 44.4427 130.739 44.5832C130.459 44.8881 130.118 45.1065 129.794 45.3539C129.096 45.8868 128.319 46.263 127.551 46.6588C127.455 46.7079 127.354 46.7471 127.252 46.779C126.84 46.9078 126.427 47.0321 126.014 47.1573C125.549 47.2981 125.087 47.4475 124.618 47.5755C123.885 47.7761 123.125 47.779 122.378 47.8809C122.273 47.8953 122.161 47.8874 122.056 47.8689C121.259 47.7299 120.451 47.6876 119.651 47.5849C119.517 47.5679 119.387 47.5324 119.255 47.5042C118.359 47.3124 117.457 47.1421 116.587 46.8372C116.369 46.761 116.172 46.7782 115.969 46.9007C115.737 47.0405 115.491 47.1549 115.249 47.2759C114.736 47.5314 114.291 47.8908 113.83 48.226C113.699 48.3211 113.561 48.4076 113.422 48.4891C113.314 48.552 113.129 48.4575 113.101 48.3261C113.066 48.1649 113.032 48.0053 113.078 47.8357C113.337 46.8903 113.328 45.9232 113.298 44.8863Z" fill="white"/>
<path fill-rule="evenodd" clip-rule="evenodd" d="M68.1174 76.0276C68.1174 76.0276 69.2913 74.3758 69.6965 73.5148C70.1018 72.6538 70.4829 71.002 70.4829 71.002C70.4829 71.002 78.8592 83.1908 77.5338 83.3495C74.8844 83.6667 68.1174 76.0276 68.1174 76.0276Z" fill="#E7EAEE"/>
<path d="M104.238 115.046C102.912 112.879 100.094 107.828 98.7965 105.694C98.7665 105.645 104.809 99.9344 110.188 101.38C110.722 101.524 111.749 103.663 112.253 103.918C113.19 104.393 113.023 102.073 114.817 98.8029C117.642 93.6544 122.845 85.9654 124.888 81.3753C125.718 79.5098 125.131 78.0558 125.043 77.6484C124.719 76.1416 123.958 74.9123 122.86 73.8798C122.148 73.2101 122.119 71.7156 122.93 71.3038C123.529 70.9998 124.204 70.9034 124.888 71.2542C125.668 71.6547 126.444 72.0335 126.981 72.7801C127.053 72.8809 127.181 72.9402 127.282 73.0187C127.331 72.8915 127.386 72.766 127.429 72.6367C127.861 71.34 128.259 70.0297 128.733 68.7491C129.152 67.6175 129.615 66.4986 130.142 65.4167C130.316 65.0602 130.753 64.6009 131.061 64.6082C131.514 64.6188 131.809 65.1212 131.877 65.648C131.913 65.9273 131.952 66.2067 132.003 66.4834C132.025 66.6049 132.083 66.7197 132.124 66.8375C132.206 66.7366 132.282 66.6296 132.371 66.5358C132.64 66.2528 132.879 65.9189 133.195 65.7086C133.629 65.4196 134.123 65.7408 134.088 66.2959C134.04 67.0627 133.982 67.8422 133.802 68.584C133.478 69.9177 133.059 71.227 132.685 72.548C132.663 72.6267 132.684 72.7184 132.686 72.8041C132.77 72.7577 132.895 72.7332 132.931 72.6613C133.167 72.1918 133.419 71.7256 133.597 71.2324C133.886 70.4352 134.322 69.7525 134.954 69.2134C135.101 69.0879 135.339 69.0756 135.535 69.0112C135.592 69.1986 135.734 69.4097 135.692 69.5697C135.388 70.7269 135.125 71.9053 134.702 73.0178C133.636 75.8205 132.497 78.5942 131.377 81.3753C130.73 82.9826 129.979 84.5515 129.429 86.1926C128.87 87.8659 128.543 89.6202 128.035 91.3137C127.496 93.1093 126.875 94.8794 126.269 96.6531C125.348 99.3488 124.519 102.086 123.441 104.714C122.6 106.769 121.503 108.724 120.401 110.651C119.575 112.096 118.629 113.484 117.601 114.783C116.997 115.546 116.139 116.103 115.374 116.724C114.149 117.72 112.759 118.355 111.236 118.714C109.484 119.127 107.928 118.805 106.621 117.491C105.829 116.695 105.052 115.883 104.238 115.046Z" fill="white"/>
<path fill-rule="evenodd" clip-rule="evenodd" d="M63.0149 61.62C62.8461 61.9709 62.857 62.2779 63.077 62.5759C63.1756 62.7094 63.2822 62.8367 63.3888 62.964L63.3888 62.9641C63.5033 63.1008 63.6178 63.2375 63.7223 63.3819C63.8801 63.5999 64.0431 63.8151 64.2062 64.0304L64.2063 64.0306C64.6345 64.5959 65.0631 65.1618 65.3993 65.7802C65.8743 66.6541 66.4244 67.2986 67.4227 67.4837C67.8279 67.5588 67.9809 67.8916 68.0294 68.3298C68.0969 68.9396 68.2074 69.5578 68.4044 70.1345C68.5454 70.5472 68.9181 70.8206 69.3929 70.7678C69.6155 70.7431 69.8372 70.7045 70.0587 70.6659L70.0587 70.6659C70.3997 70.6064 70.7402 70.5471 71.0824 70.5387C71.4103 70.5306 71.8356 70.6186 72.0561 70.8359C72.6451 71.4166 73.1874 72.0481 73.7292 72.6788L73.7293 72.6789C73.8412 72.8093 73.9532 72.9396 74.0655 73.0695C74.107 73.1174 74.1477 73.1658 74.1881 73.2138L74.1882 73.2138C74.5839 73.6837 74.9516 74.1202 75.7378 73.8399C76.6714 73.507 77.6532 73.3579 78.666 73.4257C79.5948 73.4878 79.9576 73.1644 80.2434 72.2297C80.2727 72.1338 80.2975 72.0359 80.3223 71.938L80.3224 71.9379C80.3703 71.7488 80.4181 71.56 80.4983 71.3867C80.5287 71.3209 80.5587 71.2543 80.5889 71.1874C80.754 70.8214 80.9228 70.4471 81.1774 70.1596C81.6375 69.6402 82.234 69.72 82.8453 69.9428C83.5333 70.1936 83.8902 70.0398 84.1871 69.3969C84.3127 69.1248 84.3543 69.1283 84.584 69.3024C84.7699 69.4433 85.0627 69.5084 85.2997 69.4904C85.886 69.4458 86.4731 69.3614 87.0479 69.2352C87.2555 69.1896 87.5307 69.0207 87.6017 68.8372C87.6886 68.6128 87.776 68.3884 87.8634 68.164C88.3563 66.8989 88.85 65.632 89.2449 64.334C89.8873 62.2228 90.3657 60.0613 90.3645 57.8313C90.3637 56.3375 90.3211 54.8437 90.2784 53.35L90.2784 53.3497L90.2784 53.3491C90.2676 52.9707 90.2568 52.5922 90.2467 52.2138C90.2418 52.0343 90.2377 51.8545 90.2335 51.6748L90.2335 51.6741C90.2145 50.8548 90.1955 50.0345 90.1155 49.2211C89.9709 47.7533 89.7849 46.2898 89.5989 44.8265L89.5989 44.8264C89.5676 44.5805 89.5364 44.3347 89.5053 44.0888C89.4143 43.3679 89.3082 42.649 89.2021 41.9301L89.202 41.9294C89.1669 41.6919 89.1319 41.4544 89.0974 41.2168L89.0227 40.7021C88.8569 39.5591 88.6911 38.4161 88.5159 37.2747C88.5091 37.2301 88.5028 37.1839 88.4965 37.1371C88.4645 36.8996 88.4302 36.6452 88.2998 36.4846C88.1833 36.3411 88.0671 36.1972 87.9508 36.0533C87.2067 35.1321 86.4605 34.2084 85.6304 33.3749C84.9792 32.7209 84.1943 32.1958 83.4236 31.6801L83.3234 31.613C81.2172 30.2027 78.8582 29.5678 76.3786 29.4003C75.6991 29.3544 75.0162 29.365 74.333 29.3756C73.9241 29.3819 73.515 29.3883 73.1065 29.3825C72.7337 29.3772 72.5317 29.4993 72.2898 29.8336C71.9687 30.2771 71.4888 30.6341 71.0151 30.9193C69.832 31.6318 68.7908 32.4686 67.9911 33.645C66.9407 35.1902 65.9784 36.7801 65.3494 38.5525C64.8642 39.9196 64.5286 41.3236 64.4128 42.7943C64.3755 43.2691 64.2824 43.7376 64.1892 44.2065C64.0089 45.1136 63.8284 46.0219 64.0511 46.9784C64.1471 47.3906 64.203 47.8133 64.2588 48.2358C64.3242 48.7311 64.3896 49.2259 64.5195 49.7028L64.5914 49.9657C65.0059 51.4805 65.4126 52.9668 65.3317 54.5968C65.2447 56.3489 64.6398 57.8796 63.9391 59.5381C63.8496 59.7416 63.7614 59.9458 63.6733 60.15L63.6733 60.1501C63.4604 60.6434 63.2475 61.1367 63.0149 61.62ZM90.743 50.0828C90.7439 50.0978 90.7422 50.1141 90.7405 50.1302V50.1303C90.7376 50.1592 90.7346 50.1876 90.7463 50.2075C90.7823 50.2689 90.8254 50.3259 90.8686 50.3829L90.8686 50.383C90.8856 50.4054 90.9026 50.4279 90.9192 50.4507C90.9376 50.4338 90.9567 50.4177 90.9759 50.4015C91.0172 50.3666 91.0586 50.3318 91.092 50.2901C91.1868 50.1718 91.2824 50.0541 91.378 49.9363L91.3782 49.9361C91.6502 49.6009 91.9223 49.2656 92.1776 48.9173C92.7404 48.1491 93.2909 47.371 93.83 46.585C94.1479 46.1215 93.8318 45.9295 93.4548 45.902C92.6698 45.8448 92.0051 46.1857 91.3307 46.5841C90.8488 46.8687 90.4938 47.1071 90.6198 47.8584L90.6386 48.1964C90.6735 48.8252 90.7085 49.454 90.743 50.0828ZM63.8619 50.4395C63.8449 50.468 63.8279 50.4965 63.8156 50.524C63.4799 50.3596 63.1686 50.1632 62.8604 49.9687C62.5906 49.7985 62.3232 49.6298 62.0439 49.4853C61.4127 49.1588 61.1906 48.5659 60.9885 47.9765C60.7559 47.2983 61.2736 46.6504 61.9755 46.6554C62.0067 46.6556 62.0381 46.6557 62.0695 46.6558C62.3197 46.6567 62.5737 46.6576 62.8143 46.7118C63.2869 46.8183 63.3338 47.1947 63.379 47.5574C63.393 47.6699 63.4069 47.7811 63.4333 47.8826C63.602 48.5316 63.7253 49.1934 63.8485 49.8546C63.874 49.9914 63.8995 50.1282 63.9253 50.2648C63.9352 50.3169 63.8986 50.3782 63.8619 50.4395Z" fill="white"/>
<ellipse cx="86.376" cy="57.968" rx="1.652" ry="1.69749" fill="#FFB61D"/>
<ellipse cx="69.148" cy="56.5128" rx="1.652" ry="1.69748" fill="#FFB61D"/>
<path fill-rule="evenodd" clip-rule="evenodd" d="M76.9579 36.0555C77.8992 36.2633 78.9201 36.5155 79.8714 35.9846C80.1936 35.8047 80.4964 35.5834 80.79 35.3563C80.9691 35.2177 81.1302 35.0458 81.271 34.8654C82.3884 33.4338 83.213 33.6476 84.7517 34.5823C86.7202 35.7782 88.9997 39.2616 82.8965 39.2616C79.8224 39.2616 67.544 37.5412 69.2584 35.8311C69.9591 35.1322 70.877 34.6644 71.6902 34.0829C71.9965 33.8639 72.3084 33.6447 72.5787 33.383C72.9702 33.004 73.2079 33.2041 73.4523 33.5526C73.7737 34.0106 74.1091 34.4581 74.4694 34.9419C75.3168 35.3473 76.1028 35.8667 76.9579 36.0555Z" fill="#E7EAEE"/>
<path fill-rule="evenodd" clip-rule="evenodd" d="M109.853 101.546C109.534 101.744 109.215 101.941 108.872 102.074C108.044 102.397 107.204 102.689 106.355 102.984L106.355 102.984C105.817 103.171 105.276 103.359 104.732 103.557C104.568 103.623 104.424 103.666 104.285 103.708L104.282 103.709C104.25 103.718 104.219 103.728 104.187 103.737C103.702 103.886 103.216 104.036 102.731 104.186C101.513 104.562 100.296 104.939 99.0716 105.292C98.576 105.435 98.1663 105.275 97.897 104.724C97.2278 103.356 96.5117 102.011 95.7913 100.67C95.7413 100.577 95.6178 100.526 95.4943 100.475C95.437 100.451 95.3797 100.427 95.3297 100.399C95.311 100.464 95.2812 100.535 95.2514 100.605C95.1872 100.758 95.123 100.91 95.17 101.003C95.9733 102.589 96.798 104.165 97.6608 105.717C97.7676 105.909 98.1538 106.086 98.367 106.042C99.4997 105.813 100.624 105.532 101.741 105.228C102.172 105.11 102.599 104.973 103.026 104.835C103.641 104.637 104.256 104.44 104.884 104.301C107.039 103.827 109.1 103.143 110.95 101.876C111.614 101.422 111.796 100.726 111.473 100.006C111.36 99.7539 111.245 99.503 111.13 99.252C110.734 98.3868 110.337 97.5205 110.027 96.6235C109.075 93.8733 108.004 91.1765 106.743 88.5641C105.945 86.9108 105.098 85.2791 104.197 83.6826C102.994 81.5497 101.734 79.4185 99.7987 77.9008C98.4549 76.8467 97.0159 75.854 95.4858 75.1335C93.2495 74.0804 90.7934 73.8498 88.3495 73.6747C87.8502 73.6389 87.3253 73.4464 86.8842 73.1935C85.9998 72.6864 85.6405 71.7881 85.2787 70.8836C85.2391 70.7845 85.1995 70.6855 85.1592 70.5868C84.9807 70.1505 85.268 70.0688 85.4488 70.0303C85.9144 69.9313 86.4062 69.8529 86.8743 69.9015C87.6036 69.9772 88.0048 69.6282 88.2725 69.0068C88.9291 67.4824 89.5039 65.9321 89.9379 64.3188C90.5389 62.0853 91.052 59.8518 90.9973 57.5111C90.9736 56.4966 90.9791 55.4813 90.9846 54.4661C90.9875 53.9366 90.9903 53.4072 90.989 52.8778C90.9887 52.7334 90.9716 52.5823 90.9546 52.4317C90.9205 52.1289 90.8865 51.828 90.989 51.5867C91.2412 50.9933 91.6554 50.4608 92.0573 49.949C92.3751 49.5443 92.7072 49.1513 93.0393 48.7584L93.0393 48.7584L93.0393 48.7583L93.0393 48.7583L93.0394 48.7583L93.0394 48.7582L93.0394 48.7582L93.0394 48.7582L93.0394 48.7581L93.0395 48.7581L93.0395 48.7581L93.0395 48.758L93.0395 48.758L93.0396 48.7579L93.0396 48.7579C93.4421 48.2815 93.8445 47.8053 94.2214 47.3083C94.5249 46.9082 94.7513 46.3985 94.4456 45.8671C94.147 45.348 93.6681 45.1374 93.1119 45.2664C93.0165 45.2885 92.9205 45.3094 92.8243 45.3303C92.1249 45.4823 91.4179 45.636 90.9243 46.2732C90.6871 46.5793 90.5499 46.5803 90.4884 46.1363C90.4428 45.8066 90.3779 45.4796 90.3129 45.1527L90.3129 45.1525C90.2457 44.814 90.1784 44.4755 90.1326 44.1339C90.0762 43.713 90.0383 43.2894 90.0004 42.8659C89.9637 42.456 89.927 42.0462 89.8735 41.6386C89.7985 41.0666 89.7138 40.4958 89.6291 39.925L89.6291 39.9249L89.6291 39.9248L89.6291 39.9248L89.6291 39.9247L89.6291 39.9246L89.629 39.9246L89.629 39.9245L89.629 39.9245L89.629 39.9244L89.629 39.9244L89.629 39.9243L89.629 39.9243L89.629 39.9242L89.6289 39.9242L89.6289 39.9241C89.5008 39.0602 89.3726 38.1965 89.2781 37.3287C89.2219 36.8133 89.0828 36.4005 88.7463 36.0248C88.5718 35.83 88.3945 35.6371 88.2172 35.444L88.2172 35.444L88.2172 35.444L88.2171 35.4439L88.2171 35.4439L88.2171 35.4439L88.2171 35.4438L88.217 35.4438L88.217 35.4437C87.6733 34.8518 87.129 34.2591 86.66 33.6097C85.366 31.8178 83.5283 30.878 81.6212 30.0256C80.3924 29.4764 79.1218 29.0835 77.7706 29.0043C77.176 28.9694 76.5818 28.9258 75.9877 28.8823L75.9876 28.8823C75.3809 28.8379 74.7742 28.7934 74.1669 28.7582C73.6674 28.7292 73.1594 28.7085 72.6661 28.7723C72.4208 28.8041 72.1755 29.0056 71.9731 29.1824C71.7733 29.3568 71.5832 29.5434 71.3931 29.73C71.1483 29.9703 70.9036 30.2105 70.6385 30.4243C70.3591 30.6498 70.0631 30.8568 69.7675 31.0636C69.2822 31.403 68.7979 31.7417 68.3895 32.1603C67.92 32.6414 67.545 33.2212 67.1706 33.7999C67.0328 34.0129 66.8952 34.2258 66.7529 34.4336C65.6968 35.9756 64.8854 37.6422 64.4387 39.4768C64.1622 40.6123 63.9281 41.7592 63.6957 42.9055L63.6589 43.0868C63.4884 43.926 63.3175 44.7671 63.2101 45.6157L63.2054 45.6533C63.1205 46.3254 63.1141 46.3765 62.4866 46.138C61.8387 45.8918 61.2803 46.0581 60.8242 46.5098C60.3759 46.9537 60.3266 47.5525 60.4824 48.1561C60.9388 49.9239 62.2534 50.664 63.8249 51.1049C63.9622 51.1434 64.1136 51.281 64.179 51.4138C64.8566 52.7912 64.8859 54.2562 64.457 55.6769C64.0621 56.9851 63.5943 58.27 63.1265 59.555L63.1264 59.5554C62.92 60.1222 62.7137 60.6891 62.5136 61.2579C62.3075 61.8438 62.1945 62.381 62.6666 62.9485C63.6821 64.1691 64.652 65.4325 65.3845 66.8643C65.675 67.432 66.1209 67.8408 66.7189 67.9641C67.2885 68.0816 67.3658 68.3711 67.4329 68.9204C67.5213 69.6444 67.7558 70.4053 68.1364 71.0118C68.2572 71.2043 68.583 71.2564 68.9165 71.3097C69.0931 71.338 69.2718 71.3665 69.4233 71.4164C69.5472 71.4572 69.7437 71.6269 69.7285 71.6958C69.7014 71.8184 69.6751 71.9415 69.6487 72.0648L69.6487 72.0648L69.6487 72.0648L69.6487 72.0649L69.6487 72.0649L69.6487 72.0649L69.6487 72.065L69.6487 72.065C69.5223 72.6562 69.3953 73.2505 69.1818 73.8087C68.7142 75.0306 67.7197 75.7951 66.7545 76.5371L66.7541 76.5375C66.6223 76.6388 66.4911 76.7396 66.3618 76.8412C64.6766 78.1653 62.672 78.8924 60.658 79.5199C59.7114 79.8148 58.7512 80.0629 57.7908 80.3111L57.7907 80.3111L57.7907 80.3112L57.7906 80.3112L57.7906 80.3112L57.7906 80.3112L57.7905 80.3112L57.7905 80.3112L57.7905 80.3112L57.7904 80.3112L57.7904 80.3112L57.7903 80.3113L57.7903 80.3113L57.7903 80.3113L57.7902 80.3113L57.7902 80.3113C57.1674 80.4723 56.5445 80.6332 55.9252 80.807C55.5392 80.9153 55.1578 81.0434 54.7766 81.1715C54.2112 81.3614 53.6463 81.5511 53.0676 81.6759C50.8446 82.1552 48.8836 83.1411 47.1612 84.6511C46.0036 85.666 45.3822 87.0307 44.7573 88.4031L44.6661 88.6032C43.8216 90.4531 43.0811 92.4254 42.9768 94.4272C42.9475 94.9886 42.9892 95.5537 43.031 96.119C43.0521 96.4048 43.0732 96.6907 43.0851 96.9762C43.112 97.6182 43.135 98.2604 43.158 98.9026C43.208 100.299 43.258 101.696 43.3476 103.09C43.3976 103.868 43.5321 104.64 43.6664 105.411L43.6665 105.412C43.705 105.633 43.7436 105.854 43.7801 106.075C43.8795 106.678 43.9905 107.278 44.1015 107.879L44.1015 107.879C44.1755 108.28 44.2496 108.68 44.3202 109.081C44.3662 109.343 44.4156 109.604 44.4651 109.866C44.598 110.569 44.7311 111.273 44.7986 111.983C44.8607 112.635 44.8426 113.296 44.8246 113.956C44.8193 114.151 44.814 114.347 44.8107 114.542C44.805 114.885 44.8634 115.163 45.265 115.07C45.6618 114.978 46.0518 114.854 46.4416 114.73C46.5641 114.691 46.6866 114.652 46.8092 114.614C47.2229 114.486 47.4764 114.636 47.5298 115.073C47.5825 115.506 47.629 115.939 47.6755 116.372C47.7461 117.03 47.8167 117.687 47.9092 118.342C48.134 119.932 48.3813 121.52 48.6481 123.104C49.1377 126.012 49.8436 128.868 50.771 131.658C51.5954 134.138 52.4872 136.596 53.3875 139.048C53.9061 140.461 54.4608 141.86 55.0155 143.259C55.1572 143.616 55.2989 143.974 55.44 144.331C56.0118 145.78 56.596 147.224 57.1809 148.668C57.3166 149.002 57.4506 149.338 57.5846 149.673L57.5849 149.674L57.585 149.674C57.9783 150.659 58.3717 151.644 58.806 152.609C59.183 153.447 59.6114 154.26 60.0396 155.074L60.0397 155.074C60.1661 155.314 60.2924 155.554 60.4175 155.794C60.4563 155.869 60.5343 155.922 60.6124 155.976C60.6486 156 60.6848 156.025 60.7171 156.052C60.7327 156.008 60.7508 155.964 60.7689 155.92C60.8113 155.818 60.8538 155.715 60.8635 155.61C60.8711 155.527 60.8254 155.437 60.7818 155.35L60.7817 155.35L60.766 155.319C60.76 155.307 60.7542 155.295 60.7486 155.283C60.603 154.969 60.4523 154.658 60.3016 154.346C59.9857 153.692 59.6698 153.039 59.4001 152.366C58.4658 150.035 57.5695 147.687 56.6764 145.338C56.2752 144.282 55.8829 143.223 55.4906 142.164C55.1044 141.122 54.7182 140.079 54.3234 139.04C54.078 138.394 53.8185 137.753 53.559 137.112L53.559 137.112C53.0946 135.964 52.6303 134.817 52.2467 133.642C51.4325 131.147 50.704 128.619 50.0443 126.076C49.6726 124.643 49.4172 123.177 49.1622 121.713C49.1163 121.45 49.0705 121.187 49.024 120.924C48.8954 120.197 48.8135 119.461 48.7316 118.726L48.7316 118.726L48.7316 118.725L48.7315 118.725L48.7315 118.725L48.7315 118.725L48.7315 118.725L48.7315 118.725L48.7315 118.725L48.7315 118.725L48.7314 118.725L48.7314 118.724L48.7314 118.724L48.7314 118.724L48.7314 118.724C48.7035 118.474 48.6756 118.223 48.6459 117.973C48.5164 116.884 48.3944 115.794 48.2757 114.703C48.2362 114.34 48.3928 114.168 48.7537 114.05C50.1354 113.601 51.5105 113.13 52.8856 112.659L52.8858 112.659L52.886 112.659L52.8862 112.659L52.8865 112.659C53.3746 112.491 53.8627 112.324 54.351 112.158C54.7142 112.034 55.101 111.916 55.4986 111.794C56.9707 111.343 58.5911 110.847 59.7114 109.878C59.7764 109.822 59.9462 109.79 59.9869 109.831C60.0601 109.904 60.1118 110.045 60.1041 110.152C60.0654 110.69 60.0185 111.227 59.9716 111.764L59.9716 111.764L59.9716 111.764L59.9716 111.764L59.9715 111.764L59.9715 111.764L59.9715 111.764L59.9715 111.765L59.9715 111.765L59.9715 111.765L59.9715 111.765L59.9715 111.765L59.9715 111.765L59.9715 111.765L59.9715 111.765L59.9715 111.765C59.8789 112.825 59.7863 113.885 59.7573 114.946C59.7205 116.293 59.7834 117.644 59.8462 118.992L59.8462 118.992L59.8462 118.993L59.8462 118.993L59.8462 118.994L59.8463 118.994L59.8463 118.995L59.86 119.29L59.8708 119.526C59.9096 120.382 59.9717 121.244 60.121 122.085C60.501 124.225 61.2894 126.228 62.2152 128.173C62.3498 128.455 62.5098 128.728 62.6696 128.999L62.6697 128.999L62.6697 128.999C62.9088 129.406 63.1472 129.811 63.2989 130.25C63.5308 130.92 63.7759 131.586 64.0211 132.252C64.6944 134.08 65.3679 135.909 65.7677 137.833C65.8935 138.438 66.0403 139.039 66.1872 139.639L66.1872 139.639C66.3502 140.306 66.5131 140.972 66.6472 141.644C66.854 142.682 67.0151 143.729 67.1761 144.775L67.1764 144.777C67.2134 145.018 67.2504 145.258 67.288 145.499C67.334 145.793 67.3853 146.088 67.4367 146.382C67.5761 147.182 67.7156 147.982 67.7492 148.787C67.8161 150.387 67.8373 151.99 67.8585 153.593V153.593V153.593V153.593V153.593V153.593V153.593V153.593V153.593V153.593V153.593V153.593V153.593V153.593V153.593C67.8698 154.449 67.8812 155.304 67.8995 156.159C67.9022 156.287 67.9549 156.413 68.0076 156.539C68.0321 156.598 68.0567 156.657 68.0761 156.716C68.1088 156.656 68.1494 156.597 68.19 156.538C68.2777 156.411 68.3655 156.283 68.373 156.151C68.4138 155.429 68.4377 154.707 68.4617 153.984C68.4771 153.518 68.4925 153.052 68.5125 152.586C68.522 152.364 68.5445 152.143 68.567 151.921C68.6007 151.588 68.6343 151.256 68.6241 150.925C68.6135 150.579 68.6039 150.232 68.5943 149.885L68.5943 149.885L68.5943 149.884L68.5943 149.884L68.5942 149.884V149.884C68.5503 148.297 68.5063 146.708 68.3612 145.13C68.264 144.071 68.02 143.024 67.7771 141.982L67.7771 141.982C67.7305 141.782 67.6839 141.582 67.6384 141.382C67.5295 140.904 67.4231 140.424 67.3167 139.944L67.3167 139.944C66.9395 138.244 66.5621 136.542 66.0664 134.878C65.2523 132.145 64.1472 129.522 62.8777 126.969C62.3006 125.808 61.8169 124.57 61.4929 123.312C60.8566 120.841 60.8015 118.287 60.7466 115.748L60.7415 115.509C60.716 114.34 60.7627 113.17 60.8095 112C60.8254 111.6 60.8414 111.201 60.8545 110.802C60.8717 110.277 60.9108 109.754 60.95 109.23L60.9501 109.229C60.9587 109.115 60.9672 109.001 60.9755 108.887C61.0135 108.365 61.0598 107.844 61.1062 107.322C61.2075 106.183 61.3088 105.043 61.3226 103.903C61.3337 102.985 61.2758 102.067 61.2178 101.149C61.1698 100.389 61.1218 99.6277 61.113 98.8668C61.1006 97.7929 60.799 96.8005 60.4973 95.8074L60.4973 95.8074C60.4016 95.4924 60.3059 95.1773 60.2193 94.8596C60.1861 94.7376 60.0632 94.6413 59.9403 94.545C59.8834 94.5004 59.8265 94.4559 59.7785 94.4087C59.7597 94.4776 59.7327 94.5482 59.7057 94.6188C59.6467 94.773 59.5878 94.9271 59.6147 95.0633C59.6687 95.3364 59.7492 95.6055 59.8296 95.8742C59.9421 96.2502 60.0544 96.6252 60.0931 97.009C60.2668 98.7283 60.4314 100.455 60.4583 102.181C60.4696 102.904 60.4147 103.628 60.3599 104.352C60.2986 105.16 60.2375 105.967 60.2683 106.771C60.3122 107.919 59.7427 108.528 58.9802 109.111C57.9771 109.876 56.5444 110.319 55.2583 110.716L55.2582 110.716C54.9174 110.821 54.5869 110.923 54.2775 111.027C52.355 111.674 50.4439 112.356 48.5329 113.039C47.7438 113.321 46.9548 113.602 46.1649 113.881L46.1516 113.886C45.8876 113.98 45.6697 114.057 45.6701 113.594C45.6706 113.029 45.6136 112.463 45.5569 111.9L45.5539 111.869C45.5216 111.549 45.49 111.228 45.4584 110.908L45.4583 110.907C45.3361 109.667 45.2138 108.428 45.0548 107.193C44.9577 106.439 44.8397 105.687 44.7217 104.936C44.5807 104.038 44.4398 103.14 44.3344 102.238C44.1862 100.969 44.0983 99.6865 44.0883 98.4092C44.0781 97.1155 44.1168 95.8213 44.1556 94.5271C44.1708 94.0192 44.186 93.5113 44.1983 93.0034C44.2311 91.6406 44.8822 90.3903 45.5172 89.171C45.7548 88.7148 45.9901 88.263 46.1899 87.8112C47.2033 85.5198 49.1117 84.2563 51.2598 83.3638C52.2922 82.9348 53.3692 82.6179 54.4455 82.3012C54.841 82.1848 55.2363 82.0685 55.6293 81.9466C56.5098 81.6736 57.3925 81.4077 58.2751 81.1418L58.2753 81.1418L58.2756 81.1417L58.2758 81.1416L58.276 81.1416L58.2762 81.1415L58.2764 81.1414L58.2767 81.1413L58.2769 81.1413L58.2771 81.1412L58.2773 81.1411L58.2775 81.1411L58.2777 81.141L58.278 81.1409L58.2782 81.1409C60.0186 80.6166 61.759 80.0924 63.4821 79.5136C65.0198 78.9971 66.4841 78.2573 67.6951 77.1121C68.0268 76.7984 68.1901 76.8541 68.4827 77.1415C69.438 78.0799 70.4161 78.994 71.3939 79.908L71.5622 80.0652C73.2293 81.6237 75.0849 82.898 77.1481 83.8273C77.4538 83.965 77.9544 83.9458 78.2385 83.776C78.8791 83.393 79.4783 82.9349 80.0762 82.4778C80.1994 82.3836 80.3226 82.2895 80.446 82.1961C80.6942 82.0082 80.9428 81.8208 81.1915 81.6334C82.2247 80.8547 83.2582 80.0759 84.263 79.2601C85.3305 78.3934 86.0943 77.2516 86.8555 76.1138L86.8555 76.1138L86.8555 76.1137C86.9773 75.9317 87.099 75.7498 87.2218 75.5692C87.2701 75.4982 87.0998 75.1326 86.9907 75.1099C86.5629 75.0209 86.3665 75.3073 86.1606 75.6077L86.1605 75.6078L86.1604 75.6079L86.1604 75.608L86.1603 75.6081L86.1602 75.6082L86.1598 75.6089L86.1594 75.6095L86.1593 75.6096L86.1588 75.6103C86.1202 75.6666 86.0813 75.7234 86.0404 75.7782C85.8695 76.0072 85.7028 76.2424 85.5357 76.4781L85.5357 76.4781C85.0181 77.2082 84.4978 77.9422 83.8438 78.5089C82.8 79.4133 81.7037 80.2531 80.6071 81.0932C79.8274 81.6905 79.0475 82.2879 78.2863 82.9087C77.8125 83.2951 77.4638 83.2667 77.006 83.0012L76.8205 82.8938L76.7071 82.8284L76.7049 82.8271C75.6368 82.2105 74.5775 81.599 73.6535 80.7263C72.4659 79.6047 71.2194 78.5486 69.9733 77.4927L69.9732 77.4926L69.9722 77.4918L69.9712 77.491L69.9709 77.4907L69.9706 77.4904L69.9702 77.4901L69.9699 77.4898L69.9696 77.4895L69.9692 77.4893L69.9689 77.489L69.9686 77.4887L69.9683 77.4884L69.9679 77.4881L69.9676 77.4878L69.9673 77.4875C69.6129 77.1873 69.2586 76.8871 68.9057 76.5855C68.5767 76.3041 68.6358 76.1302 68.9188 75.8642C69.8671 74.9727 70.3758 73.8698 70.5138 72.539C70.5222 72.4579 70.525 72.3685 70.5279 72.2758C70.5412 71.8563 70.5566 71.366 71.1027 71.2351C71.6276 71.1093 72.019 71.4619 72.3323 71.8526C72.5334 72.1035 72.7253 72.3622 72.9173 72.6209L72.9173 72.6209L72.9173 72.6209L72.9173 72.621L72.9173 72.621L72.9174 72.621L72.9174 72.6211L72.9174 72.6211L72.9174 72.6211L72.9175 72.6212L72.9175 72.6212L72.9175 72.6213L72.9175 72.6213L72.9176 72.6213L72.9176 72.6214L72.9177 72.6215C73.1565 72.9434 73.3953 73.2653 73.6516 73.5719L73.6998 73.6296C74.1897 74.217 74.7294 74.8641 75.5812 74.5613C76.7722 74.1381 77.9743 74.0593 79.2121 74.0443C79.5639 74.0401 80.0525 73.7696 80.2329 73.4668C80.5311 72.9662 80.7514 72.4164 80.9717 71.8668L80.9718 71.8667C81.0569 71.6542 81.1421 71.4417 81.2318 71.232C81.5477 70.4935 81.8762 70.2175 82.6672 70.5135C83.0108 70.6421 83.4658 70.7445 83.7768 70.6174C84.3926 70.3657 84.5091 70.6708 84.6818 71.1235L84.7032 71.1793C85.1065 72.2292 85.5168 73.2821 86.4902 73.9668C87.1318 74.4182 87.8582 74.5431 88.5851 74.6682L88.5851 74.6682L88.5856 74.6683C88.653 74.6799 88.7204 74.6914 88.7878 74.7033C89.4201 74.8146 90.0545 74.9145 90.6888 75.0143L90.689 75.0143C91.6012 75.1578 92.5132 75.3014 93.419 75.4791C95.7785 75.9419 97.8009 77.1875 99.534 78.7992C100.744 79.9249 101.722 81.3425 102.676 82.7249L102.703 82.7649C103.396 83.7687 103.959 84.8717 104.519 85.968L104.519 85.9681C104.583 86.0945 104.648 86.2209 104.712 86.347C104.885 86.6838 105.059 87.0201 105.233 87.3565L105.233 87.3575L105.234 87.3585L105.235 87.3596L105.235 87.3606L105.236 87.3616L105.236 87.3626L105.237 87.3636L105.237 87.3647C106.039 88.9138 106.841 90.4648 107.521 92.0695C108.307 93.9266 109.024 95.8148 109.741 97.7031C110.09 98.62 110.438 99.5369 110.794 100.45C110.913 100.756 110.951 100.95 110.59 101.125C110.336 101.247 110.094 101.397 109.853 101.546ZM63.6734 60.15L63.6737 60.1494L63.6739 60.149C63.7619 59.9451 63.8499 59.7412 63.9392 59.538C64.64 57.8795 65.2449 56.3488 65.3319 54.5967C65.4128 52.9667 65.006 51.4804 64.5915 49.9657L64.5197 49.7027C64.3897 49.2258 64.3244 48.731 64.2589 48.2357C64.2031 47.8132 64.1473 47.3905 64.0513 46.9783C63.8285 46.0218 64.009 45.1136 64.1893 44.2064L64.1893 44.2064C64.2825 43.7375 64.3756 43.269 64.413 42.7942C64.5288 41.3236 64.8644 39.9195 65.3495 38.5524C65.9785 36.78 66.9409 35.1901 67.9913 33.6449C68.791 32.4685 69.8321 31.6317 71.0153 30.9192C71.489 30.634 71.9688 30.277 72.2899 29.8335C72.5319 29.4992 72.7338 29.3771 73.1067 29.3824C73.5152 29.3882 73.9242 29.3818 74.3332 29.3755C75.0163 29.3649 75.6992 29.3543 76.3787 29.4002C78.8584 29.5677 81.2174 30.2026 83.3235 31.6129L83.4237 31.68C84.1945 32.1957 84.9793 32.7208 85.6306 33.3748C86.4606 34.2083 87.2068 35.132 87.9509 36.0532C88.0672 36.1971 88.1835 36.341 88.3 36.4845C88.4304 36.6451 88.4647 36.8995 88.4967 37.137C88.503 37.1838 88.5092 37.23 88.5161 37.2746C88.6908 38.4128 88.8561 39.5526 89.0214 40.6923L89.0215 40.693L89.0216 40.6937L89.0217 40.6944L89.0218 40.6951L89.0219 40.6958L89.022 40.6964L89.0221 40.6971L89.0222 40.6978L89.0223 40.6985L89.0224 40.6992L89.0225 40.6999L89.0226 40.7006L89.0227 40.7012L89.0228 40.7019L89.0975 41.2167C89.132 41.4541 89.167 41.6914 89.2021 41.9288L89.2021 41.9293L89.2022 41.93C89.3083 42.6489 89.4144 43.3678 89.5055 44.0887C89.5365 44.3345 89.5678 44.5804 89.599 44.8263L89.5991 44.8268C89.7851 46.2899 89.9711 47.7534 90.1156 49.221C90.1957 50.0343 90.2147 50.8546 90.2337 51.6739V51.6741C90.2378 51.854 90.242 52.034 90.2468 52.2137C90.2569 52.5921 90.2677 52.9705 90.2786 53.3488L90.2786 53.3494L90.2786 53.35C90.3212 54.8437 90.3639 56.3375 90.3647 57.8312C90.3658 60.0613 89.8874 62.2228 89.2451 64.3339C88.8502 65.6318 88.3565 66.8988 87.8636 68.1639L87.8635 68.164L87.8616 68.1691C87.7748 68.3918 87.688 68.6144 87.6019 68.8372C87.5309 69.0206 87.2557 69.1895 87.0481 69.2351C86.4733 69.3613 85.8862 69.4457 85.2999 69.4903C85.0629 69.5083 84.77 69.4432 84.5842 69.3023C84.3544 69.1282 84.3129 69.1247 84.1873 69.3968C83.8904 70.0397 83.5335 70.1935 82.8455 69.9427C82.2341 69.7199 81.6377 69.6401 81.1776 70.1595C80.9229 70.447 80.7541 70.8213 80.5891 71.1873C80.5589 71.2542 80.5289 71.3208 80.4984 71.3866C80.4183 71.5599 80.3704 71.7488 80.3225 71.9378C80.2977 72.0358 80.2729 72.1337 80.2435 72.2296C79.9578 73.1644 79.595 73.4877 78.6661 73.4256C77.6534 73.3578 76.6716 73.5069 75.738 73.8398C74.9518 74.1201 74.5841 73.6836 74.1884 73.2137C74.1479 73.1657 74.1072 73.1174 74.0657 73.0694C73.9534 72.9395 73.8414 72.8092 73.7294 72.6788C73.1877 72.048 72.6453 71.4166 72.0563 70.8359C71.8358 70.6185 71.4105 70.5305 71.0826 70.5386C70.7404 70.547 70.3999 70.6063 70.0589 70.6658L70.0588 70.6658L70.0588 70.6658L70.0587 70.6658L70.0587 70.6658L70.0586 70.6658L70.0585 70.6658L70.0585 70.6658L70.0584 70.6659L70.0584 70.6659L70.0583 70.6659L70.0583 70.6659L70.0582 70.6659L70.0581 70.6659L70.0581 70.6659C69.8368 70.7045 69.6154 70.7431 69.3931 70.7678C68.9183 70.8205 68.5455 70.5471 68.4046 70.1344C68.2075 69.5577 68.097 68.9395 68.0295 68.3297C67.981 67.8915 67.828 67.5587 67.4229 67.4836C66.4246 67.2985 65.8745 66.6541 65.3995 65.7801C65.0633 65.1617 64.6347 64.5958 64.2064 64.0305L64.2062 64.0302C64.0432 63.8149 63.8802 63.5998 63.7224 63.3818C63.6179 63.2374 63.5035 63.1007 63.389 62.964L63.3889 62.9639L63.3889 62.9638C63.2823 62.8366 63.1758 62.7093 63.0772 62.5758C62.8572 62.2778 62.8462 61.9708 63.0151 61.6199C63.2476 61.1366 63.4605 60.6433 63.6734 60.15ZM90.6381 48.185L90.6199 47.8585C90.4939 47.1071 90.8489 46.8687 91.3308 46.5841C92.0053 46.1858 92.67 45.8449 93.4549 45.9021C93.8319 45.9295 94.148 46.1216 93.8302 46.585C93.2911 47.371 92.7406 48.1492 92.1777 48.9174C91.9224 49.2657 91.6503 49.601 91.3782 49.9362L91.3777 49.9369C91.2822 50.0544 91.1868 50.172 91.0921 50.2901C91.0587 50.3318 91.0174 50.3667 90.976 50.4016C90.9568 50.4177 90.9377 50.4339 90.9193 50.4507C90.9027 50.4279 90.8857 50.4055 90.8687 50.383C90.8255 50.326 90.7824 50.2689 90.7464 50.2075C90.7347 50.1876 90.7377 50.1592 90.7406 50.1303C90.7423 50.1141 90.744 50.0979 90.7431 50.0828C90.7089 49.4602 90.6743 48.8377 90.6398 48.2151L90.6397 48.2135L90.6396 48.2119L90.6395 48.2103L90.6394 48.2087L90.6393 48.2071L90.6392 48.2055L90.6381 48.185ZM63.8621 50.4396L63.8621 50.4396L63.862 50.4396L63.862 50.4396C63.845 50.4681 63.828 50.4965 63.8157 50.524C63.4801 50.3596 63.1689 50.1633 62.8607 49.9688L62.8606 49.9688L62.8606 49.9688L62.8606 49.9688L62.8606 49.9688L62.8606 49.9687L62.8605 49.9687C62.5908 49.7985 62.3234 49.6298 62.0441 49.4854C61.4129 49.1589 61.1908 48.5659 60.9886 47.9766C60.756 47.2983 61.2737 46.6505 61.9756 46.6554L62.0696 46.6558C62.3198 46.6567 62.5739 46.6577 62.8144 46.7119C63.2871 46.8184 63.334 47.1948 63.3792 47.5574C63.3932 47.6699 63.407 47.7812 63.4334 47.8826C63.6022 48.5316 63.7255 49.1934 63.8486 49.8545L63.8486 49.8546L63.8488 49.8557C63.8743 49.9921 63.8997 50.1285 63.9255 50.2648C63.9353 50.3169 63.8987 50.3782 63.8621 50.4396ZM101.286 110.199L101.289 110.205C102.264 111.809 103.242 113.419 104.238 115.046C104.493 115.308 104.743 115.567 104.992 115.824L104.993 115.824L104.993 115.825L104.996 115.827L104.996 115.828C105.542 116.392 106.078 116.946 106.621 117.491C107.928 118.805 109.484 119.127 111.236 118.714C112.758 118.355 114.149 117.72 115.374 116.725C115.568 116.567 115.768 116.413 115.968 116.26L115.969 116.259L115.969 116.259L115.969 116.259L115.969 116.259C116.558 115.807 117.15 115.353 117.601 114.783C118.629 113.484 119.575 112.096 120.401 110.652C121.503 108.724 122.6 106.769 123.441 104.715C124.226 102.8 124.879 100.827 125.532 98.8552L125.532 98.8549C125.776 98.1199 126.019 97.385 126.269 96.6532C126.36 96.3856 126.452 96.1182 126.544 95.8507L126.544 95.8504C127.061 94.3447 127.578 92.8385 128.035 91.3138C128.257 90.5735 128.445 89.8215 128.632 89.0698C128.873 88.102 129.114 87.1345 129.429 86.1927C129.791 85.1115 130.241 84.0615 130.691 83.0113C130.924 82.4675 131.156 81.9237 131.377 81.3754C131.609 80.8005 131.841 80.2259 132.073 79.6513L132.075 79.6457L132.076 79.6453C132.966 77.4423 133.857 75.2392 134.702 73.0179C135.037 72.1373 135.271 71.2153 135.505 70.2953C135.567 70.0531 135.628 69.8109 135.692 69.5697C135.721 69.4604 135.663 69.3272 135.606 69.194C135.58 69.1323 135.553 69.0706 135.535 69.0113C135.473 69.0316 135.407 69.0467 135.341 69.0618C135.198 69.0947 135.054 69.1275 134.954 69.2134C134.322 69.7525 133.886 70.4353 133.597 71.2324C133.45 71.6405 133.252 72.0299 133.054 72.4181L133.054 72.4181L133.054 72.4182L133.054 72.4183L133.054 72.4183L133.054 72.4184L133.054 72.4184L133.054 72.4185L133.054 72.4185L133.054 72.4186L133.054 72.4187L133.054 72.4187L133.054 72.4188L133.054 72.4188L133.054 72.4191C133.013 72.4998 132.972 72.5805 132.931 72.6614C132.907 72.7105 132.84 72.7375 132.774 72.7645C132.743 72.777 132.712 72.7895 132.685 72.8041C132.685 72.7769 132.683 72.7491 132.68 72.7213C132.675 72.6616 132.67 72.6018 132.685 72.5481C132.805 72.1252 132.929 71.7036 133.053 71.2819L133.054 71.2818L133.054 71.2816L133.054 71.2814L133.054 71.2813L133.054 71.2811L133.054 71.281L133.054 71.2808L133.054 71.2806L133.054 71.2805L133.054 71.2803L133.054 71.2802L133.054 71.28L133.054 71.2798L133.054 71.2797C133.318 70.3848 133.582 69.4901 133.802 68.584C133.982 67.8423 134.04 67.0627 134.088 66.2959C134.123 65.7409 133.629 65.4197 133.195 65.7087C132.97 65.8585 132.784 66.0711 132.598 66.2833C132.524 66.369 132.449 66.4545 132.371 66.5359C132.31 66.6003 132.255 66.6709 132.2 66.7414C132.175 66.7737 132.15 66.8059 132.124 66.8376C132.111 66.8008 132.097 66.7643 132.082 66.7278C132.05 66.6474 132.018 66.567 132.003 66.4834C131.952 66.2068 131.913 65.9274 131.877 65.648C131.809 65.1213 131.514 64.6188 131.061 64.6082C130.753 64.601 130.316 65.0602 130.142 65.4168C129.615 66.4987 129.151 67.6175 128.733 68.7492C128.407 69.6287 128.118 70.5222 127.828 71.4157L127.828 71.4157L127.828 71.4159L127.828 71.4162L127.828 71.4166C127.696 71.8238 127.564 72.2309 127.429 72.6368C127.399 72.725 127.365 72.8115 127.33 72.8979L127.33 72.8982C127.314 72.9383 127.298 72.9784 127.282 73.0187C127.25 72.9939 127.215 72.971 127.181 72.9481C127.105 72.8986 127.03 72.8491 126.981 72.7801C126.465 72.0626 125.728 71.6848 124.978 71.3009L124.888 71.2542C124.204 70.9035 123.529 70.9998 122.93 71.3039C122.119 71.7156 122.147 73.2102 122.86 73.8799C123.958 74.9124 124.719 76.1416 125.043 77.6485C125.484 79.6949 125.067 81.5443 123.889 83.2383L123.714 83.4899L123.714 83.4901C123.128 84.3334 122.54 85.1777 122.001 86.0524C120.618 88.2939 119.249 90.545 117.911 92.815L117.831 92.9502C116.595 95.0488 115.357 97.1495 114.213 99.302C113.696 100.275 113.277 101.304 112.858 102.332C112.71 102.695 112.562 103.058 112.41 103.419C112.274 103.741 112.178 103.854 111.919 103.526C111.726 103.281 111.504 103.052 111.262 102.859C111.187 102.8 111.074 102.792 110.962 102.784C110.91 102.78 110.859 102.777 110.811 102.768C110.81 102.789 110.806 102.811 110.802 102.834C110.8 102.846 110.798 102.858 110.796 102.87L110.792 102.886C110.775 102.975 110.757 103.064 110.792 103.104C110.813 103.128 110.834 103.152 110.854 103.176L110.93 103.264L110.93 103.265C111.169 103.544 111.411 103.827 111.7 104.037C112.603 104.692 112.71 104.616 113.109 103.535L113.142 103.444L113.194 103.303L113.259 103.127L113.259 103.127C113.604 102.182 113.952 101.23 114.424 100.353C115.705 97.9714 117.057 95.6292 118.418 93.2941C119.764 90.9851 121.133 88.6899 122.536 86.4173C122.853 85.904 123.205 85.4121 123.557 84.9206C124.05 84.2323 124.542 83.5449 124.936 82.8009C126.398 80.0362 126.184 77.2851 124.481 74.6814C124.312 74.4231 124.093 74.1985 123.874 73.9742C123.633 73.727 123.392 73.4803 123.22 73.1895C123.034 72.8762 123.014 72.3085 123.17 71.9841C123.276 71.7654 123.871 71.6106 124.163 71.7041C125.566 72.1535 126.9 72.7377 127.194 74.4939C127.208 74.5762 127.301 74.6444 127.395 74.7126C127.438 74.7443 127.481 74.776 127.517 74.8091C127.534 74.7828 127.553 74.7573 127.572 74.7317C127.613 74.6764 127.654 74.6211 127.673 74.5587C127.846 73.9734 128.013 73.386 128.18 72.7986L128.181 72.7976L128.259 72.5231C128.385 72.0778 128.508 71.6312 128.63 71.1845L128.63 71.1843L128.63 71.184L128.63 71.1838L128.631 71.1836L128.631 71.1833L128.631 71.1831L128.631 71.1828L128.631 71.1826L128.631 71.1824L128.631 71.1821L128.631 71.1819L128.631 71.1816L128.631 71.1814L128.631 71.1811C128.919 70.1334 129.206 69.0856 129.547 68.0566C129.761 67.4108 130.072 66.7982 130.382 66.1871L130.382 66.1869L130.382 66.1868C130.479 65.9969 130.575 65.8073 130.668 65.6168C130.732 65.4861 130.9 65.3951 131.039 65.3268C131.075 65.309 131.24 65.4386 131.249 65.5129C131.265 65.6417 131.287 65.7727 131.309 65.9041C131.37 66.2704 131.432 66.6402 131.358 66.9767C131.208 67.6595 131.003 68.3291 130.797 68.999L130.797 68.9992L130.797 68.9993L130.797 68.9994L130.797 68.9995L130.797 68.9997L130.797 68.9998L130.797 68.9999L130.797 69.0001L130.796 69.0002L130.796 69.0003L130.796 69.0004L130.796 69.0006L130.796 69.0007L130.796 69.0008C130.68 69.3802 130.563 69.7597 130.457 70.1418C130.214 71.0137 129.99 71.8919 129.792 72.7755C129.775 72.8514 129.855 72.9505 129.936 73.0496C129.974 73.0955 130.011 73.1414 130.039 73.185C130.076 73.1515 130.12 73.1203 130.164 73.0892C130.258 73.0216 130.353 72.9541 130.384 72.8638C130.582 72.2725 130.764 71.6751 130.945 71.0777L130.945 71.0773L130.945 71.0768L130.945 71.0763L130.946 71.0758L130.946 71.0753L130.946 71.0748L130.946 71.0743L130.946 71.0738C131.009 70.8672 131.072 70.6605 131.135 70.4541C131.56 69.0722 132.011 67.7031 133.017 66.6242C133.079 66.5568 133.164 66.5105 133.248 66.4642C133.287 66.4427 133.326 66.4212 133.363 66.3976C133.375 66.446 133.394 66.4958 133.413 66.5456C133.453 66.6528 133.494 66.76 133.473 66.8523C133.12 68.3917 132.752 69.9275 132.377 71.4614C132.321 71.6881 132.256 71.9126 132.191 72.137C132.086 72.4984 131.982 72.8595 131.918 73.2284C131.889 73.3921 131.959 73.5738 132.029 73.7556C132.061 73.8383 132.093 73.921 132.115 74.002C132.178 73.9794 132.248 73.9628 132.318 73.9462C132.471 73.9101 132.624 73.8739 132.698 73.7752C133.073 73.2711 133.42 72.7383 133.721 72.1839C133.898 71.8579 134.052 71.5189 134.206 71.1797C134.334 70.8977 134.462 70.6155 134.604 70.3408C134.654 70.2421 134.763 70.1747 134.871 70.1073C134.921 70.0763 134.971 70.0453 135.015 70.0113C135.01 70.062 135.007 70.114 135.005 70.166V70.1661C135.001 70.2783 134.996 70.3905 134.959 70.4902L134.796 70.9334C134.407 71.9928 134.018 73.0525 133.599 74.0997C133.427 74.5304 133.235 74.9525 133.042 75.3745L133.042 75.3747L133.042 75.3748C132.854 75.7851 132.667 76.1954 132.499 76.6137C132.185 77.3928 131.882 78.1769 131.58 78.9609L131.58 78.9613L131.58 78.9616C131.041 80.3583 130.502 81.7549 129.9 83.1224C129.048 85.0593 128.367 87.0463 127.798 89.0824C127.571 89.8938 127.339 90.7043 127.078 91.5048C126.8 92.36 126.512 93.2121 126.224 94.0643C125.662 95.7294 125.099 97.3945 124.608 99.0817C123.885 101.565 123.081 104.009 122.015 106.357C120.879 108.86 119.476 111.212 117.841 113.391C117.074 114.416 116.104 115.365 115.044 116.05C113.833 116.831 112.536 117.553 111.085 117.852C110.12 118.051 109.148 118.168 108.263 117.644C106.635 116.679 105.418 115.24 104.345 113.7C103.535 112.538 102.77 111.345 102.004 110.151L102.004 110.151L102.004 110.151L102.004 110.151L102.004 110.151L102.004 110.151L102.004 110.151L102.004 110.151L102.004 110.151L102.004 110.151L102.004 110.151L102.004 110.15L102.004 110.15L102.004 110.15L102.004 110.15C101.563 109.464 101.123 108.777 100.675 108.097C100.601 107.986 100.474 107.913 100.346 107.84C100.287 107.806 100.228 107.772 100.174 107.734C100.171 107.798 100.168 107.861 100.165 107.924C100.156 108.093 100.146 108.261 100.155 108.429C100.157 108.464 100.196 108.495 100.237 108.528C100.268 108.553 100.301 108.58 100.32 108.61L100.74 109.302L101.286 110.199ZM96.0549 144.784C95.9821 145.176 95.9222 145.568 95.8628 145.956L95.8628 145.956C95.7206 146.887 95.5816 147.796 95.2758 148.642C94.7134 150.197 93.4116 151.137 91.9085 151.616C90.4307 152.086 88.9133 152.43 87.3994 152.774C87.2217 152.814 87.0441 152.854 86.8667 152.895C86.4647 152.986 86.0453 153 85.6265 153.013L85.626 153.013L85.6256 153.013L85.6251 153.013L85.6246 153.013L85.6241 153.013L85.6237 153.013L85.6232 153.014L85.6227 153.014L85.6223 153.014L85.6218 153.014L85.6213 153.014C85.4571 153.019 85.2929 153.024 85.1299 153.034C84.2995 153.086 83.4689 153.136 82.6383 153.186C81.3793 153.261 80.1203 153.337 78.8616 153.418C78.349 153.451 77.8368 153.491 77.3246 153.531L77.3244 153.531C76.6978 153.581 76.0711 153.63 75.4437 153.666L75.1384 153.683C74.1464 153.741 73.1526 153.798 72.1608 153.783C71.4692 153.772 70.7783 153.686 70.0885 153.599L70.0877 153.599L70.087 153.599L70.0862 153.599L70.0857 153.599C69.9061 153.577 69.7265 153.554 69.547 153.533C69.4743 153.525 69.4085 153.454 69.3428 153.383C69.3123 153.35 69.2818 153.317 69.2506 153.291C69.2748 153.264 69.298 153.231 69.3211 153.199C69.3715 153.128 69.4218 153.057 69.483 153.045C69.5467 153.033 69.6111 153.02 69.6758 153.006C69.9648 152.945 70.26 152.884 70.5399 152.921C72.4747 153.177 74.3938 153.01 76.3166 152.787C77.2564 152.678 78.2013 152.612 79.1453 152.545H79.1454H79.1455H79.1456H79.1457H79.1457H79.1458H79.1459H79.146H79.1461H79.1461H79.1462H79.1463L79.1469 152.545L79.3631 152.53C80.0191 152.483 80.6758 152.445 81.3325 152.407L81.3328 152.407L81.3331 152.407L81.3335 152.407L81.3338 152.407L81.3341 152.407L81.3344 152.407L81.3348 152.407L81.3351 152.407L81.3354 152.407L81.3357 152.407L81.336 152.407L81.3364 152.407L81.3367 152.407H81.3368C82.5846 152.334 83.8322 152.261 85.0744 152.133C87.485 151.883 89.8696 151.438 92.1254 150.486C93.4294 149.936 94.3268 148.889 94.6672 147.509L94.7018 147.369C95.0774 145.849 95.4591 144.303 95.3076 142.704C95.2723 142.331 95.2122 141.959 95.1522 141.587C95.0601 141.017 94.9683 140.448 94.966 139.878C94.963 139.128 95.0167 138.378 95.0703 137.629C95.1171 136.975 95.1638 136.321 95.1731 135.668C95.1815 135.084 95.1072 134.5 95.033 133.916C95.0015 133.667 94.9699 133.419 94.9447 133.17C94.9228 132.954 94.9024 132.738 94.8819 132.522L94.8819 132.522C94.8276 131.947 94.7732 131.372 94.6913 130.802C94.3969 128.748 94.2829 126.687 94.3162 124.612C94.3249 124.069 94.292 123.524 94.2591 122.98C94.2368 122.611 94.2145 122.242 94.2051 121.873C94.1841 121.043 94.1691 120.213 94.1541 119.382L94.1541 119.382C94.1327 118.199 94.1114 117.016 94.0725 115.833C94.0406 114.861 93.9864 113.891 93.9321 112.92L93.9321 112.92C93.8973 112.297 93.8625 111.674 93.8336 111.051C93.8099 110.541 93.7932 110.03 93.7765 109.519C93.7565 108.905 93.7364 108.291 93.7042 107.677C93.6813 107.241 93.6421 106.804 93.6029 106.368C93.5292 105.548 93.4555 104.728 93.4904 103.912C93.5283 103.027 93.68 102.147 93.8318 101.268L93.8318 101.268L93.8318 101.267L93.8318 101.267L93.8319 101.267L93.8319 101.267L93.8319 101.267L93.8319 101.267L93.832 101.267L93.832 101.266L93.832 101.266L93.832 101.266L93.8321 101.266L93.8321 101.266C93.8997 100.874 93.9673 100.482 94.0248 100.089C94.0633 99.8266 94.1028 99.5641 94.1423 99.3016L94.1423 99.3011C94.2496 98.5881 94.3568 97.875 94.4441 97.1594C94.4934 96.7554 94.5298 96.3496 94.5661 95.9439L94.5662 95.9437C94.6083 95.4744 94.6503 95.0051 94.7124 94.5386C94.7261 94.4353 94.8396 94.3459 94.9531 94.2566C95.0055 94.2153 95.0579 94.174 95.1005 94.1314C95.1231 94.1804 95.1531 94.2302 95.1832 94.28C95.2479 94.3874 95.3127 94.4948 95.3021 94.5937C95.1574 95.9432 94.9919 97.2906 94.8188 98.6368C94.7543 99.1385 94.6743 99.6397 94.5943 100.141C94.4284 101.18 94.2626 102.218 94.235 103.261C94.1957 104.749 94.2821 106.24 94.3686 107.731L94.3686 107.731L94.3686 107.731L94.3686 107.731L94.3686 107.732L94.3686 107.732L94.3687 107.732L94.3687 107.732L94.3687 107.732L94.3687 107.732L94.3687 107.733L94.3687 107.733L94.3687 107.733L94.3687 107.733L94.3687 107.733C94.3984 108.246 94.4281 108.758 94.4527 109.269C94.4888 110.022 94.5384 110.774 94.5881 111.525C94.6255 112.092 94.6629 112.659 94.6946 113.226L94.7275 113.814L94.7596 114.385L94.7598 114.388L94.7599 114.39L94.76 114.393C94.8685 116.32 94.9771 118.248 95.061 120.176C95.0917 120.883 95.1034 121.591 95.1151 122.299C95.1303 123.224 95.1456 124.15 95.2035 125.073C95.2722 126.166 95.3888 127.257 95.5054 128.347L95.5054 128.348L95.5055 128.348L95.5055 128.348L95.5055 128.348L95.5055 128.348L95.5055 128.348L95.5055 128.348L95.5055 128.348C95.5668 128.921 95.6281 129.494 95.6824 130.067C95.7752 131.047 95.8599 132.027 95.928 133.009C95.9384 133.159 95.9496 133.309 95.9608 133.459L95.9609 133.46L95.961 133.462L95.9611 133.463L95.9612 133.464C96.0116 134.141 96.0622 134.819 96.0437 135.494C96.0246 136.187 95.9833 136.88 95.942 137.572L95.942 137.573C95.8878 138.481 95.8337 139.389 95.8298 140.298C95.8278 140.766 95.9123 141.233 95.997 141.701C96.0636 142.07 96.1303 142.439 96.1551 142.81C96.1836 143.235 96.1457 143.665 96.1062 144.115L96.1062 144.116L96.1062 144.116L96.1062 144.116L96.1061 144.116L96.1061 144.116C96.087 144.333 96.0675 144.555 96.0549 144.784ZM50.6347 147.104C51.1533 149.365 52.5746 151.041 54.3971 152.432L54.5488 152.495C55.3433 152.821 56.1077 153.136 56.8876 153.402C57.0369 153.453 57.2118 153.426 57.3867 153.398C57.467 153.385 57.5473 153.372 57.6251 153.367C57.5801 153.319 57.5354 153.27 57.4907 153.221L57.4906 153.22C57.3594 153.077 57.2283 152.933 57.0903 152.796C57.0726 152.779 57.0384 152.781 57.0023 152.784C56.9713 152.786 56.9389 152.789 56.9143 152.779C56.7105 152.695 56.4968 152.623 56.2829 152.551C55.7935 152.387 55.3037 152.222 54.9316 151.91C54.024 151.148 53.1964 150.252 52.4725 149.302C51.7571 148.363 51.3924 147.235 51.4598 145.997C51.4842 145.549 51.4972 145.1 51.5103 144.652C51.5287 144.018 51.5472 143.384 51.5976 142.753C51.6358 142.273 51.7085 141.796 51.7813 141.319C51.8454 140.898 51.9096 140.478 51.9501 140.055C52.0389 139.129 52.0942 138.2 52.1496 137.271L52.1496 137.271L52.1496 137.271L52.1496 137.27L52.1496 137.27L52.1496 137.27L52.1496 137.27L52.1496 137.27L52.1496 137.27L52.1496 137.27L52.1496 137.27L52.1496 137.27C52.1629 137.048 52.1761 136.826 52.1898 136.605C52.195 136.52 52.1411 136.403 52.0765 136.352C52.0233 136.311 51.873 136.31 51.8358 136.354C51.8099 136.384 51.7821 136.415 51.7538 136.447L51.7535 136.447C51.6294 136.586 51.4965 136.734 51.4777 136.891C51.3996 137.547 51.3452 138.206 51.2909 138.866C51.2662 139.165 51.2414 139.465 51.2145 139.765C51.2064 139.855 51.1882 139.944 51.17 140.033C51.1562 140.101 51.1424 140.168 51.133 140.237C51.0806 140.617 51.0239 140.996 50.9673 141.375C50.8305 142.293 50.6936 143.211 50.6154 144.134L50.5972 144.345C50.5173 145.268 50.4341 146.23 50.6347 147.104ZM82.7454 84.0073C83.08 83.7678 83.417 83.5339 83.753 83.3008C85.0916 82.372 86.4134 81.4549 87.4966 80.2399C88.0677 79.5993 88.574 78.8977 89.0803 78.1962L89.0805 78.1959C89.3034 77.8871 89.5262 77.5783 89.7546 77.2747C89.78 77.241 89.8016 77.201 89.823 77.1614C89.8617 77.0896 89.8999 77.019 89.9588 76.9884C90.0777 76.9269 90.21 76.8926 90.3423 76.8584C90.3974 76.8441 90.4526 76.8299 90.5068 76.8136C90.4892 76.8696 90.4756 76.9285 90.462 76.9874C90.4325 77.1147 90.4031 77.2419 90.334 77.3395C90.1919 77.5402 90.0506 77.7415 89.9092 77.9429C89.3387 78.7556 88.7679 79.5688 88.1461 80.3382C87.5854 81.0319 86.9675 81.7028 86.2766 82.2534C85.0775 83.2091 83.8452 84.1372 82.5472 84.941C81.1274 85.8201 79.6371 86.5883 78.138 87.3191C77.395 87.6813 76.5851 87.6342 75.8494 87.1417C73.6254 85.6528 71.457 84.0894 69.6084 82.112C69.0969 81.5649 68.6244 80.9755 68.1773 80.3717C68.1049 80.2739 68.1145 80.1119 68.124 79.95C68.1284 79.8755 68.1328 79.801 68.1292 79.7327C68.1956 79.7456 68.2695 79.7509 68.3435 79.7563C68.5043 79.7679 68.6651 79.7795 68.7482 79.8681C68.9721 80.1071 69.177 80.3652 69.3819 80.6232C69.6194 80.9224 69.8568 81.2213 70.1234 81.49C70.8112 82.1832 71.5347 82.8455 72.2903 83.4597C73.1963 84.1963 74.1283 84.8995 75.06 85.6025L75.0619 85.604C75.2681 85.7596 75.4743 85.9152 75.6802 86.0711C75.8167 86.1744 75.9636 86.2632 76.1106 86.3519C76.2636 86.4443 76.4165 86.5366 76.5575 86.6454C77.1457 87.0991 77.6525 86.8018 78.1172 86.5291L78.1173 86.5291C78.2326 86.4614 78.3453 86.3953 78.4561 86.3426C79.5579 85.8177 80.6232 85.2115 81.7041 84.5965L81.7043 84.5964L81.7044 84.5963L81.7046 84.5962L81.7048 84.5961L81.707 84.5948L81.7099 84.5932L81.7123 84.5918C82.0545 84.3971 82.3983 84.2015 82.7454 84.0073ZM130.234 77.6038L130.236 77.6012L130.238 77.5984L130.24 77.5955L130.241 77.5954L130.241 77.5954L130.241 77.5953C130.421 77.3679 130.604 77.1364 130.795 76.8981C130.927 76.883 131.052 76.8813 131.173 76.8796C131.307 76.8778 131.435 76.876 131.561 76.8565C131.667 76.84 131.766 76.7779 131.866 76.7158C131.91 76.688 131.955 76.6601 132 76.6364C131.964 76.5938 131.931 76.5442 131.897 76.4946C131.826 76.3874 131.754 76.2802 131.656 76.243C130.738 75.8913 129.118 77.185 129.167 78.2249C129.171 78.3221 129.226 78.4168 129.281 78.5115C129.306 78.5553 129.331 78.5992 129.351 78.6433C129.383 78.6113 129.415 78.5801 129.448 78.5488L129.448 78.5484C129.519 78.4802 129.59 78.412 129.651 78.3357C129.844 78.0953 130.036 77.8536 130.231 77.6071L130.233 77.6044L130.234 77.6041L130.234 77.6038ZM84.2276 60.1411C84.5244 60.2133 84.7903 60.3173 85.0562 60.4213L85.0562 60.4213C85.016 60.4906 84.9796 60.5638 84.9432 60.6371C84.8648 60.7952 84.7863 60.9532 84.6694 61.0709C83.236 62.5131 81.4901 63.3556 79.5478 63.7742C79.3124 63.8249 79.0502 63.7585 78.7938 63.6936C78.7163 63.6739 78.6392 63.6544 78.5636 63.6383C78.4935 63.6233 78.3878 63.4272 78.4005 63.4133C78.4281 63.3832 78.456 63.3501 78.4845 63.3164C78.5886 63.1928 78.6997 63.061 78.8241 63.0419C80.7711 62.7424 82.4038 61.8235 83.8146 60.4434C83.8813 60.3781 83.9598 60.3257 84.0465 60.2679C84.1037 60.2297 84.1644 60.1892 84.2276 60.1411ZM127.671 78.6353C127.962 77.8919 127.727 77.187 127.46 76.4537C127.39 76.3708 127.322 76.2898 127.256 76.2104L127.254 76.208L127.253 76.2076L127.253 76.2066L127.252 76.2062L127.252 76.2062L127.252 76.2061L127.252 76.206L127.252 76.2059L127.252 76.2054C127.059 75.9762 126.879 75.7608 126.69 75.5536C126.677 75.5401 126.446 75.6943 126.453 75.7115C126.549 75.9445 126.662 76.171 126.784 76.3915C127.158 77.0679 127.207 77.8029 127.193 78.5585C127.191 78.6638 127.252 78.7703 127.313 78.8767C127.341 78.9258 127.369 78.9749 127.391 79.0239C127.421 78.9832 127.454 78.9439 127.488 78.9046C127.56 78.8195 127.632 78.7343 127.671 78.6353ZM74.4694 34.9411C74.711 35.0567 74.9476 35.1815 75.1822 35.3053C75.7706 35.6158 76.3466 35.9197 76.9579 36.0547L77.0533 36.0758C77.9679 36.2786 78.9521 36.4968 79.8714 35.9838C80.1936 35.8039 80.4965 35.5826 80.7901 35.3555C80.9691 35.2169 81.1303 35.045 81.271 34.8646C82.3885 33.433 83.213 33.6468 84.7517 34.5815C86.7202 35.7774 87.4372 37.8185 88.1303 39.8492C88.4766 40.8638 88.6943 41.9278 88.9109 42.986C88.9399 43.1282 88.969 43.2702 88.9983 43.412C89.1415 44.1034 89.2018 44.8164 89.255 45.5232C89.3181 46.3615 89.3478 47.2027 89.3774 48.0433L89.3774 48.0437L89.3829 48.1981C89.3992 48.6582 89.4078 49.1189 89.4164 49.5795V49.5796V49.5797V49.5798V49.58V49.5801V49.5802V49.5803V49.5806C89.4332 50.478 89.45 51.3753 89.5236 52.2677C89.6361 53.633 89.424 54.9488 89.1276 56.2542C88.7862 57.7573 87.6744 58.4821 86.3269 58.8198C85.7593 58.962 85.1668 59.0031 84.5756 59.0442L84.5755 59.0442L84.5753 59.0442L84.5752 59.0442L84.5751 59.0442L84.575 59.0442L84.5748 59.0442L84.5747 59.0442C84.3708 59.0584 84.167 59.0725 83.9645 59.0908C81.8782 59.2791 79.8048 59.5445 77.7891 60.1587C77.1639 60.3491 76.5667 60.2615 76.0425 59.9033C74.9843 59.1804 73.7889 58.9161 72.5699 58.7135C70.2967 58.3357 68.1386 57.6984 66.4726 55.9213C66.0328 55.4522 65.7507 54.9501 65.779 54.2436C65.8293 52.9907 65.6533 51.7575 65.4775 50.5257C65.3771 49.8222 65.2768 49.1191 65.2187 48.413C65.0431 46.2781 65.1201 44.1333 65.7552 42.007C66.4635 39.6355 67.5441 37.5404 69.2584 35.8303C69.7293 35.3606 70.2983 34.9953 70.8677 34.6297C71.1456 34.4513 71.4236 34.2728 71.6903 34.0821L71.7352 34.05L71.7352 34.05C72.0269 33.8416 72.3216 33.6311 72.5787 33.3822C72.9703 33.0032 73.2079 33.2033 73.4524 33.5518C73.7443 33.9679 74.0479 34.3753 74.3712 34.8092L74.3712 34.8092L74.4694 34.9411ZM87.0995 38.7811C87.0669 38.7011 87.034 38.6212 87.0012 38.5413C86.9303 38.3692 86.8594 38.197 86.7912 38.0237C86.1409 36.3737 84.992 35.2158 83.4188 34.5195C83.1744 34.4113 82.7492 34.4741 82.5288 34.6341C82.3454 34.7674 82.2165 34.9767 82.0866 35.1878C82.0131 35.3072 81.9393 35.4272 81.855 35.5342C81.1024 36.4908 80.2198 37.2387 78.9317 37.1208C78.1347 37.0478 77.3294 36.9427 76.5576 36.7348C75.348 36.4089 74.2466 35.8242 73.4641 34.7817L73.3878 34.6798C72.8737 33.992 72.8673 33.9835 72.1666 34.4669C71.9356 34.6262 71.6981 34.7789 71.4604 34.9316C70.8682 35.3123 70.2751 35.6936 69.7804 36.1795C68.1078 37.8227 67.0093 39.798 66.3502 42.1361C65.7562 44.2434 65.7203 46.3328 65.8178 48.4457C65.8969 50.1616 66.1626 51.873 66.4279 53.5729L66.4453 53.6854C66.5614 54.4383 66.6809 55.2127 67.3203 55.7955C68.5315 56.8995 69.9668 57.4935 71.5099 57.8095C71.719 57.8524 71.9283 57.8937 72.1375 57.9349L72.1381 57.935C73.6096 58.2253 75.0722 58.5137 76.3976 59.3274C76.7069 59.5172 77.1748 59.5591 77.5438 59.4997C78.3744 59.3661 79.2016 59.2106 80.0288 59.055L80.0288 59.0549C80.886 58.8937 81.7431 58.7325 82.604 58.5958C83.0919 58.5183 83.5864 58.4765 84.0804 58.4347C84.7549 58.3777 85.4285 58.3207 86.0838 58.1731C86.9863 57.9697 88.0011 57.6552 88.2937 56.5698C88.578 55.515 88.8232 54.4181 88.8622 53.3312C88.9161 51.8288 88.8545 50.3208 88.7929 48.8149C88.7817 48.5409 88.7705 48.2671 88.76 47.9934C88.7386 47.4357 88.6929 46.8789 88.6473 46.3221V46.3221V46.322V46.322V46.3219V46.3219V46.3218V46.3218C88.597 45.7089 88.5467 45.0962 88.5289 44.4823C88.4732 42.5692 87.8372 40.8153 87.1763 38.9928L87.0995 38.7811ZM85.8402 45.1131C84.7945 44.2734 83.5682 44.1015 82.2204 44.2408C82.0954 44.2638 81.9891 44.2895 81.8908 44.3133L81.8906 44.3133L81.8905 44.3133C81.808 44.3333 81.7311 44.3519 81.6535 44.3664C80.3798 44.6043 79.288 45.1386 78.5378 46.2875C78.4591 46.408 78.1649 46.4691 78.0025 46.4273C77.2868 46.2429 76.6224 46.2273 76.0665 46.8221C75.9976 46.8958 75.9336 46.9743 75.8697 47.0528C75.8402 47.0889 75.8108 47.125 75.7809 47.1607C75.7696 47.108 75.754 47.0551 75.7384 47.0021C75.7048 46.8878 75.6712 46.7734 75.6805 46.663C75.7916 45.3487 75.1791 44.5303 74.0637 43.9777C73.0198 43.4605 71.9233 43.3502 70.7956 43.3516C69.078 43.3538 67.615 44.4969 67.0112 46.1687C66.6425 47.1896 66.7425 48.1822 67.0605 49.1252C67.3708 50.0457 67.7237 51.0296 68.6461 51.54C68.763 51.6046 68.8805 51.6724 68.9988 51.7406C69.5406 52.053 70.0984 52.3746 70.6752 52.4455C70.7269 52.4519 70.7789 52.4584 70.8311 52.465C71.6867 52.5728 72.6043 52.6883 73.4125 52.0949C74.6342 51.1978 75.3005 49.9299 75.6542 48.491C75.8211 47.8119 76.1582 47.4034 76.7472 47.132C77.6338 46.7236 78.1899 47.0828 78.2824 48.0263C78.3907 49.1299 78.627 50.2155 79.2563 51.1609C79.9936 52.2686 80.9948 52.9421 82.2308 53.4106C83.7204 53.9751 84.7908 53.6311 85.8709 52.7335C87.8781 51.0654 88.0779 46.9098 85.8402 45.1131ZM81.1785 45.1628C82.0204 44.9047 82.9344 44.8212 83.8262 45.0656C84.839 45.144 85.5041 45.7308 85.9948 46.4435C86.4873 47.1589 86.934 47.9699 86.9026 48.8973C86.8689 49.8919 86.5049 50.7875 85.8967 51.5701C85.3748 52.2416 84.6951 52.6707 83.8887 52.8547C83.7197 52.8933 83.5295 52.843 83.3421 52.7934C83.2751 52.7757 83.2084 52.7581 83.1431 52.7446C80.9969 52.3024 79.5602 51.0945 79.1327 48.8041C79.1055 48.6581 79.0709 48.5133 79.0364 48.3688L79.0364 48.3688L79.0364 48.3688L79.0364 48.3687L79.0364 48.3687L79.0363 48.3687L79.0363 48.3686C78.8977 47.7879 78.7605 47.2135 79.1072 46.5931C79.5816 45.744 80.3861 45.4056 81.1785 45.1628ZM74.9308 46.659C75.0646 47.8261 74.6971 48.8755 74.1914 49.8899C74.0898 50.0287 74.0024 50.1608 73.9199 50.2857C73.7991 50.4684 73.6887 50.6354 73.559 50.7848C72.8448 51.6071 71.991 51.8655 70.9076 51.6305C70.1483 51.4659 69.4727 51.2639 68.8414 50.7674C68.0808 50.1693 67.7546 49.344 67.5363 48.4755C67.1886 47.0917 67.6623 45.9302 68.6274 44.9367C69.4067 44.1344 70.3923 44.0346 71.3769 44.1363C72.3248 44.2342 73.2504 44.476 74.0868 45.0524C74.6863 45.4656 74.8568 46.0132 74.9308 46.659ZM74.6855 41.8287C75.314 41.865 75.8358 41.7968 76.3115 41.4021C76.3986 41.3298 76.5815 41.3793 76.7643 41.4287C76.8482 41.4514 76.9322 41.4742 77.0068 41.4851C76.9716 41.5268 76.9376 41.5699 76.9036 41.613C76.83 41.7061 76.7565 41.7992 76.6709 41.8787C75.8749 42.618 74.9988 42.5664 74.0298 42.2584C73.1829 41.9891 72.2934 41.7814 71.4119 41.7251C70.0882 41.6407 68.9561 42.1699 68.0708 43.2187C67.9944 43.3093 67.8761 43.3625 67.7577 43.4157C67.7029 43.4404 67.6481 43.4651 67.5974 43.4935C67.6136 43.42 67.6226 43.3405 67.6317 43.2609C67.6513 43.0895 67.6708 42.9182 67.7612 42.8084C69.2384 41.0139 71.162 40.9396 73.1984 41.3872C73.4837 41.4499 73.7633 41.5403 74.0547 41.6346L74.0547 41.6346C74.2573 41.7001 74.4656 41.7675 74.6855 41.8287ZM84.4349 42.2829C83.2316 42.0933 82.034 42.1147 80.9543 42.9395C80.7968 43.0591 80.6415 43.1735 80.4888 43.2861L80.4885 43.2863L80.4883 43.2865C80.182 43.5122 79.8862 43.7302 79.6047 43.9662C79.5412 44.0194 79.5314 44.1403 79.5216 44.2612C79.5172 44.3169 79.5127 44.3725 79.5029 44.4216C79.5451 44.4159 79.5895 44.4141 79.6339 44.4122C79.7319 44.4081 79.83 44.404 79.9052 44.3592C80.1206 44.2309 80.3162 44.0646 80.5094 43.9005L80.5185 43.8927C81.7166 42.8746 83.0478 42.4636 84.582 42.9197C85.1152 43.0783 85.6532 43.2243 86.1962 43.3406C86.2843 43.3594 86.386 43.3113 86.4876 43.2632C86.5344 43.241 86.5812 43.2189 86.6266 43.2033C86.5921 43.1656 86.5596 43.1217 86.5272 43.0778C86.4567 42.9825 86.3862 42.8873 86.2947 42.8549C86.1782 42.8137 86.0617 42.771 85.945 42.7284C85.4483 42.5467 84.9484 42.3638 84.4349 42.2829ZM77.9281 55.5708C77.2039 55.6237 76.5101 55.6671 75.818 55.6467C75.7263 55.644 75.6379 55.5246 75.5494 55.4053C75.5087 55.3502 75.4679 55.2951 75.4267 55.2515C75.48 55.2284 75.5329 55.1999 75.5859 55.1713C75.7013 55.109 75.8168 55.0468 75.9347 55.0413C76.5721 55.0115 77.2113 55.0137 77.8496 55.021C78.002 55.0228 78.1542 55.0479 78.3064 55.073L78.3064 55.073C78.3759 55.0845 78.4453 55.096 78.5148 55.1052C78.3295 55.2498 78.1442 55.3945 77.9281 55.5708ZM81.7564 46.4315C81.3167 46.9336 81.3646 47.9908 81.8807 48.5249C82.9271 48.5566 83.5548 47.4785 83.0676 46.5713C82.7971 46.0677 82.1367 45.9972 81.7564 46.4315ZM72.4622 45.7642C72.6825 46.4327 72.5385 47.1251 72.0473 47.4981C71.9045 47.6065 71.5428 47.6403 71.442 47.5393C70.8743 46.9699 70.7791 46.0062 71.5915 45.506C71.9616 45.2782 72.2255 45.3838 72.4622 45.7642ZM112.487 42.7067C112.806 43.1995 113.128 43.6959 113.564 44.1206C113.592 45.0833 113.601 45.9812 113.36 46.859C113.317 47.0164 113.349 47.1646 113.382 47.3142C113.408 47.4362 113.579 47.524 113.679 47.4656C113.808 47.3899 113.936 47.3096 114.057 47.2213C114.139 47.162 114.22 47.1018 114.301 47.0417C114.645 46.7864 114.989 46.5312 115.374 46.3392C115.421 46.3158 115.468 46.2927 115.515 46.2696C115.693 46.1816 115.872 46.0936 116.042 45.9909C116.23 45.8771 116.413 45.8611 116.615 45.9319C117.311 46.176 118.029 46.3272 118.747 46.4784C118.862 46.5025 118.977 46.5267 119.091 46.5512C119.125 46.5585 119.16 46.5665 119.194 46.5744C119.282 46.5946 119.369 46.6148 119.458 46.6261C119.743 46.6628 120.03 46.6911 120.317 46.7195C120.775 46.7649 121.234 46.8103 121.689 46.8898C121.787 46.907 121.891 46.9143 121.988 46.9009C122.22 46.8694 122.452 46.848 122.685 46.8267C123.149 46.7841 123.614 46.7415 124.067 46.6174C124.377 46.5325 124.685 46.4374 124.993 46.3423C125.116 46.3044 125.239 46.2664 125.362 46.2291C125.419 46.2117 125.476 46.1943 125.534 46.177C125.859 46.0783 126.185 45.9795 126.51 45.8779C126.605 45.8483 126.699 45.8119 126.787 45.7663C126.864 45.7268 126.941 45.6875 127.017 45.6482C127.654 45.3221 128.291 44.9964 128.868 44.5548C128.941 44.4991 129.015 44.4451 129.088 44.3911C129.319 44.2222 129.549 44.0538 129.746 43.8393C129.865 43.7093 129.998 43.5919 130.13 43.4753L130.132 43.4737C130.514 43.1359 130.822 42.7318 131.106 42.3078C131.461 41.7774 131.606 41.1641 131.75 40.5515L131.759 40.5161C131.741 40.2983 131.782 40.0885 131.823 39.8786C131.841 39.7869 131.858 39.6953 131.871 39.603C132.053 38.3143 131.891 37.0955 131.144 36.0009C131.052 35.8673 130.977 35.7222 130.902 35.5771C130.871 35.5178 130.84 35.4586 130.808 35.4001C130.624 35.0625 130.418 34.7414 130.15 34.4673C129.562 33.8687 128.942 33.3176 128.21 32.9026C127.691 32.608 127.15 32.368 126.608 32.1275C126.486 32.0731 126.363 32.0188 126.241 31.9637C125.29 31.5364 124.301 31.2987 123.277 31.1917C122.961 31.1588 122.644 31.1418 122.327 31.1249C122.17 31.1164 122.012 31.108 121.855 31.0976C120.981 31.0396 120.105 31.0197 119.231 31.0915C118.485 31.1528 117.739 31.2259 116.993 31.2989C116.844 31.3135 116.695 31.3281 116.546 31.3426C116.473 31.3496 116.4 31.3787 116.333 31.4112C115.983 31.5821 115.622 31.7249 115.261 31.8676C115.064 31.9455 114.867 32.0234 114.672 32.1059C113.822 32.4648 113.093 32.98 112.576 33.7802C112.501 33.8959 112.419 34.0065 112.337 34.1172C112.268 34.2109 112.198 34.3046 112.133 34.4013C111.662 35.103 111.26 35.8408 111.095 36.688C111.062 36.8542 111.043 37.0231 111.024 37.192C111.011 37.3036 110.998 37.4153 110.982 37.5263C110.898 38.087 110.894 38.6381 111.004 39.2035C111.192 40.1717 111.58 41.0573 111.977 41.943C111.987 41.9661 112.002 41.9877 112.017 42.0083C112.181 42.2348 112.334 42.4703 112.487 42.7067ZM114.025 46.3328C114.021 46.3331 114.017 46.3335 114.013 46.334C114.01 46.3386 114.016 46.3452 114.031 46.3534C114.029 46.3465 114.027 46.3396 114.025 46.3328ZM114.086 46.3305C114.065 46.3307 114.044 46.331 114.025 46.3328C113.983 46.1867 114.005 46.039 114.046 45.8986C114.143 45.5552 114.186 45.2027 114.229 44.8502C114.254 44.6421 114.279 44.4339 114.316 44.2277C114.338 44.098 114.31 43.9655 114.176 43.9018C113.75 43.6995 113.472 43.3323 113.205 42.9614C112.983 42.6522 112.772 42.3291 112.6 41.9888C112.439 41.6723 112.32 41.3303 112.211 40.99C112.071 40.5512 111.95 40.1054 111.837 39.6582C111.735 39.258 111.725 38.8449 111.729 38.4333C111.729 38.344 111.735 38.2547 111.741 38.1653C111.749 38.0491 111.757 37.9329 111.753 37.817C111.712 36.5524 112.207 35.4704 112.839 34.4359C113.236 33.7859 113.805 33.311 114.455 32.9744C115.211 32.5826 115.998 32.2392 116.834 32.0558C117.616 31.8844 118.403 31.7422 119.206 31.7146C119.503 31.7044 119.796 31.6879 120.09 31.5841C120.293 31.5125 120.524 31.5143 120.748 31.5161C120.776 31.5164 120.803 31.5166 120.831 31.5167C121.13 31.5176 121.431 31.5382 121.729 31.5722C121.755 31.5752 121.781 31.5782 121.807 31.5811C122.104 31.6152 122.399 31.6492 122.699 31.6532C122.899 31.656 123.1 31.7009 123.297 31.7452C123.32 31.7502 123.342 31.7552 123.365 31.7602C123.889 31.8762 124.397 32.0466 124.906 32.217C125.229 32.325 125.551 32.4331 125.878 32.5273C126.065 32.6212 126.252 32.7147 126.439 32.8082C126.858 33.0174 127.277 33.2265 127.693 33.44C128.506 33.8563 129.152 34.493 129.798 35.1289L129.866 35.1963C130.311 35.6341 130.575 36.1929 130.772 36.776C130.959 37.3327 131.089 37.9075 131.129 38.5037C131.194 39.4971 131.028 40.4421 130.686 41.3701C130.329 42.3366 129.752 43.1392 128.957 43.7426C127.93 44.5222 126.812 45.1533 125.591 45.5666C125.071 45.7429 124.55 45.9188 124.01 46.0347C123.195 46.2093 122.373 46.2241 121.548 46.2331C121.514 46.2334 121.48 46.2318 121.447 46.2302C121.405 46.2282 121.364 46.2262 121.323 46.2278C119.824 46.2853 118.4 45.9062 116.992 45.4359C116.858 45.3909 116.722 45.3509 116.586 45.3108C116.506 45.2873 116.426 45.2639 116.347 45.2394C116.193 45.1919 116.048 45.2185 115.918 45.3088C115.666 45.483 115.397 45.625 115.127 45.767C114.819 45.9294 114.51 46.0919 114.228 46.3027C114.193 46.3292 114.14 46.3298 114.086 46.3305Z" fill="#00160A"/>
<path fill-rule="evenodd" clip-rule="evenodd" d="M96.1845 87.0313L96.1847 87.0312C96.2928 86.9337 96.403 86.8345 96.5182 86.736C96.5949 86.6325 96.673 86.5338 96.7495 86.4371C96.9353 86.2024 97.1116 85.9797 97.235 85.7294C97.5411 85.1088 97.3784 84.8853 96.733 84.5876C96.4388 84.4519 96.1688 84.2623 95.8982 84.0724L95.8982 84.0724C95.721 83.9481 95.5436 83.8236 95.3591 83.7139L95.3176 83.6892C95.0679 83.5404 94.7956 83.3781 94.5238 83.355C93.1011 83.2344 91.8819 85.1629 92.4486 86.5598C93.0345 88.0038 94.2021 88.4407 95.4242 87.6487C95.6918 87.4753 95.9326 87.2583 96.1845 87.0313L96.1845 87.0313ZM92.9645 85.9721C92.9264 85.4851 92.9916 85.0393 93.3375 84.6736C93.4266 84.6035 93.5022 84.5528 93.5685 84.5083C93.6328 84.4651 93.6883 84.4279 93.7389 84.3846C94.3372 83.8724 94.7211 83.9059 95.3165 84.4029C95.6682 84.6965 96.0877 84.9246 96.5082 85.1044C96.8311 85.2424 96.8641 85.431 96.6653 85.6272C96.5388 85.752 96.4138 85.8805 96.2884 86.0093C95.847 86.4629 95.402 86.9201 94.8784 87.2328C94.0815 87.7088 93.041 86.9496 92.9645 85.9721ZM56.775 86.8946L56.8663 86.8114L56.8663 86.8113C57.3782 86.3444 57.8693 85.8964 58.4185 85.5442C59.0284 85.1531 59.7216 85.3207 60.258 85.8364C61.0828 86.6291 61.6299 86.537 62.168 85.8604C62.2198 85.7953 62.2769 85.7307 62.3428 85.682C62.4144 85.6291 62.4853 85.5708 62.5566 85.5121L62.5566 85.5121C62.8762 85.2494 63.2048 84.9792 63.6439 85.1526C64.1852 85.3664 64.4027 85.8715 64.5736 86.447C64.9628 87.7577 64.1715 88.8709 63.1806 89.4513C62.0422 90.1183 60.8159 90.3786 59.5579 90.5718C58.6542 90.7107 56.9129 89.9036 56.5211 89.2464C56.0155 88.3981 56.324 87.6774 56.775 86.8946ZM62.0864 89.2427C62.1392 89.2156 62.1922 89.1887 62.2452 89.1618L62.2453 89.1617C63.1767 88.6885 64.1027 88.2179 63.9461 86.8415C63.9379 86.7688 63.9339 86.6927 63.93 86.6164C63.912 86.2704 63.8939 85.9216 63.472 85.8773C63.2035 85.8491 62.8493 86.0803 62.6269 86.2958C61.7056 87.1888 60.9415 87.2734 59.9754 86.3374C59.6807 86.0519 59.3507 85.7559 58.7904 85.9836C57.815 86.3801 57.3812 87.2059 57.0483 88.0884C56.8965 88.4908 56.9357 89.0561 57.5227 89.246C57.697 89.3024 57.872 89.3698 58.0473 89.4374C58.4953 89.6101 58.9455 89.7837 59.3909 89.7752C60.095 89.7617 60.7961 89.578 61.5292 89.386C61.7128 89.3379 61.8983 89.2893 62.0864 89.2427ZM82.8072 121.647L82.7339 121.802C82.3332 122.65 81.9458 123.471 81.0455 123.832C80.108 124.207 78.594 124.331 77.8575 123.369C77.4211 122.799 77.3922 122.042 77.8814 121.502C78.0359 121.331 78.1998 121.165 78.3639 120.999L78.364 120.999L78.364 120.999L78.3641 120.999L78.3642 120.999L78.3643 120.999L78.3643 120.998L78.3644 120.998L78.3645 120.998L78.3645 120.998L78.3646 120.998L78.3647 120.998L78.3647 120.998L78.3648 120.998C78.7815 120.576 79.1992 120.154 79.4662 119.648C79.7217 119.165 79.8357 118.603 79.9499 118.04C80.0025 117.781 80.0551 117.522 80.1217 117.27C80.3333 116.469 80.5552 115.657 81.3208 115.212C81.8724 114.891 82.3116 115.1 82.7238 115.616C83.4723 116.554 83.4008 117.613 83.3301 118.662L83.3301 118.662C83.3117 118.934 83.2935 119.205 83.2895 119.473C83.2818 119.996 83.1301 120.516 82.9747 121.048C82.9169 121.246 82.8587 121.445 82.8072 121.647ZM80.9853 117.553C80.9726 117.633 80.9602 117.714 80.9479 117.794C80.8154 118.657 80.6817 119.528 80.1118 120.223C79.6798 120.75 79.1918 121.238 78.6789 121.683C78.1948 122.103 78.1114 122.598 78.5472 123.045C79.3144 123.833 81.1749 123.474 81.717 122.397C82.039 121.757 82.3125 121.082 82.529 120.396C82.9296 119.128 82.6814 117.888 82.2263 116.685C82.1574 116.502 81.9637 116.264 81.8127 116.252C81.6707 116.241 81.4731 116.47 81.3643 116.638C81.2075 116.88 81.1088 117.161 80.9853 117.553ZM81.0684 91.0637C80.502 90.6456 79.9636 90.6388 79.3823 90.7756C78.4306 90.9995 77.402 92.1392 77.402 93.3056C77.402 94.48 77.9103 95.3392 78.8474 95.8933C79.7518 96.428 80.7037 96.8008 81.8255 96.6954C83.1391 96.572 84.1319 96.0434 84.669 94.8094C84.7809 94.5525 84.7704 94.2393 84.7598 93.9262C84.755 93.7827 84.7502 93.6393 84.7571 93.5012C84.6417 93.5018 84.5227 93.4928 84.4037 93.4838C84.1361 93.4636 83.8684 93.4435 83.6404 93.5317C83.2159 93.6959 82.989 93.545 82.8463 93.2194C82.4521 92.3196 81.855 91.6444 81.0684 91.0637ZM79.0733 91.7306C79.6205 91.4658 80.6288 91.1711 81.2272 91.7306C81.8255 92.2901 82.0522 92.8146 82.2025 93.1731C82.5654 94.0384 83.0755 94.3231 83.9371 94.0847C84.0184 94.0622 84.1055 94.0622 84.1927 94.0621C84.233 94.0621 84.2734 94.0621 84.3132 94.0599C84.3009 94.1008 84.29 94.1424 84.279 94.1839C84.2553 94.2733 84.2317 94.3626 84.1957 94.4464C83.3444 96.4277 80.6084 96.1321 79.3294 95.2957C78.5491 94.7855 78.1057 94.1201 78.1434 93.1502C78.1695 92.4783 78.5102 92.0032 79.0733 91.7306ZM84.66 107.429C84.5145 107.556 84.3767 107.69 84.2409 107.822C83.9343 108.12 83.6382 108.408 83.2879 108.578C82.5224 108.949 81.7055 108.758 80.961 108.382C79.7044 107.747 78.9292 106.781 79.0069 105.252C79.0623 104.164 79.695 103.528 80.5497 103.004C81.2704 102.563 81.9741 102.47 82.7276 102.843C83.2909 103.121 83.446 103.661 83.5991 104.195C83.6298 104.301 83.6604 104.408 83.6942 104.512C83.7381 104.647 83.75 104.794 83.7618 104.94C83.7748 105.1 83.7876 105.259 83.8417 105.402C83.9199 105.609 84.11 105.866 84.299 105.92C85.2306 106.185 85.3233 106.42 84.7367 107.227C84.721 107.249 84.7131 107.277 84.7038 107.31C84.6942 107.344 84.683 107.384 84.66 107.429ZM83.4557 107.523C83.4825 107.509 83.5104 107.497 83.5383 107.484C83.5984 107.456 83.6585 107.429 83.7076 107.388C84.2961 106.894 84.2943 106.892 83.7284 106.388L83.6987 106.362C83.5331 106.214 83.3991 105.981 83.3424 105.762C83.2839 105.536 83.2436 105.303 83.2034 105.071C83.1383 104.694 83.0734 104.319 82.9315 103.976C82.8056 103.672 82.3986 103.363 82.0736 103.301C81.4094 103.172 79.9443 104.389 79.8855 105.085C79.8062 106.022 80.0803 106.821 80.9272 107.346C81.722 107.838 82.5141 108.123 83.4557 107.523ZM49.542 95.6806C50.904 94.7818 51.7759 93.589 51.9576 91.8464C51.9576 91.6919 51.9627 91.5429 51.9677 91.3984C51.9783 91.0887 51.9883 90.7993 51.9457 90.5183C51.8532 89.9084 51.6578 89.3153 50.839 89.4516C50.4384 89.5183 50.0269 89.7074 49.6897 89.9451C48.9923 90.4368 48.7568 91.2503 48.5329 92.024L48.5128 92.0934C48.1812 93.2367 47.6665 94.0414 46.3479 94.0407C46.118 94.0406 45.7443 94.4843 45.6856 94.7758C45.5258 95.5699 46.2964 96.3846 47.1248 96.4171C48.0124 96.452 48.7901 96.1768 49.542 95.6806ZM47.7866 95.7309C47.7148 95.7469 47.643 95.7628 47.5725 95.7817C46.976 95.8498 46.6917 95.5292 46.4174 95.22L46.4173 95.2199C46.3958 95.1957 46.3743 95.1714 46.3528 95.1475C46.3087 95.0986 46.3321 94.8992 46.387 94.8583L46.4268 94.8285C46.5999 94.6988 46.7879 94.5578 46.9864 94.5231C47.9896 94.3476 48.5447 93.7475 48.8916 92.7726C49.1838 91.9517 49.6231 91.172 50.0957 90.4413C50.2468 90.2078 50.7194 90.0962 51.0315 90.1195C51.1533 90.1285 51.3204 90.6602 51.3269 90.9571C51.3781 93.3021 50.1101 94.7622 48.2385 95.5985C48.0961 95.6621 47.9414 95.6965 47.7866 95.7309ZM50.4444 101.336C50.6877 100.579 51.2171 100.094 51.7393 99.6165L51.7394 99.6165C51.9241 99.4475 52.1079 99.2793 52.2778 99.1002C52.6149 98.7448 53.3915 99.2103 53.5636 99.8126C53.6355 100.064 53.7056 100.316 53.7757 100.569C53.9523 101.204 54.129 101.839 54.3339 102.465C54.5118 103.007 54.4382 103.432 54.0599 103.856C53.7734 104.178 53.5144 104.546 53.3256 104.935C52.8615 105.892 52.1787 106.131 51.1428 105.298C49.7747 104.197 49.9567 102.814 50.4444 101.336ZM53.6868 102.7L53.4565 102.107C53.2449 101.563 53.0332 101.019 52.8228 100.474C52.7796 100.362 52.7402 100.249 52.7007 100.136C52.6826 100.084 52.6644 100.032 52.6459 99.98C52.5925 100.006 52.5374 100.03 52.4822 100.054C52.3626 100.105 52.243 100.157 52.1412 100.233C51.3869 100.801 51.0301 101.647 50.8721 102.53C50.7462 103.234 50.7161 104.036 51.2598 104.618C51.5094 104.885 51.9075 105.045 52.2666 105.138C52.3215 105.152 52.4197 104.976 52.5239 104.789C52.583 104.684 52.644 104.574 52.7001 104.494C52.7953 104.359 52.8941 104.225 52.9928 104.092C53.155 103.874 53.3172 103.655 53.4633 103.425C53.5631 103.269 53.6055 103.074 53.6651 102.799L53.6868 102.7ZM67.6053 99.0139C66.3612 98.53 65.1218 98.8224 65.0508 100.478C65.1259 100.656 65.1953 100.833 65.2637 101.008L65.2637 101.008L65.2637 101.008L65.2637 101.008L65.2637 101.008L65.2637 101.008L65.2638 101.008L65.2638 101.008C65.4579 101.504 65.6443 101.981 65.9318 102.38C66.9691 103.822 68.2813 104.256 69.7405 103.655C70.6684 103.273 70.6725 102.401 70.0513 101.853C69.4675 101.339 68.9649 100.76 68.6559 99.981C68.4938 99.5725 68.024 99.1767 67.6053 99.0139ZM68.8437 103.028C68.173 103.154 67.4975 103.28 66.9654 102.636C66.3043 101.968 65.8474 101.29 65.7886 100.389C65.7649 100.027 65.9042 99.8306 66.2339 99.6957C66.6968 99.5064 67.7621 99.7376 67.8649 100.208C68.0104 100.873 68.3939 101.355 68.7779 101.838L68.7779 101.838C68.9295 102.029 69.0812 102.22 69.2183 102.422C69.298 102.539 69.3829 102.752 69.3322 102.838C69.2701 102.944 69.0719 102.986 68.9252 103.013L68.8437 103.028ZM64.5568 115.966C64.5815 115.812 64.5962 115.658 64.6106 115.507C64.6443 115.154 64.676 114.821 64.8279 114.564C65.2214 113.897 65.1295 113.322 64.8069 112.705C64.7752 112.644 64.7579 112.576 64.7405 112.507C64.7238 112.441 64.7071 112.375 64.6775 112.316C64.4153 111.792 64.5383 111.279 64.9962 111.06C65.3182 110.906 65.8566 110.955 66.1817 111.135C67.2384 111.721 67.7176 112.761 67.8805 113.933C68.0229 114.957 67.7995 115.953 67.3939 116.892C66.8708 118.104 65.8146 117.95 65.1409 117.231C64.9293 117.006 64.8156 116.683 64.6954 116.342L64.6954 116.342L64.6954 116.342L64.6954 116.342L64.6954 116.342L64.6953 116.342L64.6953 116.342L64.6953 116.342C64.6517 116.218 64.6072 116.091 64.5568 115.966ZM66.6567 112.602C66.5936 112.537 66.5316 112.471 66.4697 112.405C66.3171 112.242 66.1646 112.079 65.9955 111.937C65.924 111.877 65.8207 111.856 65.7175 111.836C65.6707 111.827 65.6238 111.818 65.5799 111.805C65.5695 111.855 65.5512 111.91 65.5329 111.965L65.5329 111.965L65.5329 111.965L65.5329 111.965L65.5329 111.965L65.5329 111.965L65.5329 111.965L65.5329 111.965C65.4934 112.084 65.4539 112.203 65.4939 112.275C65.9372 113.079 65.8362 113.819 65.3718 114.576C65.2738 114.736 65.238 114.935 65.2021 115.135C65.1844 115.234 65.1666 115.333 65.1413 115.427C65.0033 115.942 65.3711 116.917 65.8395 117.066L65.8794 117.079C66.1291 117.159 66.4657 117.268 66.6642 116.839C67.3032 115.46 67.5153 114.098 66.6567 112.602ZM103.016 99.4391C103.811 99.7981 105.147 99.6781 106.153 98.5422C106.227 98.4247 106.301 98.31 106.374 98.1968L106.374 98.1967C106.603 97.8432 106.821 97.5054 107.006 97.1492C107.468 96.2582 106.667 94.8858 105.678 94.9062C105.397 94.9121 105.117 94.9668 104.837 95.0217C104.576 95.0727 104.316 95.1237 104.053 95.1354C103.259 95.1707 102.63 95.4602 102.186 96.1453C101.419 97.3297 101.708 98.848 103.016 99.4391ZM104.275 96.0376C104.315 96.0365 104.354 96.0355 104.393 96.0355C104.486 96.0194 104.575 96.0084 104.658 95.9981C104.885 95.9702 105.068 95.9475 105.171 95.8419C105.51 95.496 105.804 95.6565 106.065 95.867C106.347 96.0947 106.503 96.374 106.367 96.8183C106.047 97.8664 105.47 98.6392 104.415 98.918C103.824 99.0742 103.27 98.9241 102.86 98.398C102.49 97.9228 102.434 97.4193 102.707 96.8807C102.983 96.3357 103.37 95.9677 104.022 96.0337C104.106 96.0422 104.191 96.0399 104.275 96.0376ZM88.9832 97.5272C89.7626 96.9978 90.5051 96.9642 91.2127 97.5644C91.4131 97.7343 91.5895 97.9524 91.7234 98.1815C91.7822 98.2823 91.8173 98.4012 91.8521 98.5189C91.897 98.6709 91.9412 98.8208 92.0353 98.9274C92.4539 99.4018 92.1921 99.8271 91.8501 100.001C90.9861 100.44 90.0747 100.798 89.1534 101.093C88.6685 101.249 88.0207 100.66 87.903 100.097C87.6448 98.8611 88.1322 98.0462 88.9832 97.5272ZM91.114 99.2723C91.054 99.1885 90.9948 99.1041 90.9356 99.0197C90.7916 98.8144 90.6477 98.6092 90.4924 98.4134L90.4786 98.3961C90.3742 98.2641 90.2404 98.0952 90.1064 98.0802C89.1017 97.9677 88.2408 99.1606 88.6507 100.093C88.7713 100.368 89.0188 100.662 89.3121 100.34C89.7178 99.8947 90.219 99.8039 90.7492 99.7079L90.7853 99.7013C90.9318 99.6747 91.0465 99.4627 91.114 99.2723ZM86.8977 125.324C86.877 125.427 86.8554 125.534 86.8216 125.646C86.8268 125.728 86.8484 125.801 86.8689 125.871C86.8889 125.939 86.9078 126.004 86.9092 126.069C86.944 127.637 88.937 128.848 90.1808 128.663C91.0501 128.533 91.526 128.208 91.651 127.386C91.7623 126.654 91.5877 125.853 91.0298 125.386C90.3872 124.848 89.6116 124.442 88.8405 124.109C87.9248 123.714 87.3468 124.031 86.9877 124.974C86.9461 125.084 86.9226 125.201 86.8977 125.324ZM87.81 125.044L87.81 125.044C87.8645 124.938 87.9189 124.832 87.9642 124.726C88.0753 124.753 88.1861 124.779 88.2961 124.805C89.3262 125.046 90.2823 125.269 90.7414 126.323C90.9593 126.822 91.2073 127.422 90.61 127.811C90.3219 127.998 89.8821 128.057 89.5336 128.007C88.6668 127.883 87.4353 126.923 87.5489 125.746C87.5721 125.505 87.691 125.275 87.81 125.044ZM88.3965 109.492C89.4016 109.589 90.1989 110.046 90.3645 111.134C90.4232 111.52 90.6603 111.571 90.9211 111.627L90.9212 111.627C90.9591 111.635 90.9976 111.644 91.036 111.653C91.6133 111.795 92.0718 112.283 91.9811 113.054C91.9153 113.613 91.6359 113.841 90.8571 113.796C90.336 113.766 89.7892 113.709 89.3089 113.518C87.7546 112.899 87.3092 111.585 87.4188 110.194C87.46 109.672 87.8352 109.46 88.3965 109.492ZM90.6817 112.284C90.0152 112.328 89.6969 111.917 89.6451 111.32C89.5903 110.689 89.1504 110.487 88.717 110.288L88.6673 110.265C88.3576 110.123 87.9928 110.493 88.0437 110.843C88.2337 112.149 89.6815 113.283 90.9794 113.181C91.4586 113.143 91.3978 112.889 91.225 112.63C91.1683 112.545 91.0649 112.493 90.9421 112.432C90.8611 112.391 90.7717 112.346 90.6817 112.284ZM75.9208 134.119C75.9358 133.952 75.9368 133.782 75.9378 133.616C75.94 133.251 75.942 132.906 76.0936 132.657C76.4635 132.05 76.9095 131.492 77.3554 130.935C77.537 130.708 77.7186 130.48 77.8951 130.25C78.1986 129.854 78.6694 129.624 79.0533 129.838C79.4433 130.056 79.8218 130.499 79.9705 130.929C80.3238 131.952 79.8782 132.831 79.2117 133.581C79.0227 133.794 78.8084 133.982 78.594 134.171L78.5939 134.171C78.425 134.32 78.2559 134.469 78.0989 134.63C77.2282 135.522 76.452 135.106 75.9208 134.119ZM78.0825 133.865C78.9724 133.264 79.5466 132.484 79.5089 131.325C79.4957 130.92 79.3481 130.65 78.9907 130.479C78.6153 130.299 78.3593 130.541 78.2437 130.802C77.9518 131.461 77.5348 132.024 77.117 132.588C76.9724 132.783 76.8277 132.978 76.6881 133.177C76.546 133.38 76.6337 133.87 76.7773 134.137C76.9446 134.447 77.2793 134.395 77.562 134.157C77.6311 134.098 77.7144 134.058 77.8106 134.012L77.8107 134.012C77.8923 133.972 77.9833 133.928 78.0825 133.865ZM72.9409 126.538C73.3258 125.62 73.384 124.636 73.1724 123.615C73.1548 123.597 73.1412 123.584 73.1306 123.574C73.1138 123.558 73.1044 123.549 73.0985 123.538C72.6717 122.757 72.2252 122.408 71.7237 122.579C71.089 122.795 70.8524 123.283 70.8299 123.991C70.8138 124.496 70.6187 124.942 69.9578 125.14C68.9769 125.434 69.0476 126.338 69.6528 126.827C69.8839 127.014 70.1779 127.122 70.4689 127.228C70.5605 127.262 70.6517 127.296 70.7406 127.331C71.2972 127.556 72.6661 127.192 72.9409 126.538ZM72.5094 124.028C72.5342 124.071 72.559 124.114 72.5857 124.154C72.5857 124.382 72.6 124.601 72.6137 124.81C72.6424 125.249 72.6685 125.648 72.5553 125.999C72.2653 126.899 70.5421 127.06 69.9925 126.28C69.9337 126.197 70.0973 125.789 70.21 125.762C71.121 125.544 71.4592 124.938 71.4904 124.033C71.4972 123.837 71.6808 123.602 71.8485 123.48C71.9115 123.434 72.1772 123.639 72.3197 123.766C72.398 123.835 72.4537 123.932 72.5094 124.028Z" fill="#FFB61D"/>
</svg>
