<svg width="152" height="146" viewBox="0 0 152 146" fill="none" xmlns="http://www.w3.org/2000/svg">
<path fill-rule="evenodd" clip-rule="evenodd" d="M39.4525 136.063C39.2337 136.199 38.951 136.154 38.7827 135.956C37.7715 135.046 36.6303 134.311 35.5913 133.435C35.0358 132.961 34.4435 132.533 33.8205 132.158C33.3649 131.888 33.0227 131.466 32.5865 131.158L32.4651 131.077C31.9313 130.742 31.4984 130.259 30.9838 129.882C30.5496 129.565 30.2373 129.094 29.8022 128.754C29.175 128.252 28.5729 127.718 27.9981 127.153C27.587 126.837 27.2356 126.447 26.9611 126.001C26.8995 125.874 26.7862 125.847 26.7044 125.768C26.3422 125.442 25.9997 125.093 25.6789 124.723C25.0213 123.922 24.2892 123.186 23.6445 122.376C23.1769 121.787 22.6775 121.231 22.1938 120.658C21.7288 120.107 21.2744 119.546 20.8306 118.976C19.7869 117.646 18.82 116.253 17.9347 114.806C17.2553 113.665 16.6392 112.485 16.0894 111.272C15.6049 110.308 15.1835 109.312 14.828 108.29C14.5702 107.465 14.1942 106.673 14.0132 105.839C13.8425 105.053 13.6288 104.271 13.4402 103.494C13.0032 101.696 12.6373 99.8846 12.3426 98.0613C12.1679 96.988 12.0144 95.904 11.8238 94.8373C11.6001 93.5857 11.5164 92.3177 11.2967 91.0663C11.1686 90.3332 11.1303 89.5571 11.0463 88.8049C10.9649 88.0766 10.9831 87.3411 10.8573 86.6183C10.7563 85.8931 10.6913 85.1631 10.6623 84.4311C10.6134 83.7517 10.4077 83.0373 10.6259 82.3405C10.2837 81.8525 10.5186 81.2875 10.4633 80.7645C10.4081 80.2414 10.3867 79.7091 10.3021 79.2003C10.2147 78.6761 10.1399 78.1393 10.068 77.6184C9.9217 76.5605 9.67792 75.5232 9.53038 74.4719C9.43985 73.8304 9.1684 73.2635 9.02702 72.6476C8.74992 71.4695 8.35944 70.3227 7.86135 69.2241C7.65295 68.787 7.51038 68.3198 7.4385 67.8386C7.39288 67.4722 7.06043 67.3162 6.96257 66.9823C6.80431 66.4418 6.55761 65.9293 6.35847 65.4018C6.32332 65.2226 6.19683 65.0768 6.0276 65.0205L6.16366 64.5572C6.0912 64.3683 6.01691 64.5925 5.91754 64.5326C5.81594 64.3238 5.65411 64.1253 5.68306 63.8407C5.71079 63.5732 5.41545 63.494 5.35248 63.245C5.21352 62.7038 4.63201 62.3354 4.75388 61.6804C4.35428 61.3086 4.21878 60.7697 3.9467 60.3169C3.80339 60.1052 3.73806 59.8487 3.76113 59.5931L3.76802 59.5342C3.81342 59.2842 3.33404 59.2553 3.51917 58.9365C2.8953 58.2504 2.86434 57.3087 2.61358 56.4878C2.21163 55.1705 1.70966 53.8772 1.52277 52.4807C1.42908 51.7821 1.13457 51.0839 1.02615 50.374C0.782035 48.7783 0.431585 47.1971 0.373928 45.5709C0.350422 44.8992 0.181214 44.2328 0.163856 43.5603L0.143981 42.7831C0.115856 41.6172 0.0998163 40.4507 0.156383 39.2846C0.128992 39.0142 0.175855 38.7414 0.291659 38.497C0.461865 38.2258 0.175483 37.9805 0.200275 37.682C0.22802 37.3276 0.420147 37.022 0.386226 36.6343C0.36754 36.4208 0.477229 36.1029 0.456171 35.8551C0.388006 35.0495 0.777598 34.3022 0.690987 33.4987C0.707259 33.1971 0.788796 32.9031 0.929653 32.6381C1.24169 31.7248 1.13075 30.7143 1.56343 29.8457C1.76995 29.4161 1.87633 28.9435 1.87478 28.4653L1.87145 28.2804C1.86987 28.1435 1.87585 28.0117 1.95432 27.934C2.28272 27.6095 2.27215 27.1512 2.4088 26.76C2.5551 26.3411 2.5584 25.8748 2.76068 25.4577C3.00757 25.0582 3.18343 24.6168 3.28009 24.1541C3.35155 23.3526 3.73152 22.6905 4.01558 21.9859C4.15733 21.6339 4.16675 21.1865 4.60513 20.9849C4.82811 20.8823 4.40419 20.5281 4.72405 20.3768L4.76123 20.3614C4.99127 20.2778 5.01583 20.08 4.99717 19.8345C4.98008 19.6099 5.36997 19.5275 5.30341 19.2889C5.23685 19.0503 5.24472 18.7219 5.37348 18.7035C5.69555 18.6559 5.44437 18.2589 5.71115 18.2405C5.73869 18.231 5.76038 18.209 5.76989 18.1807C5.99868 17.3715 6.63075 16.7878 6.89988 15.9864C7.08095 15.5116 7.34773 15.0762 7.68615 14.7032C7.97632 14.3365 8.23643 13.9456 8.46382 13.5348C8.8765 12.8494 9.47199 12.3224 9.87374 11.6386C9.98273 11.4537 10.4711 11.6106 10.2868 11.157C10.5965 11.104 10.5613 10.777 10.7118 10.6041C10.8661 10.4808 11.038 10.3827 11.2215 10.3133C11.404 9.89605 11.6797 9.52892 12.0261 9.24165C12.6597 8.57476 13.3336 7.94971 14.0439 7.37024L14.63 6.89476C15.4133 6.26103 16.2148 5.64754 17.1658 5.2852C17.4103 5.19209 17.3528 4.92093 17.5587 4.81696C18.7534 4.2052 19.8832 3.47033 21.1902 3.07951C21.7371 2.91552 22.2463 2.54087 22.8062 2.3686C23.93 2.02242 24.9993 1.52344 26.1873 1.34184C26.8906 1.23473 27.6035 1.00844 28.3205 0.880269C29.8015 0.571137 31.3134 0.446405 32.8234 0.508766L33.751 0.569847C34.5756 0.624341 35.3999 0.686308 36.2208 0.811286C36.6093 0.870526 36.9585 1.06389 37.3203 1.08247C37.6726 1.10014 38.0176 1.19261 38.3335 1.35405C38.5838 1.47755 38.8465 1.28474 39.1085 1.46149C39.3022 1.64108 39.5683 1.71093 39.8204 1.65111L39.8706 1.63741C40.0188 1.58168 40.2578 1.77775 40.4546 1.86246C40.7458 1.95944 41.0265 2.08731 41.2921 2.244C41.4938 2.38845 41.8317 2.10314 41.9234 2.4882C42.2395 2.31654 42.4752 2.555 42.7343 2.65867L42.7698 2.67192C43.0301 2.76217 43.2787 2.88904 43.5325 2.99974L44.3784 3.36879C44.6147 3.51484 44.8722 3.62131 45.1411 3.6842C45.6412 3.71425 46.0373 4.03001 46.5194 4.12593C47.0517 4.27471 47.5641 4.49066 48.0449 4.76885C48.4788 4.98146 48.9767 4.87772 49.4091 5.13823C49.8156 5.42269 50.2753 5.61718 50.7588 5.70937C51.2549 5.75969 51.6691 6.08691 52.112 6.11476L52.1954 6.11633C52.762 6.10426 53.1424 6.52004 53.637 6.5759C54.7155 6.69758 55.7194 7.16717 56.7753 7.30985C58.1072 7.48979 59.4089 7.83866 60.7566 7.95288C61.6324 8.02716 62.5145 8.07296 63.3912 8.14765C64.2696 8.18713 65.1497 8.14989 66.022 8.03631C67.1143 7.92464 68.1962 7.72251 69.2569 7.43188C70.3281 7.15192 71.3454 6.70811 72.4074 6.41212C72.892 6.27696 73.3412 6.05342 73.8334 5.93252C74.3631 5.80238 74.8445 5.45962 75.3746 5.32743C76.7015 4.99649 77.9191 4.29914 79.2879 4.1204C80.8659 3.41286 82.5915 3.28933 84.2294 2.81448C84.991 2.59291 85.8071 2.57672 86.6033 2.47554L86.7736 2.45245C88.1831 2.25046 89.6026 2.19542 91.0222 2.12656C92.3247 2.07426 93.6292 2.11013 94.9271 2.23394C95.8616 2.31502 96.7926 2.44273 97.728 2.50575C98.1072 2.5316 98.4257 2.86769 98.8295 2.70184C99.6084 3.07923 100.515 2.95661 101.286 3.36349C101.857 3.29652 102.332 3.59389 102.805 3.83552C103.165 4.0207 103.566 3.84455 103.921 4.08532C104.239 4.33668 104.615 4.49741 105.013 4.55127C105.686 4.5667 106.214 4.91733 106.788 5.15618C108.122 5.7114 109.447 6.29032 110.763 6.89296C111.194 7.09071 111.708 7.13772 112.033 7.56261C112.318 7.93543 112.887 7.83713 113.156 8.26526C113.255 8.42113 113.455 8.18984 113.62 8.32418C113.943 8.58627 114.424 8.53916 114.697 8.95564C114.899 9.26396 115.396 9.17014 115.614 9.53789L115.643 9.59098C115.764 9.85105 116.284 9.38417 116.322 9.92105C116.824 10.0536 117.197 10.4157 117.616 10.6936C117.964 10.9232 118.423 10.9123 118.704 11.3104C118.944 11.6496 119.526 11.5374 119.702 12.0128C120.313 12.1289 120.683 12.6822 121.245 12.9119C121.668 13.1118 122.062 13.3689 122.417 13.6764C122.988 14.1227 123.572 14.5517 124.164 14.9651C124.375 15.1172 124.579 15.2812 124.773 15.4564C124.882 15.5519 124.884 15.7197 125.051 15.7907C126.109 16.2416 126.922 17.0704 127.764 17.8192C128.252 18.202 128.709 18.6242 129.131 19.0817L129.27 19.2355C129.391 19.387 129.675 19.5024 129.77 19.6999C130.035 20.2499 130.515 20.5825 130.937 20.9604L131.006 21.0239C131.245 21.2335 131.452 21.4777 131.622 21.7486C131.655 21.8003 131.654 21.8994 131.695 21.9178C132.444 22.2592 132.798 23.0105 133.317 23.5852C133.82 24.1408 134.222 24.7925 134.737 25.3332C135.775 26.4234 146.248 43.5066 147.285 46.3151L147.582 47.1189C147.878 47.924 148.168 48.7333 148.423 49.5514L148.639 50.2478C148.856 50.9454 149.066 51.6468 149.237 52.3525L149.467 53.2946C149.923 55.1798 150.362 57.0706 150.684 58.9895C150.97 60.7016 151.155 62.4225 151.345 64.1456C151.466 65.2519 151.539 66.3543 151.57 67.4648C151.62 69.2394 151.631 71.0142 151.604 72.7892C151.577 74.4601 151.201 76.0924 151.26 77.76C150.871 78.7071 151.103 79.7817 150.683 80.7221C150.786 81.2424 150.536 81.718 150.436 82.1944C150.333 82.6865 150.352 83.2249 150.074 83.692C149.947 83.904 150.103 84.215 149.945 84.4734C149.784 84.6832 149.723 84.9558 149.778 85.2168C149.425 85.3122 149.774 85.6207 149.6 85.8163C149.413 86.0288 149.3 86.2994 149.279 86.5853C149.266 87.2314 148.815 87.7482 148.779 88.3275C148.744 88.9202 148.381 89.3621 148.292 89.883L148.279 89.9816C148.21 90.6739 147.647 91.1026 147.52 91.7464C147.509 91.8028 147.37 91.8314 147.289 91.8748C147.287 92.0243 147.449 92.0197 147.54 92.1529C147.336 92.279 147.15 92.4334 146.987 92.6119C146.843 92.8708 146.725 93.1445 146.635 93.4285L146.982 94.1076C146.758 94.4194 146.762 94.7408 146.494 94.9687C146.378 95.0683 146.37 95.436 146.316 95.681C146.245 96.0028 145.806 96.1227 145.86 96.3968C145.885 96.7053 145.807 97.0133 145.639 97.2702C144.608 99.7962 143.566 102.318 142.514 104.835C142.403 105.105 142.397 105.469 142.032 105.573C142.333 106.03 141.732 106.062 141.67 106.37C141.574 106.651 141.418 106.907 141.214 107.119C140.907 107.529 140.79 108.086 140.572 108.572C140.475 108.926 140.284 109.245 140.02 109.492C139.755 109.69 139.716 110.112 139.489 110.417C139.182 110.779 138.922 111.181 138.718 111.614C138.624 111.934 138.444 112.22 138.199 112.441C137.986 112.611 138.061 113.058 137.688 113.148C137.489 113.718 137.067 114.129 136.726 114.599L136.663 114.688C135.815 115.902 134.897 117.063 133.913 118.164C133.094 119.092 132.289 120.035 131.461 120.955C131.192 121.251 130.91 121.544 130.623 121.82C129.615 122.843 128.552 123.808 127.44 124.711C126.432 125.483 125.456 126.305 124.412 127.034C123.857 127.422 123.369 127.934 122.822 128.354C121.534 129.345 120.222 130.299 118.863 131.184C117.701 132.011 116.464 132.72 115.169 133.302C114.82 133.442 114.511 133.684 114.17 133.848C113.764 133.99 113.37 134.162 112.988 134.362C112.531 134.67 112.009 134.824 111.553 135.104C111.199 135.321 110.735 135.077 110.431 135.527C110.209 135.855 109.632 135.616 109.358 135.996C108.801 135.914 108.448 136.42 107.914 136.51L107.844 136.519C107.288 136.572 106.761 136.93 106.221 137.154C105.694 137.411 105.15 137.631 104.594 137.813C103.563 138.083 102.622 138.609 101.61 138.897C100.645 139.171 99.7341 139.664 98.7212 139.731C98.4819 139.746 98.489 139.962 98.3158 140.023C98.1356 140.086 97.9662 139.992 97.7993 140.072C97.1144 140.373 96.4071 140.618 95.6842 140.803C94.6677 141.1 93.6404 141.369 92.6292 141.674C91.0578 142.121 89.4647 142.483 87.8563 142.757C86.8115 142.953 85.7599 143.111 84.7115 143.28L83.2496 143.518C82.5186 143.636 81.7871 143.751 81.0548 143.852C80.123 143.981 79.1842 144.045 78.2511 144.162C77.5125 144.254 76.7756 144.378 76.0403 144.502C75.0236 144.672 73.9992 144.807 72.9847 144.971C71.5466 145.195 70.0975 145.336 68.644 145.394C67.9085 145.446 67.1705 145.449 66.4345 145.404C66.0245 145.368 65.6127 145.358 65.2016 145.374L64.9962 145.384C64.0396 145.451 63.1254 145.251 62.1927 145.169C61.906 145.143 61.6415 145.054 61.3732 145L61.2579 144.98C61.0267 144.944 60.8045 144.891 60.58 144.841L60.4109 144.805C59.6134 144.638 58.844 144.329 58.0253 144.269L57.8713 144.261C57.8127 144.261 57.7551 144.247 57.7029 144.219C56.9032 143.755 55.9629 143.72 55.134 143.329L54.9889 143.256C54.2199 142.845 53.2966 142.85 52.539 142.38C51.9592 142.477 51.5285 142.028 51.0124 141.932C49.6793 141.684 48.512 141.005 47.2842 140.486L47.1236 140.42C45.8423 139.898 44.5846 139.315 43.3135 138.767C42.4432 138.328 41.6093 137.817 40.8201 137.238C40.6549 137.077 40.4701 136.938 40.2704 136.825C39.9052 136.701 39.608 136.424 39.4525 136.063Z" fill="#FFD600" fill-opacity="0.57"/>
</svg>
