<svg width="453" height="453" viewBox="0 0 453 453" fill="none" xmlns="http://www.w3.org/2000/svg">
<path fill-rule="evenodd" clip-rule="evenodd" d="M181.012 343.386C243.672 361.505 274.722 293.968 328.483 299.518C357.912 302.557 416.508 317.291 417.142 213.099C417.308 145.832 355.432 128.532 291.244 162.559C272.376 169.778 257.54 167.389 241.466 159.96C225.393 152.531 204.892 119.744 165.85 112.743C48.3612 91.6748 -53.6484 275.533 181.012 343.386Z" fill="#FFE86E"/>
<path fill-rule="evenodd" clip-rule="evenodd" d="M331.467 175.253C332.649 174.689 334.754 175.815 333.515 177.594C330.771 181.532 341.213 189.516 337.894 182.524C337.539 181.776 335.728 176.611 338.324 179.29C340.919 181.969 344.478 193.749 342.091 197.781C339.995 201.32 334.507 202.97 327.03 203.116L326.693 203.121L326.534 203.129C322.126 203.302 318.804 200.55 316.686 195.223L316.585 194.963C314.442 189.388 315.074 184.935 318.627 181.957C318.691 181.903 318.76 181.854 318.833 181.812L318.944 181.753L331.467 175.253Z" fill="white"/>
<path fill-rule="evenodd" clip-rule="evenodd" d="M94.1597 69.4607C93.651 68.7275 92.8211 68.3013 91.9308 68.4038C91.019 68.5076 90.2526 69.1354 89.9691 70.0073L89.8933 70.2405C89.836 70.4126 89.7678 70.6097 89.6879 70.8314C89.4597 71.4641 89.1836 72.1662 88.8579 72.9211C87.932 75.0673 86.7961 77.2077 85.4443 79.1968C82.5277 83.4885 79.0296 86.4652 74.9463 87.5916C74.308 87.7677 73.9334 88.4278 74.1094 89.0661C74.1988 89.39 80.128 92.408 86.2088 91.7027C92.1069 91.0187 98.1626 86.6204 98.2134 86.3184L98.2922 85.6895L98.3148 85.4787C98.7704 80.9047 98.0072 75.7284 94.9618 70.6972C94.7089 70.2793 94.4416 69.867 94.1597 69.4607Z" fill="#E7EAEE"/>
<path fill-rule="evenodd" clip-rule="evenodd" d="M106.413 70.8823L106.38 71.1241C105.93 74.2197 104.702 78.5262 102.515 81.7654C99.8219 85.7535 96.0405 88.7908 92.2487 90.7382C86.7785 93.5473 80.8431 94.0254 75.03 90.281L74.7736 90.1133C71.7192 88.0834 69.3973 87.0997 66.1958 87.8739C62.9943 88.648 61.4251 90.9641 60.0297 93.1133L59.9658 93.2042C59.7425 93.498 59.4176 93.7002 59.0525 93.7696L52.9865 94.6847L55.1728 97.442C55.8308 98.2778 56.2984 98.8802 56.5757 99.2494L58.9775 102.462C66.1357 111.995 73.8476 121.103 89.0389 118.081L89.5538 117.975C93.579 117.111 96.9307 119.535 101.132 123.102L102.029 123.869C103.14 124.823 106.499 127.828 107.872 129.273L108.32 129.751L108.734 130.202C108.82 130.298 108.903 130.389 108.981 130.477L109.408 130.967L109.675 130.656C112.562 127.232 114.392 121.999 115.352 117.678C115.714 116.046 115.927 114.481 116.021 113.037L116.033 112.849C116.058 112.427 116.07 112.059 116.074 111.751L116.076 111.522L115.643 111.646C110.629 113.028 105 113.127 99.5122 112.453C98.1866 112.291 112.827 100.61 109.952 85.3215C109.297 81.8372 108.899 77.1821 107.733 74.0159C107.365 73.0173 106.983 72.1037 106.604 71.2866L106.413 70.8823Z" fill="white"/>
<path fill-rule="evenodd" clip-rule="evenodd" d="M332.086 177.143L319.59 183.105C316.586 185.623 316.051 189.396 317.984 194.426C318.662 196.19 320.36 200.394 320.372 198.748C320.376 198.234 331.986 190.766 334.198 191.521C336.242 192.219 332.606 186.033 331.594 183.193L332.087 176.988L332.434 176.373" fill="#E7EAEE"/>
<path fill-rule="evenodd" clip-rule="evenodd" d="M315.439 181.564C316.267 181.57 311.561 183.741 311.773 187.81C311.985 191.88 315.108 199.399 314.333 199.689C313.558 199.979 312.108 197.783 311.819 197.007C310.016 192.184 309.682 190.218 309.769 187.413C309.882 183.741 311.829 181.538 315.439 181.564Z" fill="#E7EAEE"/>
<ellipse cx="336.277" cy="185.746" rx="3.23692" ry="7.31239" transform="rotate(0.420763 336.277 185.746)" fill="#E7EAEE"/>
<path fill-rule="evenodd" clip-rule="evenodd" d="M109.621 261.183C109.714 248.495 111.164 242.989 126.352 236.176C157.47 223.864 157.473 223.38 217.078 200.837C232.841 194.907 265.873 209.633 280.328 203.669C289.964 199.694 298.97 196.755 306.936 192.8C307.668 197.825 312.573 206.358 314.313 207.832C305.004 209.714 295.992 212.664 287.275 216.683C268.431 225.369 279.577 223.046 249.627 250.878C247.089 253.236 237.786 258.588 224.351 264.135C224.351 264.135 197.405 260.315 186.62 255.736C175.644 251.075 159.068 236.416 159.068 236.416C159.068 236.416 139.518 248.967 128.291 254.59C123.036 257.222 109.621 261.183 109.621 261.183Z" fill="white"/>
<path fill-rule="evenodd" clip-rule="evenodd" d="M109.669 254.59C109.691 251.612 109.391 249.53 109.723 247.234C110.804 239.747 114.852 235.942 126.475 230.728C157.592 218.415 157.521 216.787 217.126 194.244C232.889 188.314 265.921 203.04 280.376 197.076C290.012 193.1 299.018 190.162 306.984 186.207C307.005 186.351 306.129 193.203 306.129 193.203C306.129 193.203 286.46 203.406 273.483 205.505C259.695 207.735 240.859 196.786 221.934 201.964C193.113 209.849 126.646 234.81 118.758 241.13C112.56 246.096 109.669 254.59 109.669 254.59Z" fill="#E7EAEE"/>
<path fill-rule="evenodd" clip-rule="evenodd" d="M94.1597 69.4607C93.651 68.7275 92.8211 68.3013 91.9308 68.4038C91.019 68.5076 90.2526 69.1354 89.9691 70.0073L89.8933 70.2405C89.836 70.4126 89.7678 70.6097 89.6879 70.8314C89.4597 71.4641 89.1836 72.1662 88.8579 72.9211C87.932 75.0673 86.7961 77.2077 85.4443 79.1968C82.5277 83.4885 79.0296 86.4652 74.9463 87.5916C74.308 87.7677 73.9334 88.4278 74.1094 89.0661C74.2855 89.7043 84.219 85.2654 87.4273 80.5445C88.8716 78.4193 90.0772 76.1477 91.0594 73.8709C91.3558 73.184 91.614 72.5367 91.8356 71.9393L91.9433 71.6448C92.0301 71.4042 92.1048 71.1884 92.1683 70.9978C92.1849 70.8616 92.1998 70.8161 92.213 70.8613C99.0461 75.6101 96.2607 87.2505 96.92 87.312C97.5492 87.3707 98.1102 86.9318 98.2134 86.3184L98.2922 85.6895L98.3148 85.4787C98.7704 80.9047 98.0072 75.7284 94.9618 70.6972C94.7089 70.2793 94.4416 69.867 94.1597 69.4607Z" fill="#E7EAEE"/>
<path fill-rule="evenodd" clip-rule="evenodd" d="M108.46 69.5305L108.609 69.8017L108.791 70.1498C108.901 70.364 109.024 70.6126 109.158 70.8932C109.622 71.8658 110.09 72.9661 110.536 74.179C111.794 77.5931 112.663 81.2742 112.941 85.1047C113.318 90.3026 112.532 95.1999 110.6 99.6461L110.435 100.019C108.867 103.492 106.595 106.668 103.656 109.511L103.365 109.789L103.611 109.802C107.812 110.01 111.97 109.664 115.631 108.526C116.417 108.282 117.27 108.417 117.941 108.892C118.611 109.365 119.024 110.122 119.06 110.942L119.068 111.196L119.072 111.533L119.071 111.662C119.067 112.131 119.05 112.657 119.012 113.233C118.908 114.823 118.675 116.539 118.278 118.328C117.155 123.383 114.95 128.109 111.374 132.078C110.9 132.605 110.235 132.918 109.531 132.951L109.368 132.953C108.617 132.934 107.932 132.618 107.448 132.084L107.094 131.666L106.92 131.466L106.551 131.05L106.147 130.606C106.006 130.454 105.86 130.298 105.708 130.139C104.416 128.779 102.988 127.43 101.471 126.187C97.2651 122.742 93.1982 120.784 89.7113 120.968C84.0075 121.268 79.2881 120.967 74.9168 119.706C69.2657 118.076 64.8421 114.926 61.9359 109.941L61.7731 109.657C60.2691 106.989 58.0416 103.912 55.4109 100.707C54.5979 99.7167 53.7958 98.7747 53.031 97.9032L52.7056 97.5342C52.1846 96.9459 51.7576 96.4771 51.5786 96.2861C50.9177 95.5794 50.6936 94.5706 50.9913 93.6519L51.035 93.5278C51.361 92.6696 52.1091 92.0375 53.0165 91.8653L57.8825 90.9407L57.9397 90.8592C59.6964 88.4007 62.1941 86.3258 65.4977 85.5069C68.9436 84.6526 72.5573 85.4439 76.1852 87.7834L76.4383 87.9491C81.3374 91.2049 86.2182 91.063 90.8751 88.6716C94.2015 86.9632 97.3814 84.0442 99.8011 80.4609C102.051 77.1293 103.4 73.5599 103.515 70.7358C103.563 69.5555 104.385 68.5479 105.532 68.2673C106.68 67.986 107.875 68.5023 108.46 69.5305ZM106.413 70.8823L106.38 71.1242C105.93 74.2197 104.702 78.5262 102.515 81.7655C99.8219 85.7535 96.0405 88.7908 92.2487 90.7382C86.7785 93.5473 80.8431 94.0254 75.03 90.2811L74.7736 90.1133C71.7192 88.0834 69.3973 87.0997 66.1958 87.8739C62.9943 88.648 61.4251 90.9641 60.0297 93.1134L59.9658 93.2042C59.7425 93.498 59.4176 93.7002 59.0525 93.7696L52.9865 94.6848L55.1728 97.442C55.8308 98.2778 56.2984 98.8802 56.5757 99.2494L58.9775 102.462C66.1357 111.995 73.8476 121.103 89.0389 118.081L89.5538 117.975C93.579 117.111 96.9307 119.535 101.132 123.102L102.029 123.869C103.14 124.823 106.499 127.828 107.872 129.273L108.32 129.751L108.734 130.202C108.82 130.298 108.903 130.389 108.981 130.477L109.408 130.967L109.675 130.656C112.562 127.232 114.392 121.999 115.352 117.678C115.714 116.046 115.927 114.481 116.021 113.037L116.033 112.849C116.058 112.427 116.07 112.059 116.074 111.751L116.076 111.522L115.643 111.646C110.629 113.028 105 113.127 99.5122 112.453C98.1866 112.291 112.827 100.61 109.952 85.3216C109.297 81.8372 108.899 77.1821 107.733 74.0159C107.365 73.0173 106.983 72.1038 106.604 71.2866L106.413 70.8823Z" fill="#E7EAEE"/>
<path fill-rule="evenodd" clip-rule="evenodd" d="M68.2224 97.5846C69.3792 97.5931 70.3272 96.6589 70.3357 95.5021C70.3442 94.3453 69.41 93.3973 68.2532 93.3888C67.0964 93.3803 66.1484 94.3144 66.1399 95.4713C66.1314 96.6279 67.0656 97.5761 68.2224 97.5846Z" fill="#00160A"/>
<ellipse cx="69.9788" cy="103.292" rx="3.29678" ry="2.69736" transform="rotate(0.420763 69.9788 103.292)" fill="#FFB61D"/>
<ellipse cx="69.9788" cy="103.292" rx="3.29678" ry="2.69736" transform="rotate(0.420763 69.9788 103.292)" fill="#FFB61D"/>
<path fill-rule="evenodd" clip-rule="evenodd" d="M108.46 69.5305L108.609 69.8017L108.792 70.1498C108.901 70.364 109.024 70.6125 109.158 70.8931C109.622 71.8658 110.09 72.966 110.536 74.179C111.794 77.5931 112.663 81.2741 112.941 85.1046C113.318 90.3026 112.532 95.1998 110.601 99.6461L110.435 100.019C108.867 103.492 106.595 106.668 103.656 109.511L103.365 109.789L103.611 109.802C107.812 110.01 111.97 109.664 115.631 108.526C116.417 108.282 117.27 108.417 117.941 108.892C118.611 109.365 119.024 110.122 119.06 110.942L119.068 111.196L119.072 111.532L119.071 111.662C119.067 112.131 119.05 112.657 119.012 113.233C118.908 114.823 118.675 116.539 118.278 118.328C117.155 123.383 114.95 128.109 111.374 132.078C110.9 132.605 110.235 132.918 109.531 132.951L109.368 132.953C108.617 132.934 107.932 132.618 107.448 132.084L107.094 131.666L106.92 131.466L106.551 131.05L106.147 130.606C106.006 130.454 105.86 130.298 105.708 130.139C104.416 128.779 102.988 127.43 101.471 126.187C97.2651 122.742 93.1982 120.784 89.7113 120.967C84.0075 121.268 79.2881 120.967 74.9168 119.706C69.2657 118.076 64.8421 114.925 61.936 109.941L61.7731 109.657C60.2691 106.989 58.0416 103.912 55.4109 100.707C54.5979 99.7166 53.7958 98.7746 53.031 97.9032L52.7056 97.5341C52.1846 96.9459 51.7576 96.477 51.5786 96.2861C50.9177 95.5793 50.6936 94.5706 50.9913 93.6519L51.035 93.5277C51.361 92.6696 52.1091 92.0374 53.0165 91.8653L57.8825 90.9406L57.9397 90.8592C59.6964 88.4007 62.1941 86.3257 65.4977 85.5068C68.7496 84.7007 72.1509 85.3599 75.5725 87.4029C79.3883 86.1551 82.6779 83.2674 85.4443 79.1968C86.7961 77.2077 87.932 75.0672 88.8579 72.9211C89.1836 72.1661 89.4597 71.464 89.6879 70.8313C89.7678 70.6097 89.836 70.4126 89.8933 70.2405L89.9691 70.0073C90.2526 69.1354 91.019 68.5075 91.9308 68.4037C92.8211 68.3013 93.651 68.7275 94.1597 69.4607C94.4416 69.867 94.7089 70.2792 94.9618 70.6972C97.3258 74.6026 98.3146 78.5955 98.4256 82.3262C98.9063 81.728 99.366 81.1052 99.8011 80.4608C102.051 77.1292 103.4 73.5599 103.515 70.7357C103.563 69.5555 104.385 68.5479 105.532 68.2672C106.68 67.9859 107.875 68.5023 108.46 69.5305ZM90.8751 88.6715C86.3516 90.9945 81.6169 91.1948 76.8593 88.2205C80.088 86.7563 85.2734 83.7139 87.4273 80.5445C88.8716 78.4193 90.0772 76.1476 91.0594 73.8708C91.3558 73.1839 91.614 72.5367 91.8356 71.9393L91.9433 71.6448C92.0301 71.4041 92.1048 71.1883 92.1683 70.9977C92.1849 70.8616 92.1998 70.8161 92.213 70.8613C96.7552 74.0179 97.0473 80.2197 96.9262 84.0415C95.0769 85.9859 93.006 87.5771 90.8751 88.6715ZM92.2487 90.7382C94.0845 89.7953 95.9179 88.597 97.6264 87.1591C97.7572 87.0842 97.873 86.9852 97.9674 86.8675C99.6564 85.3995 101.213 83.6936 102.515 81.7654C104.702 78.5262 105.93 74.2196 106.38 71.1241L106.413 70.8822L106.604 71.2866C106.983 72.1037 107.365 73.0172 107.733 74.0159C108.544 76.2193 108.984 79.1438 109.397 81.893C109.577 83.0943 109.753 84.262 109.952 85.3215C112.156 97.0391 104.07 106.638 100.769 110.555C99.7639 111.749 99.2026 112.415 99.5122 112.453C105 113.127 110.629 113.028 115.643 111.646L116.076 111.522L116.074 111.751C116.07 112.059 116.058 112.427 116.033 112.849L116.021 113.037C115.927 114.481 115.714 116.046 115.352 117.678C114.392 121.999 112.562 127.232 109.675 130.656L109.408 130.967L108.981 130.477C108.903 130.389 108.82 130.298 108.734 130.202L108.32 129.751L107.872 129.273C106.499 127.828 103.14 124.823 102.029 123.869L101.132 123.102C96.9307 119.535 93.579 117.111 89.5538 117.975L89.0389 118.081C73.8476 121.103 66.1357 111.995 58.9775 102.462L56.5757 99.2493C56.2984 98.8802 55.8308 98.2777 55.1728 97.442L52.9865 94.6847L59.0525 93.7695C59.4176 93.7002 59.7425 93.498 59.9658 93.2042L60.0297 93.1133C61.4251 90.964 62.9943 88.648 66.1958 87.8738C69.3973 87.0997 71.7192 88.0833 74.7736 90.1133L75.03 90.281C80.8431 94.0254 86.7785 93.5473 92.2487 90.7382ZM331.467 175.253C332.649 174.689 334.754 175.815 333.515 177.594C331.639 180.286 333.655 186.586 334.883 190.422C335.451 192.197 335.85 193.445 335.618 193.565C334.881 193.943 333.978 193.652 333.6 192.916C331.553 188.929 330.385 185.766 330.105 183.367C329.966 182.173 329.942 181.019 330.033 179.906L330.045 179.777L320.415 184.371L320.292 184.482C318.111 186.498 317.141 188.85 318.695 193.041L318.787 193.284C320.476 197.679 323.366 200.843 326.398 200.734L326.635 200.724C333.371 200.638 337.412 198.641 338.867 196.184C340.696 193.094 341.213 189.516 337.894 182.524C337.539 181.776 335.728 176.611 338.324 179.29C340.919 181.969 344.478 193.749 342.091 197.781C340.097 201.148 335.034 202.805 328.109 203.084C328.148 203.26 328.155 203.447 328.126 203.636C327.438 208.081 325.386 210.866 321.983 211.651C319.382 212.251 316.596 211.41 314.054 209.414C305.056 211.278 296.34 214.154 287.902 218.044L286.652 218.625C282.347 220.642 279.876 221.998 278.07 223.32C277.01 224.096 276.134 224.891 275.191 225.917L275.039 226.087C274.581 226.611 273.582 227.813 272.445 229.181C270.932 231.001 269.176 233.114 268.129 234.309L267.623 234.882C263.367 239.687 258.008 245.135 250.646 251.975L250.44 252.162C247.681 254.591 240.367 258.679 231.253 262.788C256.327 262.081 274.473 252.646 285.864 234.467C286.365 233.667 287.472 233.525 288.16 234.171C307.385 252.24 329.752 260.701 355.347 259.593C381.011 258.483 399.885 251.953 412.029 240.071C412.62 239.492 413.569 239.502 414.148 240.094C414.727 240.686 414.716 241.634 414.125 242.213C401.386 254.678 374.467 263.904 348.126 265.044C322.51 266.152 307.308 255.489 287.899 238.004L287.425 237.574L287.252 237.835C274.741 256.495 247.76 269.974 220.932 269.971L220.091 269.968C192.652 269.766 176.925 256.364 158.547 238.069L158.403 237.925L158.337 237.981C157.79 238.434 157.248 238.884 156.71 239.33C139.257 253.8 126.234 264.597 106.744 267.236L106.122 267.319C84.1375 271.599 50.9314 259.524 45.8578 253.687C41.209 248.339 46.6527 251.682 48.147 252.6C48.2836 252.684 48.3871 252.747 48.447 252.782C62.9153 261.207 79.644 264.498 99.7627 261.905C102.539 261.547 105.299 261.066 108.042 260.463L108.013 260.167C107.197 251.826 107.218 248.183 108.513 244.011C110.275 238.336 114.483 234.045 122.02 230.664L124.095 229.765C133.403 225.744 140.795 222.728 148.46 219.801L149.022 219.587C149.881 219.26 150.752 218.931 151.641 218.597L152.512 218.272C152.827 218.164 156.934 216.57 163.178 214.148C177.577 208.561 203.339 198.567 220.144 192.211C223.779 190.843 228.172 190.412 233.553 190.73L234.017 190.759C238.049 191.026 242.012 191.602 248.507 192.775L254.213 193.818C260.585 194.969 263.674 195.427 267.281 195.711C268.415 195.8 269.493 195.908 270.517 196.011L270.517 196.011L270.517 196.011C274.31 196.392 277.363 196.698 279.804 195.691C281.975 194.795 284.104 193.93 286.19 193.083L286.19 193.083L286.19 193.083C293.012 190.311 299.376 187.726 305.284 184.843C305.707 182.228 306.753 180.302 308.379 179.041C310.887 177.096 314.417 177.089 317.47 178.302C318.239 178.607 318.615 179.479 318.309 180.248C318.21 180.497 317.588 180.377 316.707 180.208C314.864 179.854 311.892 179.284 310.216 181.409C308.351 183.774 307.711 187.414 309.294 194.601C310.441 199.809 318.063 208.706 321.31 208.73C324.929 208.757 325.802 205.249 326.296 203.26L326.327 203.135C322.022 203.215 318.771 200.467 316.686 195.223L316.585 194.963C314.442 189.388 315.074 184.935 318.627 181.957C318.691 181.903 318.76 181.854 318.833 181.812L318.944 181.753L331.467 175.253ZM311.309 206.685C311.158 206.5 311.009 206.311 310.862 206.117C310.807 206.056 310.754 205.996 310.708 205.94C310.573 205.773 310.434 205.603 310.292 205.431C309.141 204.027 307.807 202.401 306.771 200.063L306.621 199.722C304.958 195.923 304.788 191.668 304.917 188.162L304.936 187.755L304.846 187.799C297.837 191.204 290.215 194.616 281.98 198.034L280.947 198.461C277.421 199.916 273.023 200.93 267.463 200.529L267.033 200.497C263.235 200.198 260.041 199.72 253.346 198.507L248.348 197.593C234.259 195.047 227.202 194.614 221.368 196.747C221.368 196.747 134.376 228.743 123.23 233.406C116.45 236.447 114.136 239.339 111.307 244.031C109.844 246.458 109.941 253.184 110.008 257.855L110.008 257.857L110.008 257.865C110.019 258.645 110.03 259.368 110.032 260.003C126.465 256.021 142.296 247.608 157.534 234.746C158.134 234.239 159.025 234.282 159.573 234.845C160.789 236.093 162.026 237.299 163.283 238.462L225.947 212.821C226.119 212.751 226.296 212.715 226.471 212.71C226.943 212.491 227.452 212.311 227.998 212.171C233.456 210.762 237.789 213.151 240.752 218.972L246.226 215.04C247.034 214.46 248.172 214.813 248.51 215.748C253.38 229.214 251.865 238.405 243.65 242.785C235.365 247.202 228.216 243.457 222.704 232.225C222.424 231.655 222.54 231 222.936 230.56C221.642 225.132 221.427 220.814 222.357 217.694L167.441 242.096C175.577 248.801 184.527 253.878 194.298 257.33C194.524 257.118 194.768 256.935 195.007 256.806C203.292 252.347 223.66 247.217 228.691 245.949C229.127 245.84 229.447 245.759 229.635 245.71C231.996 245.096 229.566 247.28 228.852 247.603L228.761 247.641L199.006 258.849C207.814 261.428 217.256 262.754 227.337 262.828C227.91 262.832 228.48 262.832 229.046 262.827L229.713 262.401C236.088 258.323 246.751 251.504 248.606 249.78L249.472 248.973C255.624 243.09 260.213 237.437 264.218 232.502C268.612 227.087 272.305 222.538 276.59 219.5C279.923 217.137 281.128 216.6 283.961 215.339L283.961 215.339C284.719 215.002 285.593 214.613 286.656 214.123C294.17 210.659 302.689 208.684 310.686 206.83L310.687 206.829L310.687 206.829L311.309 206.685ZM228.746 215.073C233.071 213.957 236.289 216.008 238.712 221.687L238.787 222.073C239.664 226.779 239.252 229.407 237.999 230.098C236.814 230.751 235.657 230.096 234.172 227.372C233.82 226.716 233.026 226.41 232.313 226.685L232.302 226.69L225.704 229.237L225.545 228.513C223.803 220.334 225.009 216.037 228.746 215.073ZM155.722 282.609C156.421 282.166 161.242 279.857 156.932 284.231C152.621 288.605 119.167 307.05 101.175 307.953C83.8339 308.823 68.4968 301.471 55.1762 291.898L54.7348 291.578L54.6455 291.691C54.0472 292.438 53.4331 293.116 52.8028 293.724L52.5316 293.98C51.3896 295.036 49.4178 296.227 46.5713 297.607C45.8266 297.968 43.2023 298.286 44.5692 296.912C45.936 295.539 48.9201 293.568 50.6578 292.439C51.7935 291.701 52.1568 290.831 52.5173 289.967C52.7084 289.509 52.8987 289.053 53.2029 288.62C53.6914 287.924 54.6603 287.774 55.3368 288.289C68.4644 298.279 83.8459 303.666 101.213 302.795C118.652 301.92 136.709 294.645 155.722 282.609ZM258.178 292.916C258.79 292.359 258.819 288.355 258.207 288.912C251.428 295.075 237.292 300.436 219.891 301.309C202.468 302.184 188.795 299.345 178.846 292.844C178.153 292.391 174.716 291.182 176.772 293.278C178.828 295.375 202.025 306.405 220.032 305.501L220.572 305.473C238.316 304.521 250.857 299.572 258.178 292.916ZM246.426 218.919L246.338 218.649L241.802 221.908L241.882 222.374C242.75 227.687 242.106 231.15 239.578 232.647L239.446 232.723C236.812 234.174 234.351 233.117 232.309 230.08L232.22 229.945L226.135 232.35L226.273 232.606C230.849 241.008 235.972 243.373 242.044 240.243L242.24 240.14C248.338 236.889 249.884 230.173 246.631 219.573L246.426 218.919ZM70.3357 95.5021C70.3272 96.6589 69.3792 97.593 68.2224 97.5845C67.0656 97.5761 66.1315 96.6279 66.1399 95.4712C66.1484 94.3144 67.0964 93.3803 68.2532 93.3888C69.4101 93.3972 70.3442 94.3452 70.3357 95.5021Z" fill="#00160A"/>
</svg>
