<svg width="177" height="182" viewBox="0 0 177 182" fill="none" xmlns="http://www.w3.org/2000/svg">
<rect width="177" height="181.909" fill="white"/>
<path fill-rule="evenodd" clip-rule="evenodd" d="M100.557 150.811C117.65 150.811 132.651 137.744 124.226 119.994C115.802 102.245 147.104 102.819 156.298 90.5517C167.511 75.5915 164.264 12.0881 92.2793 50.8029C80.7482 57.0045 51.1337 44.4228 41.3105 50.6657C29.7475 58.0141 13.4791 73.0612 29.7475 88.4749C37.761 96.0674 9.03076 115.774 21.614 133.426C33.8922 150.65 42.4989 134.23 61.1922 137.744C79.8855 141.257 87.8622 150.811 100.557 150.811Z" fill="#FFD600" fill-opacity="0.57"/>
<path d="M80.717 119.933C80.717 119.933 84.6528 118.03 86.1221 116.706C87.5915 115.383 89.4182 112.094 89.4182 112.094C89.4182 112.094 109.484 126.987 122.567 124.863C125.582 124.373 131.455 122.314 131.83 118.685C132.853 108.778 118.701 106.246 121.792 101.222C123.679 98.1547 129.541 102.719 129.541 102.719L153.853 115.009C153.853 115.009 145.454 136.288 125.071 137.141C99.9974 138.19 80.717 119.933 80.717 119.933Z" fill="white"/>
<path fill-rule="evenodd" clip-rule="evenodd" d="M61.4414 36.6014C61.2133 36.5093 59.9878 34.9672 58.432 34.6865C57.7251 34.559 58.3667 35.4841 57.5886 35.4925C55.2714 35.5173 51.5055 35.0698 50.8079 35.4925C50.2894 35.8056 51.4313 36.8994 50.8079 36.9496C44.9264 37.4234 35.9538 43.4588 34.0071 46.3868C33.3875 47.3187 38.3982 45.7377 37.5998 46.1984C36.7038 46.7154 35.71 50.101 35.1159 52.7158C34.7045 54.5164 34.4455 56.8337 34.3541 59.3546C34.2779 61.531 34.3084 61.8911 34.6131 63.0811C34.9635 64.412 35.2377 64.8034 35.71 64.6156C35.8776 64.5529 35.9538 64.3181 35.9538 63.8796C35.9538 63.5352 36.1366 62.5018 36.3651 61.578L36.7612 59.9183L36.9288 60.6072C37.1421 61.4058 38.3914 63.8797 39.5188 65.6803C39.5796 65.7758 39.8412 65.6543 40.0771 65.0683C40.2921 64.5343 40.2048 63.6812 40.57 62.7668C41.4018 60.6841 43.0352 57.9763 44.9264 55.8087C47.7215 52.6053 48.6489 48.8979 51.269 45.9219C56.1587 40.368 62.2956 36.946 61.4414 36.6014Z" fill="white"/>
<path fill-rule="evenodd" clip-rule="evenodd" d="M37.6694 46.954C36.8851 47.6023 35.7208 52.8602 35.7008 52.9481C35.2894 54.7488 34.8929 61.0017 35.2982 62.1855C35.7035 63.3694 36.8385 59.1018 36.8385 59.1018C36.8385 59.1018 38.5539 63.6798 40.0696 64.9349C40.1343 64.9885 38.2679 59.2711 37.6694 55.9333C36.8794 51.5274 38.1159 46.5851 37.6694 46.954Z" fill="#E7EAEE"/>
<path fill-rule="evenodd" clip-rule="evenodd" d="M66.9052 139.04C68.3678 138.711 70.8355 137.566 71.7804 137.174C72.7253 136.783 75.6044 132.604 76.6404 127.891C77.3869 124.416 77.7678 119.468 77.3412 118.638C77.2782 118.52 77.0477 116.27 77.6612 117.005C79.0248 118.638 80.6434 121.202 85.7508 116.608C87.1418 115.356 88.9856 113.742 88.5001 112.314C87.1418 108.32 81.2538 100.277 80.3562 99.6677C79.283 98.9393 73.8584 99.5583 65.7855 97.1095C56.6303 94.3323 52.8181 86.1545 49.2353 87.219C46.338 88.0799 39.3961 93.3704 37.6539 96.7207C29.429 112.537 39.3961 123.62 41.666 126.804L43.8699 127.782L43.946 129.802L44.0527 131.07C44.2507 133.497 44.3269 133.716 45.3934 134.53C48.0595 136.613 53.3156 138.554 58.0689 139.243C60.278 139.556 65.077 139.447 66.9052 139.04Z" fill="white"/>
<path fill-rule="evenodd" clip-rule="evenodd" d="M44.7367 129.062L44.8434 130.331C45.0414 132.758 45.1176 132.977 46.184 133.791C47.7569 135.019 50.2311 136.199 52.9717 137.101C54.8767 137.728 56.9104 138.221 58.8596 138.504C61.0687 138.817 65.8677 138.707 67.6959 138.3C68.5996 138.099 61.1665 132.097 56.7876 133.791C53.4248 135.091 45.4988 125.171 48.7214 122.58C52.3365 119.673 45.7121 108.206 45.4988 105.716C45.2855 103.227 44.4456 102.632 44.4211 102.72C44.3965 102.807 44.3965 103.105 44.4625 103.822C44.7467 106.916 44.7367 129.062 44.7367 129.062Z" fill="#E7EAEE"/>
<path fill-rule="evenodd" clip-rule="evenodd" d="M43.943 105.006C44.2628 104.942 44.5726 105.157 44.6348 105.485C45.7846 111.556 50.6483 115.667 59.3452 117.816C68.0939 119.978 74.053 119.861 77.1929 117.553C77.458 117.359 77.2604 119.027 77.0662 119.155C75.0183 120.505 68.0556 122.518 59.7465 120.698C49.1226 118.371 44.1343 109.19 43.4766 105.717C43.4143 105.388 43.6231 105.07 43.943 105.006Z" fill="#FFB61D"/>
<path fill-rule="evenodd" clip-rule="evenodd" d="M39.5127 94.0521C39.7955 93.8858 50.3475 106.315 64.8283 109.128C79.3092 111.941 82.8153 110.152 83.3789 106.315C83.4275 105.983 83.7281 105.756 84.0503 105.806C84.3725 105.856 84.5943 106.164 84.5457 106.496C83.8314 111.359 77.1308 112.516 64.6298 110.323C52.2859 108.159 43.8229 103.015 39.2936 94.8795C39.1318 94.5888 39.2298 94.2184 39.5127 94.0521Z" fill="#FFB61D"/>
<path fill-rule="evenodd" clip-rule="evenodd" d="M100.291 93.3628C99.8952 93.2219 99.4687 92.9088 99.1944 92.5487L98.7374 91.9693L100.352 90.3253C102.836 87.8201 104.74 85.2522 106.385 82.199C106.934 81.1813 108.32 77.7836 108.32 77.4548C108.32 77.3452 108.488 76.9068 108.686 76.4527C108.991 75.7951 109.219 75.5446 109.874 75.1688C110.651 74.6991 111.535 74.5425 111.916 74.8087C112.647 75.3097 112.647 76.8911 111.916 79.6155C111.108 82.6061 110.027 84.7512 107.787 87.8357C107.437 88.3055 106.781 89.2293 106.309 89.8712C105.045 91.5935 104.222 92.4234 103.11 93.0654C102.013 93.6917 101.373 93.7699 100.291 93.3628ZM111.23 91.9537L112.327 92.4547C112.554 92.5626 115.064 93.8017 118.078 95.2901C122.937 97.6898 129.109 100.738 129.146 100.738C129.207 100.738 129.493 100.058 129.558 99.2658C129.71 97.5591 130.274 95.2418 130.929 93.629C131.234 92.9088 131.477 92.0086 131.477 91.9303C131.477 91.8946 131.23 91.7919 130.824 91.6238C130.342 91.4238 129.635 91.131 128.857 90.7481C125.018 88.8535 117.507 84.9861 116.578 84.4067C115.663 83.8587 115.481 83.8117 115.481 84.1719C115.481 84.6416 114.551 86.818 113.835 87.9923C113.454 88.6343 112.708 89.7929 112.175 90.5602L111.23 91.9537ZM128.887 97.9193C129.324 98.1796 128.568 98.5613 128.385 98.6239C127.308 98.7179 126.041 98.5098 125.003 97.888C124.46 97.4923 120.185 95.0515 117.349 93.4323C116.052 92.6921 115.057 92.1236 114.856 92.0008C114.216 91.6093 113.607 91.1866 113.5 91.0613C113.18 90.6386 113.485 90.4507 114.384 90.529C114.924 90.576 127.944 97.3572 128.887 97.9193ZM66.9571 138.911C68.1323 138.647 69.9566 137.855 71.1183 137.351L71.1195 137.351C71.403 137.228 71.6469 137.122 71.8323 137.045C72.7772 136.654 75.6563 132.476 76.6923 127.763C77.4388 124.287 77.8196 119.339 77.3931 118.509C77.1359 118.028 78.6639 119.641 79.8018 120.841C80.1468 121.205 80.4559 121.532 80.6686 121.75C87.3111 128.53 97.1986 133.979 107.467 136.531C112.586 137.815 116.227 138.269 121.118 138.269C129.329 138.269 135.804 136.609 141.685 132.961C141.964 132.788 142.226 132.628 142.475 132.477C144.525 131.229 145.747 130.486 149.089 126.62C152.838 122.282 156.173 112.215 157.285 108.739C157.773 107.173 158.961 100.945 158.961 99.391C158.961 97.5511 158.337 96.6823 157.484 95.7898C155.975 94.271 153.934 93.723 152.243 94.3806L151.45 94.6938L151.207 93.8639C150.856 92.6113 150.125 91.6092 148.998 90.8577C147.322 89.7147 147.078 89.6364 145.57 89.6364C144.397 89.6364 144.077 89.699 143.33 90.0591L142.462 90.4662L142.279 89.9026C141.929 88.7439 140.753 87.1287 139.841 86.6614C139.033 86.247 137.633 86.2091 136.657 86.3953C134.524 86.8024 133.001 87.8201 132.376 89.2449C132.193 89.6833 131.965 90.0278 131.873 90.0278C131.797 90.0278 128.796 89.1664 125.216 87.538C124.612 87.2624 124.045 87.004 123.512 86.7613C117.083 83.8326 115.689 83.1978 115.816 82.4026C115.922 81.7293 115.892 81.3535 115.709 80.7742C115.389 79.8034 115.024 79.5372 113.988 79.5372C113.165 79.5372 113.165 79.5372 113.256 79.1145C113.744 76.7189 113.729 75.341 113.211 74.4642C112.86 73.8849 112.449 73.65 111.504 73.5091C110.956 73.4308 110.697 73.4778 110.087 73.8222C109.676 74.0414 109.326 74.198 109.295 74.1667C109.265 74.1354 109.371 73.2742 109.539 72.2565C110.788 64.7252 109.823 58.2362 106.639 51.3469C106.62 51.3066 106.6 51.2619 106.578 51.2129L106.533 51.1138C105.565 48.9779 101.672 40.3897 90.5409 36.0561C90.037 35.86 89.5602 35.6703 89.102 35.4881C85.3102 33.9796 82.7895 32.9769 76.7075 32.9873C69.8905 32.9989 67.5817 33.9893 63.0874 36.1031C62.4628 36.4006 61.9143 36.5728 61.8686 36.5102C61.8229 36.4319 61.5334 36.244 61.244 36.0875C60.9545 35.9309 60.3299 35.5394 59.8728 35.2263C58.5626 34.3182 57.7551 33.9424 57.3438 34.0363C56.8715 34.1616 56.8715 34.5687 57.3438 34.7566C57.5418 34.8349 57.7704 35.101 57.8618 35.3672C58.0598 35.9309 58.2884 35.9935 58.4255 35.5238C58.4864 35.3516 58.5778 35.2263 58.6235 35.2576C58.6409 35.2665 58.6989 35.2944 58.7874 35.337C59.0101 35.4442 59.4258 35.6442 59.8728 35.8683C60.4974 36.1814 61.183 36.5102 61.3658 36.5885C61.701 36.7138 61.5944 36.8077 60.147 37.6845C54.4948 41.0979 49.8939 46.4058 47.3192 52.4496C46.923 53.3578 46.5726 53.9214 46.207 54.2346C45.2777 55.0331 43.4495 57.3035 43.0229 58.196C42.7944 58.6813 42.3068 59.4329 41.926 59.8713C41.5603 60.3097 41.1642 60.8734 41.0271 61.1083C40.9052 61.3588 40.7833 61.531 40.7376 61.4997C40.7072 61.4527 40.7529 60.6855 40.8595 59.793C41.088 57.7106 41.088 57.1626 40.9052 57.1156C40.631 57.0373 40.2349 58.1333 40.0673 59.4955C39.9454 60.3254 39.9149 61.578 39.9911 62.8619L40.0825 64.8974L39.0008 63.0968C38.6282 62.4937 38.2614 61.8906 38.0011 61.4628L38.001 61.4626C37.8357 61.1908 37.7134 60.9899 37.6602 60.9047C37.2641 60.3097 37.0355 59.4173 37.2031 59.1198C37.2945 58.9475 37.2793 58.8692 37.1269 58.8692C36.807 58.8692 36.1824 59.9183 35.771 61.1239C35.573 61.6876 35.3749 62.1573 35.314 62.1573C35.0854 62.1573 35.1921 56.5519 35.4358 54.7513C35.9386 51.197 37.2641 46.8129 37.8582 46.8129C37.9801 46.8129 38.0867 46.7503 38.0867 46.6563C38.0867 46.3745 37.6906 46.4841 37.3707 46.8442C36.6546 47.6428 35.7101 50.101 35.1159 52.7158C34.7046 54.5164 34.4456 56.8338 34.3542 59.3546C34.278 61.531 34.3085 61.8911 34.6132 63.0811C34.9636 64.412 35.2378 64.8035 35.7101 64.6156C35.8777 64.5529 35.9538 64.3181 35.9538 63.8797C35.9538 63.5352 36.1367 62.5018 36.3652 61.578L36.7613 59.9183L36.9289 60.6072C37.1422 61.4058 38.3914 63.8797 39.5188 65.6803C40.2958 66.9016 40.3111 66.9799 40.57 68.8901C40.7072 69.9705 41.1337 72.5983 42.124 76.6406C42.999 80.2122 47.9178 83.7553 49.146 84.6399C49.3079 84.7565 49.4056 84.8269 49.4216 84.8452C49.5739 85.0174 49.7872 85.1113 49.9091 85.0644C50.0462 85.0174 50.1224 85.08 50.1224 85.2523C50.1224 85.4088 50.229 85.6124 50.3509 85.7063C50.5033 85.8159 50.6099 86.2387 50.6404 86.9746C50.7166 88.4464 51.783 91.2648 52.6057 92.1886C53.1389 92.7835 54.2511 93.0341 55.4851 92.8149C56.2926 92.6896 56.5211 92.5957 56.4449 92.4078C56.3992 92.2825 56.6887 92.4391 57.0848 92.7522C61.7162 96.3848 66.4086 98.5612 71.6799 99.5006C73.7214 99.8608 77.1036 100.064 78.947 99.9234H78.9471C80.1244 99.8442 80.4514 99.8223 80.5135 99.94C80.5374 99.9853 80.5222 100.051 80.501 100.143C80.3944 100.581 80.5315 100.847 82.771 104.746C84.5535 107.83 84.7059 108.034 86.6864 110.116C90.8913 114.579 95.477 118.039 100.672 120.717C105.563 123.222 113.371 125.304 120.508 125.962C127.646 126.62 132.772 119.887 132.757 118.164C132.727 115.8 132.407 114.25 131.63 112.747C130.868 111.291 130.365 110.79 128.08 109.224C125.536 107.486 123.966 106.061 122.931 104.542C122.275 103.587 122.032 102.507 122.032 101.928C122.032 101.552 122.504 100.706 123.205 100.534C123.845 100.362 123.966 100.377 124.683 100.738C125.109 100.941 126.221 101.474 127.135 101.928C128.065 102.366 128.964 102.804 129.146 102.898C129.685 103.052 129.913 104.137 130.037 104.724L130.037 104.725L130.037 104.726L130.037 104.726C130.065 104.856 130.087 104.962 130.106 105.028C130.319 105.842 131.329 106.893 131.98 107.251C133.124 107.88 135.941 107.964 136.718 107.103C136.917 106.883 137.573 106.614 137.708 106.695C137.844 106.777 138.333 107.455 138.333 108.003C138.348 108.942 138.821 109.803 139.826 110.665C141.731 112.293 143.208 112.684 144.701 111.964C145.478 111.588 146.115 111.442 146.115 111.442C146.115 111.442 146.75 112.274 146.789 112.559C147.088 114.784 150.292 115.716 151.146 115.81C151.341 115.83 151.722 115.744 152.108 115.657L152.108 115.657C152.625 115.54 153.153 115.421 153.263 115.55C153.481 115.802 149.622 122.361 149.089 123.191C144.016 131.019 134.143 135.811 122.062 136.312C114.216 136.64 104.572 134.386 96.2083 130.283C90.8608 127.637 86.1227 124.396 81.0495 119.855C80.1658 119.073 79.1451 118.18 78.7794 117.867C78.4138 117.569 77.5454 116.552 76.8751 115.612C75.7477 114.047 75.1078 113.483 75.1078 114.015C75.1078 114.25 75.8391 115.691 76.677 117.115C77.0122 117.679 77.2255 118.071 77.1493 118.008C77.0731 117.945 76.8294 119.073 76.6008 120.513C75.8543 125.132 74.6203 129.688 73.371 132.522C72.6854 134.057 71.3709 135.203 70.9748 135.516C69.5122 136.659 67.3227 137.173 64.291 137.486C60.4517 137.877 54.7995 137.001 50.488 135.341C49.3454 134.902 46.4051 133.634 46.207 133.493C46.1951 133.481 46.1276 133.031 46.0334 132.402C46.0069 132.225 45.9782 132.033 45.948 131.834C45.3995 127.966 44.6378 113.076 44.6378 106.186C44.6378 103.337 44.6073 102.71 44.4245 102.71C44.0436 102.71 43.8913 103.086 43.7237 104.433C43.3428 107.502 43.419 123.519 43.8303 126.886L43.9217 127.653L43.4038 127.355C42.6115 126.886 39.595 123.739 38.5438 122.282C37.6538 121.038 37.1249 119.443 36.7292 118.25L36.7291 118.25L36.729 118.25C36.637 117.973 36.5523 117.717 36.4718 117.493C34.2628 111.198 35.0397 104.135 38.0867 97.7783C40.6767 92.3608 43.8608 89.3545 48.5227 87.8984C49.2845 87.6635 49.9548 87.413 50.031 87.3504C50.3205 87.0685 48.4618 87.2094 47.441 87.5383C44.1198 88.5873 40.6462 91.4527 38.2848 95.1165C34.9636 100.252 33.4705 107.83 34.5217 114.297C34.7655 115.831 35.7558 119.151 36.03 119.386C36.0543 119.411 36.1796 119.681 36.3691 120.089C36.8931 121.219 37.9079 123.407 38.6352 124.396C39.5188 125.633 42.185 128.326 43.2971 129.156L43.9979 129.673L44.1046 130.941C44.3026 133.368 44.3788 133.587 45.4453 134.401C48.1114 136.484 53.3675 138.425 58.1208 139.114C60.3299 139.427 65.1289 139.318 66.9571 138.911ZM118.451 124.208C109.6 123.41 98.9048 119.072 91.1654 112.371C87.9051 109.537 83.6698 104.026 81.9939 100.973C81.6435 100.346 81.3845 100.049 81.0798 99.9704C80.7599 99.8765 81.0341 99.7825 82.3443 99.5633C87.8746 98.5926 93.2526 96.2283 97.5946 92.8619L98.2344 92.3765L98.4173 92.8306C98.8286 93.8483 100.413 94.8817 101.586 94.8817C102.058 94.8817 103.643 94.1458 104.603 93.4725L105.258 93.0184L105.791 93.5665C106.279 94.0675 106.37 94.0988 107.284 94.0988C108.335 94.0988 109.6 93.6134 110.301 92.9245L110.681 92.5644L111.763 93.3003C112.342 93.723 113.957 94.6468 115.343 95.3827C117.415 96.4788 119.609 97.747 121.696 99.0623L122.032 99.2815L121.712 99.7199C121.376 100.19 120.752 101.082 120.752 102.444C120.752 103.979 122.305 106.736 125.277 108.629C127.611 110.117 131.63 113.042 131.477 117.319C131.459 117.836 130.898 119.12 130.152 120.278C129.664 121.014 128.308 122.11 127.074 122.752C124.972 123.833 121.27 124.459 118.451 124.208ZM37.2183 53.9212C37.6296 54.0151 37.9039 54.156 37.8429 54.2186C37.6449 54.4221 36.5937 54.3282 36.3499 54.0778C35.969 53.702 36.0604 53.4359 36.5937 53.3263C36.8679 53.2794 37.2792 53.0446 37.5078 52.8098C37.7363 52.5749 37.9343 52.4654 37.9343 52.5436C37.9343 52.7471 37.1726 53.4672 36.7917 53.6238C36.548 53.7334 36.6241 53.7803 37.2183 53.9212ZM43.2819 54.1717C43.7237 53.9213 43.6323 53.7491 43.1143 53.8273C42.5963 53.9056 42.5658 53.843 42.901 53.3107C43.0381 53.1072 43.1143 52.8098 43.0838 52.6532C43.0381 52.4497 42.9315 52.5437 42.6877 53.0446C42.5049 53.4047 42.2459 53.7021 42.124 53.7021C41.7431 53.7021 41.7126 54.0152 42.0783 54.1561C42.5506 54.3596 42.9162 54.3596 43.2819 54.1717ZM38.0106 45.6223C37.6449 45.6849 36.5023 46.1546 35.4968 46.6713C34.476 47.1724 33.6076 47.5951 33.5467 47.5795C31.9927 47.4072 34.1561 44.7455 38.0867 42.021C41.8498 39.4062 44.394 38.0284 46.7555 37.3238C48.2332 36.8854 49.8939 36.8227 50.3661 37.1828C50.6251 37.3864 50.5337 37.4021 49.4063 37.4177C46.9687 37.4177 44.1503 38.7016 39.5645 41.8488C37.1879 43.4772 34.4303 45.8102 34.4303 46.186C34.4303 46.2642 34.8721 46.1077 35.4206 45.8571C36.5937 45.3091 37.7973 45.0273 38.3305 45.1526C38.8942 45.3091 38.7723 45.5127 38.0106 45.6223ZM43.9065 46.9686C45.3386 46.6712 45.3996 46.6555 45.3996 46.499C45.3996 46.4207 44.8511 46.3425 44.1655 46.3111L42.9315 46.2642L44.0741 44.9336C44.6988 44.1978 45.43 43.462 45.689 43.2898C46.2527 42.9141 46.2832 42.648 45.8262 42.4915L45.4757 42.3819L45.8566 42.241C46.0699 42.1627 46.466 42.1314 46.7403 42.1784C47.1516 42.241 47.243 42.2097 47.1973 41.9905C47.1516 41.7713 46.984 41.7244 46.2375 41.74C44.0589 41.7713 43.1295 42.3662 44.8359 42.648C45.3082 42.7263 45.7043 42.8515 45.7043 42.9298C45.7043 42.9924 45.6281 43.055 45.5367 43.055C45.2472 43.055 42.7944 45.6067 42.4897 46.2329C42.0174 47.1565 42.2764 47.2974 43.9065 46.9686ZM53.9615 40.8941C53.5197 40.9254 53.413 41.0037 53.4435 41.2228L53.4482 41.2547C53.4654 41.3713 53.4753 41.4379 53.4494 41.4576C53.4148 41.484 53.3166 41.4267 53.0874 41.2931L53.0474 41.2698C52.7579 41.1133 52.7275 41.035 52.895 40.9097C53.0017 40.8158 53.2912 40.6749 53.5197 40.628L53.9463 40.5184L53.6263 40.174C53.4587 39.9705 53.3673 39.7826 53.413 39.72C53.5349 39.5948 55.028 39.767 55.2412 39.9392C55.3327 40.0174 55.4698 40.0018 55.5612 39.9079C55.7745 39.6887 56.0639 39.8609 56.0639 40.2053C56.0639 40.3932 56.0182 40.4088 55.8811 40.2679C55.7592 40.1427 55.6526 40.1427 55.5155 40.2523C55.3936 40.3618 55.3022 40.3618 55.226 40.2366C55.1803 40.1583 54.8908 40.0801 54.5861 40.0801C54.3064 40.0801 54.1734 40.0801 54.1454 40.1343C54.12 40.1835 54.1808 40.2772 54.2967 40.4558C54.5397 40.8459 54.5253 40.8471 53.9667 40.8937L53.9615 40.8941ZM51.6459 36.7287C51.6459 36.5252 51.4631 36.1651 51.2346 35.9303L50.808 35.492L53.0932 35.5859C54.3577 35.6485 55.7898 35.7894 56.2926 35.9303C56.7953 36.0555 57.3743 36.1495 57.5875 36.1495C57.9075 36.1495 57.8465 36.0868 57.2524 35.7581C56.2164 35.2102 54.891 34.9441 52.3467 34.7562C49.2997 34.537 47.761 34.8345 48.0504 35.6172C48.0961 35.7738 48.3399 35.852 48.7055 35.852C49.4521 35.852 50.6709 36.306 51.0822 36.7287C51.524 37.1827 51.6459 37.1827 51.6459 36.7287ZM44.2113 78.1908C45.4453 79.8191 47.0754 81.6667 47.8372 82.293C48.2942 82.6688 48.6904 82.982 48.7208 82.982C48.7361 82.982 48.4009 82.2617 47.9743 81.3849C46.2528 77.8619 45.2472 74.3546 44.775 70.315C44.6683 69.4225 44.5007 68.6709 44.3179 68.3578C43.9523 67.7315 43.9523 66.9173 44.3331 66.1501C44.5312 65.743 44.6378 65.2263 44.6378 64.6626V63.8014L43.9066 64.5843C43.1905 65.3515 42.5049 65.6647 42.5049 65.1949C42.5049 64.8505 43.6323 63.1908 44.2265 62.6741C44.6988 62.267 44.7597 62.1261 44.9121 60.9048C45.0187 60.1688 45.2625 58.8693 45.4605 58.0081C45.6738 57.1469 45.7957 56.411 45.7652 56.3797C45.6586 56.2701 42.0784 60.496 41.5908 61.8442C41.4838 62.1402 41.1947 62.6584 40.9662 62.9716L40.5701 63.4943C40.5701 63.4943 40.6931 64.2262 40.8291 65.146C40.9664 66.0754 41.0309 66.7142 41.0883 67.2833C41.1651 68.0445 41.2293 68.6807 41.4385 69.72C41.6823 71.0039 41.926 72.1156 41.987 72.1939C42.0327 72.2878 42.2307 73.0081 42.4288 73.8066C42.8553 75.5759 43.5714 77.3296 44.2113 78.1908ZM106.035 93.0027L105.715 92.6739C105.715 92.6739 111.025 85.7402 111.976 83.1854C112.703 81.2357 113.13 80.6828 113.707 80.6828C114.029 80.6828 114.292 80.7585 114.414 80.9464C114.627 81.2752 114.833 81.6823 114.559 83.0758C114.102 85.3305 113.401 86.8179 111.298 90.0277C110.811 90.7636 110.186 91.5778 109.912 91.8597C109.272 92.4703 107.833 93.0966 106.995 93.2375C106.461 93.3158 106.309 93.2845 106.035 93.0027Z" fill="#00160A"/>
<path d="M148.221 108.32C150.116 103.012 149.829 101.881 149.5 101.771C149.5 101.771 148.777 102.194 148.457 103.086C147.862 104.761 145.829 109.146 145.067 109.928C144.168 110.852 144.168 110.852 143.254 110.852C142.34 110.852 139.704 109.437 139.345 108.043C138.77 105.812 141.243 98.06 141.304 97.6216L140.893 97.3241C140.618 97.5903 137.051 108.707 132.361 105.81C131.824 105.479 130.685 103.916 130.594 103.086C130.086 100.675 132.415 92.2432 132.811 90.5113C133.166 88.9612 135.012 87.5225 137.282 87.5225C140.771 87.5225 140.302 90.6567 141.865 91.7611C142.557 92.2506 143.695 91.3632 144.046 91.2959C146.012 90.9201 146.765 91.3577 148.205 92.5329C149.317 93.44 150.14 95.2354 151.046 95.8679C151.549 96.2193 152.083 95.7389 152.258 95.6487C152.975 95.2789 154.513 95.5548 154.939 95.8679C155.565 96.1482 157.097 97.6621 157.339 98.5427C158.436 102.533 154.972 111.381 153.664 113.041C151.498 115.788 146.325 113.627 148.221 108.32Z" fill="white"/>
<path fill-rule="evenodd" clip-rule="evenodd" d="M60.6347 93.7771C64.8091 96.4858 69.1134 98.2551 74.0191 98.7405C77.8888 99.1163 83.1063 98.5996 86.8541 97.347C90.0078 96.298 94.2736 93.3918 97.1225 90.9336C102.653 86.1737 106.142 78.7387 107.665 70.8473C107.878 69.7356 108.204 66.9412 108.188 64.1698C108.188 60.9443 106.807 52.1301 102.622 47.0478C93.9909 36.5656 79.8027 31.8437 67.8786 35.8783C63.5772 37.3337 58.9973 39.9706 55.539 43.4152C51.1818 47.7837 47.9672 53.7336 46.6875 59.8087C45.3468 66.2283 47.0908 73.9005 50.1225 80.1949C52.5449 85.2053 56.5365 91.0996 60.6347 93.7771ZM101.312 74.8547C98.448 83.7012 90.9829 90.3087 81.5981 92.3129C80.166 92.6104 79.1757 92.72 77.1647 92.7513C75.7478 92.7983 74.331 92.7826 74.0415 92.7513C67.4752 91.9371 62.4781 89.4476 57.8772 84.719C55.8661 82.6365 55.013 81.5092 53.7637 79.2858C51.7984 75.7628 50.7472 72.1616 50.4272 67.8245C49.3303 52.9654 59.6749 40.5803 74.2396 39.2964C79.9527 38.7953 86.2905 40.5959 91.1047 44.1032C92.8872 45.4028 96.1171 48.6909 97.1226 50.2254C97.5339 50.836 101.525 56.8328 102.226 60.2775C103.125 64.7556 102.775 70.361 101.312 74.8547Z" fill="white"/>
<path fill-rule="evenodd" clip-rule="evenodd" d="M108.194 64.1697C108.194 74.6792 103.357 86.169 97.1141 91.0759C94.1358 93.417 90.2436 96.2518 86.8541 97.3469C81.8868 98.9519 74.019 98.7405 74.019 98.7405C74.019 98.7405 82.0458 97.6377 85.0204 96.4074C93.5502 92.8794 98.2065 87.4638 101.082 82.2676C106.757 72.0105 108.194 63.9144 108.194 64.1697Z" fill="#E7EAEE"/>
<path fill-rule="evenodd" clip-rule="evenodd" d="M74.1937 90.8734C70.126 90.341 66.0887 88.8535 62.8284 86.6458C60.8936 85.3463 57.9685 82.293 56.5516 80.1166C54.5253 76.9851 53.1847 73.6344 52.5296 70.0331C52.0573 67.4183 52.0725 63.3943 52.5448 61.0614C53.0323 58.6814 53.6569 56.8651 54.7691 54.5635C56.0641 51.9017 57.4352 49.9445 59.492 47.8307C62.996 44.2295 67.0638 41.9435 71.9085 40.8474C73.4777 40.503 79.1604 40.2211 79.3584 40.4873C79.4041 40.5656 79.7088 40.7692 80.0288 40.9414C80.3487 41.1293 81.2019 41.7869 81.9027 42.4289C82.9539 43.3683 83.4262 43.9633 84.3403 45.4351C84.9649 46.4372 85.4677 47.3453 85.4677 47.4236C85.4677 47.5959 85.9552 47.909 86.2294 47.909C86.6103 47.909 86.8693 46.7347 86.9455 44.6679C86.9912 43.5249 87.0826 42.5854 87.1435 42.5854C87.3568 42.5854 89.703 43.9163 90.7999 44.6679C92.9481 46.1397 95.0962 48.2065 96.6806 50.3672C97.3967 51.338 97.5033 51.5885 97.5033 52.1835C97.5033 52.7315 97.6557 53.1543 98.128 53.9998C99.3163 56.1292 100.246 58.8067 100.809 61.766C101.175 63.7545 101.175 67.5123 100.794 69.5947C99.7581 75.3254 96.6806 81.0248 92.6738 84.6417C89.2764 87.6949 85.6657 89.5738 81.3999 90.4976C79.9373 90.8264 75.5497 91.0456 74.1937 90.8734ZM63.3008 80.1637C63.4379 80.0071 63.5293 79.7723 63.4836 79.6627C63.4699 79.6298 63.2791 79.5376 62.9999 79.4027C62.349 79.0882 61.2173 78.5414 60.7269 77.9717C58.7768 75.6856 58.0608 73.979 57.619 70.456C57.1924 67.027 57.5508 64.7089 58.3198 60.9832C58.6949 59.1657 59.692 57.6645 60.3124 56.7305C60.7342 56.0954 60.9818 55.7226 60.7413 55.6909C60.1471 55.597 60.0557 55.6439 59.4311 56.2546C58.0904 57.5698 57.481 58.6189 56.8411 60.6387C55.8509 63.8015 55.6595 72.349 57.619 76.2023C59.5785 80.0556 62.9504 80.5708 63.3008 80.1637ZM84.9649 67.0112C84.7062 69.4436 83.609 72.9611 82.3293 74.4955C81.7351 75.2158 79.5541 76.4527 77.713 76.2022C75.9348 75.9602 74.5441 75.1062 73.3558 73.2742C72.3351 71.6928 71.8079 69.7733 71.4514 67.3557C70.8359 63.181 73.5234 58.3213 74.6813 57.1156C75.8544 55.8787 76.6923 55.4403 77.7587 55.4246C78.7947 55.4246 79.4651 55.6595 80.5163 56.4267C82.4359 57.8046 85.4677 62.2847 84.9649 67.0112ZM64.4281 54.0619C64.7328 53.7019 64.7785 53.5297 64.6871 52.8565C64.6261 52.2303 64.5043 51.9798 64.1843 51.7137C63.6206 51.2441 62.9198 51.2441 62.4018 51.745C62.0362 52.1051 61.9905 52.2303 62.0362 53.0913C62.0819 54.015 62.1124 54.0776 62.6151 54.3594C63.2855 54.7351 63.9406 54.6255 64.4281 54.0619ZM73.9347 44.4017C71.1924 46.4215 70.0041 47.2513 68.7701 48.0342C67.795 48.6605 67.4903 48.6762 67.4903 48.1125C67.4903 47.815 67.7036 47.4862 68.2521 46.9695L69.0138 46.2492L67.536 46.0457C65.8754 45.8265 64.2605 45.3568 63.9101 44.9966C63.3312 44.386 63.8339 44.2451 65.4793 44.5582C66.2106 44.6835 67.6274 44.8401 68.6329 44.8714L70.4611 44.9497L71.7866 43.9632C74.6965 41.8025 77.713 40.5812 79.1603 40.957C80.0592 41.1762 79.9526 41.4267 78.9318 41.552C77.7587 41.6929 77.0427 42.1 73.9347 44.4017Z" fill="white"/>
<path d="M77.8501 74.0571C77.8501 73.9788 77.9415 73.9005 78.0634 73.9005C78.1853 73.9005 78.3376 73.9788 78.3833 74.0571C78.429 74.151 78.3376 74.2136 78.17 74.2136C77.9872 74.2136 77.8501 74.151 77.8501 74.0571Z" fill="white"/>
<path d="M78.7642 73.916C78.7642 73.7438 79.145 73.5873 79.5716 73.5873C79.9068 73.6029 79.9068 73.6029 79.6173 73.8221C79.2822 74.0882 78.7642 74.1352 78.7642 73.916Z" fill="white"/>
<path d="M76.4028 73.5089C76.357 73.3837 76.2961 73.1645 76.2504 73.0393C76.2047 72.8827 76.2809 72.8044 76.4789 72.8044C76.6465 72.8044 76.7836 72.8984 76.7836 73.0236C76.7836 73.1488 76.8293 73.3523 76.875 73.4932C76.936 73.6654 76.8903 73.7437 76.7227 73.7437C76.5856 73.7437 76.4332 73.6341 76.4028 73.5089Z" fill="white"/>
<path d="M77.2102 73.1174C77.1341 72.6478 77.3016 72.4912 77.8501 72.4912C78.0177 72.4912 78.1548 72.6478 78.2157 72.9139C78.3376 73.3679 78.1396 73.587 77.6063 73.587C77.3626 73.587 77.2559 73.4774 77.2102 73.1174Z" fill="white"/>
<path d="M75.6563 73.1959C75.3668 72.9611 75.3668 72.9611 75.6868 72.9611C75.8848 72.9611 76.0219 73.055 76.0219 73.1959C76.0219 73.4776 76.0219 73.4776 75.6563 73.1959Z" fill="white"/>
<path d="M78.7185 73.1799C78.5205 72.9764 78.6119 72.3659 78.8556 72.272C79.2975 72.0998 79.4955 72.1781 79.5869 72.5851C79.6479 72.8199 79.6784 73.0234 79.6479 73.0391C79.526 73.18 78.8099 73.2739 78.7185 73.1799Z" fill="white"/>
<path d="M80.0743 72.8514C80.0286 72.8044 79.9829 72.6009 79.9829 72.413C79.9829 72.1469 80.1048 72.0373 80.4704 71.959C80.7904 71.8964 80.9884 71.9277 81.0798 72.053C81.2322 72.3034 81.2322 72.6165 81.0951 72.6948C80.8208 72.8514 80.181 72.9453 80.0743 72.8514Z" fill="white"/>
<path d="M74.9556 72.3659C74.9556 72.1781 75.0927 72.0215 75.2907 71.9746C75.6869 71.865 75.6716 71.8493 75.7478 72.2563C75.7783 72.4912 75.7021 72.5851 75.3822 72.6164C75.047 72.6634 74.9556 72.6007 74.9556 72.3659Z" fill="white"/>
<path d="M76.1134 72.3815C75.9001 72.1467 76.0372 71.7084 76.3266 71.7084C76.5247 71.7084 76.6313 71.818 76.6313 72.0058C76.6313 72.3032 76.2809 72.5537 76.1134 72.3815Z" fill="white"/>
<path d="M77.0274 71.912C76.9055 71.6146 77.1645 71.3954 77.6673 71.3954C77.8958 71.3954 78.0024 71.4893 78.0024 71.6928C78.0024 71.865 77.8653 72.0216 77.6673 72.0842C77.1645 72.2094 77.134 72.2094 77.0274 71.912Z" fill="white"/>
<path d="M81.4305 71.8649C81.4762 71.7866 81.5524 71.7084 81.5981 71.7084C81.6438 71.7084 81.6286 71.7866 81.5829 71.8649C81.5372 71.9588 81.461 72.0215 81.4153 72.0215C81.3696 72.0215 81.3848 71.9588 81.4305 71.8649Z" fill="white"/>
<path d="M78.3984 71.5988C78.2765 71.2857 78.4288 71.1292 78.9164 71.0509C79.1906 71.0196 79.3125 71.0822 79.3429 71.3014C79.4496 71.8179 78.5812 72.0997 78.3984 71.5988Z" fill="white"/>
<path d="M74.7422 71.3325C74.6051 70.8159 74.6355 70.7689 75.0316 70.7689C75.2449 70.7689 75.4125 70.8315 75.4125 70.9098C75.4125 70.9881 75.4582 71.1603 75.5039 71.2855C75.5496 71.4421 75.4582 71.536 75.1992 71.583C74.9098 71.6456 74.8031 71.583 74.7422 71.3325Z" fill="white"/>
<path d="M79.8306 71.1602C79.8306 70.8785 79.9372 70.7532 80.2267 70.675C80.6533 70.5654 80.897 70.7845 80.897 71.2855C80.897 71.489 80.7751 71.5516 80.3638 71.5516C79.8915 71.5516 79.8306 71.5046 79.8306 71.1602Z" fill="white"/>
<path d="M74.2851 71.1604C74.2394 71.0351 74.2699 70.9255 74.3461 70.9255C74.4375 70.9255 74.4985 71.0351 74.4985 71.1604C74.4985 71.2856 74.468 71.3952 74.4375 71.3952C74.407 71.3952 74.3461 71.2856 74.2851 71.1604Z" fill="white"/>
<path d="M75.8237 71.2856C75.6104 71.0821 75.7323 70.6437 76.0065 70.5655C76.1741 70.5185 76.3417 70.5342 76.3874 70.5811C76.5702 70.7533 76.4636 71.2073 76.2351 71.3012C75.9456 71.4108 75.9456 71.4108 75.8237 71.2856Z" fill="white"/>
<path d="M81.2628 71.1758C81.0952 70.7218 81.2781 70.3774 81.7046 70.3304C82.0246 70.2835 82.116 70.3461 82.116 70.5966C82.116 71.1132 81.9484 71.395 81.6437 71.395C81.4761 71.395 81.3085 71.301 81.2628 71.1758Z" fill="white"/>
<path d="M76.8903 70.9723C76.7075 70.8001 76.7684 70.487 77.0274 70.3931C77.3169 70.2835 77.9263 70.5966 77.7587 70.7688C77.5454 70.9567 76.9969 71.0976 76.8903 70.9723Z" fill="white"/>
<path d="M78.2158 70.5808C78.0786 70.3617 78.5662 69.986 78.9623 69.986C79.1451 69.986 79.2213 70.0799 79.1908 70.2521C79.1299 70.5652 78.3529 70.8156 78.2158 70.5808Z" fill="white"/>
<path d="M74.0414 70.4715C74.0414 70.3932 73.9957 70.221 73.95 70.0801C73.9043 69.9392 73.9195 69.8296 74.0109 69.8296C74.209 69.8296 74.3613 70.4245 74.1785 70.5497C74.1023 70.5967 74.0414 70.5654 74.0414 70.4715Z" fill="white"/>
<path d="M74.4526 70.1112C74.3612 69.7668 74.544 69.5164 74.8944 69.5164C75.0924 69.5164 75.2905 70.1269 75.1686 70.3304C75.001 70.5965 74.5287 70.44 74.4526 70.1112Z" fill="white"/>
<path d="M75.5194 70.1895C75.2908 69.9547 75.428 69.3911 75.7327 69.3128C75.9612 69.2502 76.0831 69.3285 76.2049 69.6103C76.2963 69.8138 76.3421 70.0173 76.3116 70.0486C76.1592 70.1895 75.6108 70.2991 75.5194 70.1895Z" fill="white"/>
<path d="M79.6327 70.1894C79.4347 69.9859 79.5261 69.8607 79.9831 69.6885C80.364 69.5632 80.4707 69.5789 80.5468 69.7667C80.684 70.1425 79.9222 70.5025 79.6327 70.1894Z" fill="white"/>
<path d="M80.9732 69.8294C80.8209 69.5789 81.0342 69.3597 81.4303 69.3597C81.9026 69.3597 82.0397 69.7668 81.6131 69.892C81.1561 70.0172 81.0799 70.0016 80.9732 69.8294Z" fill="white"/>
<path d="M82.2683 69.4538C82.2683 69.2189 82.5425 68.9685 82.6644 69.0937C82.7711 69.2033 82.5578 69.6729 82.4054 69.6729C82.3293 69.6729 82.2683 69.579 82.2683 69.4538Z" fill="white"/>
<path d="M73.8434 69.2502C73.7824 69.2032 73.7367 68.9997 73.752 68.8275C73.752 68.5301 73.7672 68.5301 73.9043 68.8745C74.0567 69.2502 74.0262 69.438 73.8434 69.2502Z" fill="white"/>
<path d="M74.1329 69.0152C73.9958 68.4673 74.011 68.4203 74.4071 68.4203C74.8489 68.4203 75.1231 68.9995 74.788 69.2187C74.4376 69.4378 74.2395 69.3752 74.1329 69.0152Z" fill="white"/>
<path d="M79.3738 69.3283C79.3738 69.2813 79.45 69.0308 79.5414 68.7491C79.7547 68.1229 80.2269 68.0916 80.3336 68.7021C80.3793 68.9369 80.3945 69.1404 80.3793 69.1561C80.3031 69.25 79.3738 69.3909 79.3738 69.3283Z" fill="white"/>
<path d="M75.2146 68.9369C75.1536 68.89 75.1079 68.7021 75.1079 68.5299C75.1079 68.2794 75.1536 68.2638 75.3364 68.4203C75.4583 68.5299 75.565 68.7178 75.565 68.8274C75.565 69.0622 75.3821 69.1248 75.2146 68.9369Z" fill="white"/>
<path d="M80.699 68.6239C80.6075 68.1386 80.8056 67.9194 81.2779 67.982C81.5064 68.0133 81.5826 68.1542 81.5826 68.4986C81.5826 68.89 81.5217 68.9839 81.1865 69.0152C80.8513 69.0622 80.7751 68.9839 80.699 68.6239Z" fill="white"/>
<path d="M82.1919 68.6865C81.9939 68.0603 82.0548 67.8724 82.4662 67.8255C82.8318 67.7785 82.8775 67.8255 82.8775 68.2325C82.8775 68.5769 82.7861 68.7178 82.5576 68.7804C82.39 68.8274 82.2224 68.7804 82.1919 68.6865Z" fill="white"/>
<path d="M73.615 67.794C73.615 67.4966 73.6455 67.3713 73.6912 67.5279C73.7216 67.6688 73.7216 67.9192 73.6912 68.0758C73.6455 68.2167 73.615 68.0914 73.615 67.794Z" fill="white"/>
<path d="M73.9956 67.9975C73.7976 67.8096 73.889 67.1991 74.1327 67.1052C74.4832 66.9643 74.6507 67.1365 74.6507 67.6531C74.6507 67.9818 74.5746 68.1071 74.3765 68.1071C74.2242 68.1071 74.0413 68.0601 73.9956 67.9975Z" fill="white"/>
<path d="M74.9096 67.5747C74.8487 67.3399 74.8182 67.0894 74.8792 67.0424C75.0315 66.8859 75.1229 67.1364 75.0772 67.5904L75.0315 68.0287L74.9096 67.5747Z" fill="white"/>
<path d="M79.8306 67.4652C79.8306 67.293 79.9067 67.1991 79.9829 67.2461C80.0743 67.293 80.1353 67.4496 80.1353 67.5748C80.1353 67.7 80.0743 67.794 79.9829 67.794C79.9067 67.794 79.8306 67.6531 79.8306 67.4652Z" fill="white"/>
<path d="M80.5161 67.6686C80.3028 67.4338 80.4704 67.0112 80.8208 66.9172C81.2626 66.8077 81.2779 66.8077 81.415 67.2616C81.5064 67.5434 81.4455 67.606 81.0493 67.6686C80.8056 67.7156 80.5618 67.6999 80.5161 67.6686Z" fill="white"/>
<path d="M81.9179 67.3708C81.7503 67.2143 81.796 66.6977 81.9636 66.6977C82.055 66.6977 82.1159 66.6351 82.1159 66.5412C82.1159 66.4629 82.0245 66.3846 81.9026 66.3846C81.6436 66.3846 81.4303 65.6176 81.6436 65.3984C81.9179 65.1166 82.2226 65.414 82.4054 66.1811C82.512 66.5881 82.6187 67.0577 82.6644 67.2143C82.7253 67.4178 82.6644 67.4804 82.3749 67.4804C82.1769 67.4804 81.9636 67.4335 81.9179 67.3708Z" fill="white"/>
<path d="M82.7405 66.5407C82.6339 66.0711 82.3597 65.1318 82.1616 64.443C81.8569 63.4411 81.8264 63.1907 81.994 63.0811C82.1007 63.0028 82.2378 62.9402 82.2835 62.9402C82.4511 62.9402 83.0605 66.1493 82.9995 66.7755L82.9538 67.4017L82.7405 66.5407Z" fill="white"/>
<path d="M73.4624 66.4631C73.4624 66.2126 73.4929 66.1187 73.5386 66.2753C73.5691 66.4162 73.5691 66.6353 73.5386 66.7449C73.4929 66.8388 73.4624 66.7293 73.4624 66.4631Z" fill="white"/>
<path d="M73.7671 66.4317C73.828 65.8838 74.2699 65.7586 74.3917 66.2595C74.4984 66.6665 74.5288 66.6196 74.0718 66.7761C73.7519 66.87 73.7214 66.8387 73.7671 66.4317Z" fill="white"/>
<path d="M80.1964 66.2908C80.0745 65.8368 80.3335 65.5707 80.8211 65.6333C81.1867 65.6803 81.3238 66.3535 81.0191 66.557C80.6382 66.8074 80.2878 66.6979 80.1964 66.2908Z" fill="white"/>
<path d="M74.6506 66.1656C74.6506 65.8994 74.7268 65.7585 74.8944 65.7585C75.0467 65.7585 75.1077 65.8681 75.0772 66.103C75.001 66.6039 74.6506 66.6509 74.6506 66.1656Z" fill="white"/>
<path d="M73.2947 65.5079C73.2947 65.3357 73.3404 65.2888 73.3861 65.414C73.4318 65.5236 73.4166 65.6645 73.3709 65.7115C73.3252 65.7741 73.2795 65.6802 73.2947 65.5079Z" fill="white"/>
<path d="M73.5842 65.4611C73.5842 65.2263 73.6756 65.1323 73.9042 65.1323C74.1174 65.1323 74.1936 65.2106 74.1631 65.3985C74.087 65.8055 73.5842 65.8525 73.5842 65.4611Z" fill="white"/>
<path d="M74.4222 65.3202C74.3155 65.0384 74.3155 65.0384 74.7726 64.9132C75.0468 64.8192 75.1078 64.8662 75.1078 65.101C75.1078 65.4767 74.5593 65.6645 74.4222 65.3202Z" fill="white"/>
<path d="M79.9373 65.101C79.8306 64.7096 80.0287 64.5061 80.5619 64.5061C80.8209 64.5061 80.8971 64.6 80.8971 64.8975C80.8971 65.1323 80.8057 65.2888 80.6838 65.2888C80.5619 65.2888 80.3638 65.3358 80.242 65.3827C80.1048 65.4297 79.9982 65.3358 79.9373 65.101Z" fill="white"/>
<path d="M81.2628 64.7408C81.141 64.4277 81.3238 64.1929 81.6742 64.1929C81.8875 64.1929 81.9637 64.3025 81.9637 64.5842C81.9637 64.866 81.8875 64.9756 81.659 64.9756C81.4914 64.9756 81.3085 64.866 81.2628 64.7408Z" fill="white"/>
<path d="M73.4321 64.5216C73.4321 64.1928 73.7825 63.8171 73.9349 63.9893C73.9958 64.0363 74.0415 64.2554 74.0415 64.4589C74.0415 64.7094 73.9501 64.819 73.7368 64.819C73.5388 64.819 73.4321 64.7094 73.4321 64.5216Z" fill="white"/>
<path d="M74.2701 64.3336C74.1482 63.9422 74.2853 63.77 74.8033 63.6917C75.2756 63.6291 75.4279 64.1457 75.0166 64.4588C74.6205 64.7563 74.3767 64.7093 74.2701 64.3336Z" fill="white"/>
<path d="M79.785 64.2396C79.6784 64.1457 79.6326 63.5665 79.7241 63.5665C79.7393 63.5665 79.9678 63.5039 80.2421 63.4256C80.6991 63.2847 80.7296 63.3004 80.7143 63.723C80.6991 64.0361 80.6077 64.1927 80.3792 64.2553C79.9678 64.3649 79.9069 64.3649 79.785 64.2396Z" fill="white"/>
<path d="M79.2214 63.8798C79.2214 63.7702 79.2671 63.7232 79.3281 63.7702C79.3738 63.8328 79.3738 63.9268 79.3281 63.9894C79.2671 64.0363 79.2214 63.9894 79.2214 63.8798Z" fill="white"/>
<path d="M80.9277 63.6291C80.9734 63.3629 81.4457 62.9716 81.5523 63.0968C81.598 63.1438 81.6742 63.3316 81.7199 63.5351C81.8265 63.8482 81.7808 63.8796 81.3543 63.8796C80.9886 63.8796 80.882 63.8169 80.9277 63.6291Z" fill="white"/>
<path d="M73.5842 63.6135C73.5842 63.5353 73.6604 63.3787 73.7366 63.2535C73.8584 63.0656 73.8889 63.0813 73.8889 63.3787C73.8889 63.5666 73.828 63.7231 73.7366 63.7231C73.6604 63.7231 73.5842 63.6762 73.5842 63.6135Z" fill="white"/>
<path d="M74.0415 63.2689C74.0415 62.8306 74.3614 62.6897 74.6052 63.0184C74.7575 63.2533 74.7575 63.3315 74.6052 63.4411C74.2853 63.6446 74.0415 63.582 74.0415 63.2689Z" fill="white"/>
<path d="M78.6727 63.0653C78.3985 62.7522 78.3985 62.7365 78.6575 62.8305C78.8098 62.8931 79.0079 62.9401 79.084 62.9401C79.1602 62.9401 79.2212 63.0496 79.2212 63.1749C79.2212 63.5036 79.0079 63.4723 78.6727 63.0653Z" fill="white"/>
<path d="M75.3974 63.0494C74.7423 62.5328 74.6509 61.3744 75.2603 61.3744C75.6717 61.3744 76.0526 62.0319 75.9916 62.6424C75.9459 63.206 75.7631 63.3312 75.3974 63.0494Z" fill="white"/>
<path d="M79.5716 63.1437C79.6325 63.0968 79.724 63.0968 79.7849 63.1437C79.8306 63.2064 79.7849 63.2533 79.6783 63.2533C79.5716 63.2533 79.5259 63.2064 79.5716 63.1437Z" fill="white"/>
<path d="M81.872 62.533C81.9177 62.3921 81.9634 62.2512 81.9634 62.2198C81.9634 62.1885 82.0396 62.1572 82.1157 62.1572C82.2071 62.1572 82.2681 62.2981 82.2681 62.4703C82.2681 62.6582 82.1614 62.7834 82.0243 62.7834C81.8567 62.7834 81.811 62.7052 81.872 62.533Z" fill="white"/>
<path d="M73.8889 62.4859C73.8889 62.1259 74.2089 61.531 74.3917 61.531C74.7116 61.531 74.4831 62.5329 74.1479 62.5955C74.0108 62.6268 73.8889 62.5798 73.8889 62.4859Z" fill="white"/>
<path d="M77.3169 62.3139L76.8599 62.2043L77.2712 62.0947C77.6978 61.9695 78.0025 62.0634 78.0025 62.3296C78.0025 62.4861 77.9873 62.4861 77.3169 62.3139Z" fill="white"/>
<path d="M76.7837 61.5622C76.7837 60.9203 77.1341 60.8264 77.454 61.39C77.6673 61.7657 77.6826 61.844 77.4845 61.844C77.3626 61.844 77.1646 61.8909 77.0275 61.9379C76.8446 62.0162 76.7837 61.9223 76.7837 61.5622Z" fill="white"/>
<path d="M79.4345 61.7808C78.7489 61.4677 78.3071 60.638 78.3071 59.6518C78.3071 58.9473 78.3681 58.7751 78.7794 58.3838C79.0384 58.1333 79.2974 57.9298 79.3736 57.9298C79.7087 57.9298 80.9428 59.1352 81.3541 59.8866L81.8264 60.7476L81.3237 61.2955C80.7447 61.9217 80.1049 62.0939 79.4345 61.7808Z" fill="white"/>
<path d="M76.2505 61.3743C76.2048 61.296 76.2352 61.2178 76.3114 61.2178C76.4028 61.2178 76.479 61.296 76.479 61.3743C76.479 61.4683 76.4485 61.5309 76.418 61.5309C76.3723 61.5309 76.2962 61.4683 76.2505 61.3743Z" fill="white"/>
<path d="M74.2547 61.1239C74.3004 60.983 74.3461 60.8421 74.3461 60.8108C74.3461 60.7795 74.4833 60.7482 74.6509 60.7482C75.0317 60.7482 75.047 60.9986 74.6661 61.2178C74.2547 61.437 74.1481 61.4213 74.2547 61.1239Z" fill="white"/>
<path d="M75.4582 60.9358C75.1078 60.8889 75.0011 60.6854 75.2296 60.5445C75.2906 60.4975 75.5648 60.4192 75.839 60.3566C76.2504 60.2627 76.3266 60.294 76.3266 60.5601C76.3266 60.8889 76.0066 61.0298 75.4582 60.9358Z" fill="white"/>
<path d="M76.6313 60.4036C76.6313 60.2158 76.6466 60.1062 76.6771 60.1375C76.6923 60.1688 76.8142 60.3254 76.9208 60.4819C77.1036 60.7011 77.0884 60.748 76.8751 60.748C76.7228 60.748 76.6313 60.6228 76.6313 60.4036Z" fill="white"/>
<path d="M74.4983 60.294C74.4983 60.2001 74.5745 60.0905 74.6506 60.0435C74.742 59.9966 74.803 60.0592 74.803 60.1844C74.803 60.3253 74.742 60.4349 74.6506 60.4349C74.5745 60.4349 74.4983 60.3723 74.4983 60.294Z" fill="white"/>
<path d="M75.0623 60.0591C74.9404 59.746 76.0221 59.4016 76.2049 59.699C76.342 59.9495 76.2049 60.0591 75.626 60.1843C75.2756 60.2626 75.1232 60.2312 75.0623 60.0591Z" fill="white"/>
<path d="M76.4942 59.5581C76.4942 59.3859 76.5399 59.339 76.5856 59.4642C76.6313 59.5738 76.6161 59.7147 76.5704 59.7616C76.5247 59.8242 76.479 59.7303 76.4942 59.5581Z" fill="white"/>
<path d="M75.1993 59.3076C75.3821 58.9632 75.9153 58.3997 76.0525 58.3997C76.2048 58.3997 76.22 59.1354 76.0677 59.2294C75.9915 59.2607 75.7478 59.3389 75.5192 59.4016C75.1841 59.4798 75.1079 59.4642 75.1993 59.3076Z" fill="white"/>
<path d="M76.4181 58.9474C76.2505 58.4778 76.3267 58.2743 76.6924 58.2116C77.0733 58.1334 77.0733 58.1334 76.8295 58.6187C76.5248 59.2449 76.54 59.2449 76.4181 58.9474Z" fill="white"/>
<path d="M76.3267 58.0079C76.3267 57.9766 76.6314 57.7574 77.0122 57.5383C77.4693 57.2565 77.7892 57.1626 78.0177 57.2252C78.292 57.3191 78.2158 57.3817 77.5455 57.7105C76.7989 58.0549 76.3267 58.1801 76.3267 58.0079Z" fill="white"/>
<path d="M84.782 44.1347C84.3707 43.5242 83.5023 42.5379 82.8776 41.9431C82.253 41.3482 81.8417 40.8629 81.9635 40.8629C82.2987 40.8629 84.8582 41.583 85.4981 41.8648C86.0313 42.0996 86.0465 42.1309 85.9094 42.6162C85.8332 42.898 85.7723 43.6024 85.7723 44.1817C85.7723 44.7765 85.7266 45.2462 85.6656 45.2462C85.5895 45.2462 85.2086 44.7452 84.782 44.1347Z" fill="white"/>
<path d="M53.7787 91.5613C53.154 91.2326 53.0169 91.0447 52.2247 89.4323C51.0821 87.1468 51.0516 86.6145 52.1333 87.9138C52.5599 88.4304 53.5501 89.4949 54.3271 90.2777C55.6526 91.5927 55.7135 91.6866 55.2717 91.624C54.9517 91.577 54.8299 91.6083 54.906 91.7335C55.0889 92.0153 54.5099 91.9371 53.7787 91.5613Z" fill="white"/>
<path fill-rule="evenodd" clip-rule="evenodd" d="M79.3109 120.089C79.1844 119.78 79.3254 119.425 79.6257 119.295L79.9539 119.152C83.1452 117.748 84.977 116.905 86.2216 115.567C87.4662 114.228 87.6152 112.262 87.849 111.066C87.9132 110.737 88.6365 111.314 88.956 111.38C89.2755 111.446 89.4824 111.765 89.4183 112.094C89.1371 113.532 88.38 114.903 87.1612 116.205C85.9464 117.503 83.5946 118.893 80.0836 120.412C79.7833 120.542 79.4373 120.398 79.3109 120.089Z" fill="#00160A"/>
<path fill-rule="evenodd" clip-rule="evenodd" d="M93.7426 57.6152C94.0226 57.4439 94.3847 57.5383 94.5513 57.8261C96.2202 60.7073 97.1142 64.001 97.1142 67.4277C97.1142 77.8091 88.9255 86.225 78.8242 86.225C76.1401 86.225 73.5367 85.63 71.1527 84.4964C70.857 84.3558 69.7399 83.2361 70.865 83.6915C71.9901 84.1469 76.3434 85.169 78.8556 85.169C88.3052 85.169 94.9902 77.1394 94.9902 67.4277C94.9902 64.2208 93.7426 61.3744 93.5374 58.4464C93.5136 58.107 93.4626 57.7865 93.7426 57.6152Z" fill="#00160A"/>
<path fill-rule="evenodd" clip-rule="evenodd" d="M35.31 103.508C35.5186 103.25 35.8906 102.731 36.141 102.945C37.1681 103.824 38.2641 104.842 39.4365 105.039C40.6566 105.244 42.104 105.244 43.7768 105.036C44.1003 104.995 44.3943 105.232 44.4334 105.564C44.4726 105.897 44.2421 106.199 43.9186 106.239C42.1421 106.46 40.5854 106.46 39.2465 106.236C37.86 106.003 36.5706 105.376 35.3858 104.362C35.1354 104.147 35.1015 103.765 35.31 103.508Z" fill="#00160A"/>
<path d="M47.8372 82.293C47.0754 81.6667 45.4453 79.8191 44.2112 78.1907C43.5714 77.3295 42.8553 75.5759 42.4287 73.8066C42.2307 73.008 42.0326 72.2878 41.9869 72.1938C41.926 72.1155 41.6822 71.0039 41.4385 69.7199C41.0728 67.9037 41.1502 67.3185 40.8291 65.146C40.6931 64.2261 40.5701 63.4942 40.5701 63.4942L40.9662 62.9715C41.1947 62.6584 41.4838 62.1402 41.5908 61.8442C42.0783 60.496 45.6586 56.2701 45.7652 56.3797C45.7957 56.411 45.6738 57.1469 45.4605 58.008C45.2625 58.8692 45.0187 60.1688 44.912 60.9047C44.7597 62.126 44.6988 62.2669 44.2265 62.674C43.6323 63.1907 42.5049 64.8504 42.5049 65.1949C42.5049 65.6646 43.1905 65.3515 43.9065 64.5842L44.6378 63.8014V64.6625C44.6378 65.2262 44.5312 65.7429 44.3331 66.15C43.9522 66.9172 43.9522 67.7314 44.3179 68.3577C44.5007 68.6709 44.6683 69.4224 44.7749 70.3149C45.2472 74.3546 46.2527 77.8619 47.9743 81.3848C48.4009 82.2617 48.736 82.9819 48.7208 82.9819C48.6903 82.9819 48.2942 82.6688 47.8372 82.293Z" fill="white"/>
<path fill-rule="evenodd" clip-rule="evenodd" d="M111.23 91.9536L112.327 92.4547C112.554 92.5625 115.064 93.8016 118.078 95.2901C122.937 97.6898 129.109 100.738 129.146 100.738C129.207 100.738 129.493 100.058 129.558 99.2657C129.71 97.559 130.274 95.2417 130.929 93.629C131.234 92.9087 131.477 92.0086 131.477 91.9303C131.477 91.8945 131.23 91.7919 130.824 91.6238C130.341 91.4237 129.635 91.1309 128.857 90.748C125.018 88.8534 117.507 84.986 116.577 84.4067C115.663 83.8586 115.481 83.8117 115.481 84.1718C115.481 84.6415 114.551 86.8179 113.835 87.9922C113.454 88.6342 112.708 89.7929 112.175 90.5601L111.23 91.9536ZM128.887 97.9193C129.324 98.1795 128.567 98.5612 128.385 98.6239C127.308 98.7178 126.041 98.5097 125.002 97.888C124.46 97.4923 120.185 95.0514 117.349 93.4322C116.052 92.692 115.057 92.1235 114.856 92.0007C114.216 91.6093 113.607 91.1865 113.5 91.0613C113.18 90.6385 113.485 90.4506 114.384 90.5289C114.924 90.576 127.944 97.3572 128.887 97.9193Z" fill="white"/>
<path d="M100.291 93.3629C99.8952 93.222 99.4686 92.9088 99.1944 92.5487L98.7373 91.9694L100.352 90.3253C102.836 87.8201 104.664 85.0822 106.309 82.029C106.858 81.0112 108.488 76.9068 108.686 76.4527C108.99 75.7951 109.219 75.5446 109.874 75.1688C110.651 74.6991 111.535 74.5425 111.916 74.8087C112.647 75.3097 112.647 76.8911 111.916 79.6155C111.108 82.6061 110.026 84.7512 107.787 87.8358C107.436 88.3055 106.781 89.2293 106.309 89.8712C105.045 91.5936 104.222 92.4234 103.11 93.0654C102.013 93.6917 101.373 93.77 100.291 93.3629Z" fill="white"/>
<path d="M106.035 93.0028L105.715 92.674C105.715 92.674 111.025 85.7403 111.977 83.1854C112.703 81.2357 113.13 80.6829 113.707 80.6829C114.029 80.6829 114.292 80.7585 114.414 80.9464C114.628 81.2752 114.833 81.6823 114.559 83.0758C114.102 85.3305 113.401 86.818 111.299 90.0278C110.811 90.7637 110.186 91.5779 109.912 91.8598C109.272 92.4704 107.833 93.0967 106.995 93.2376C106.462 93.3159 106.309 93.2846 106.035 93.0028Z" fill="white"/>
<path fill-rule="evenodd" clip-rule="evenodd" d="M114.954 85.7523C115.262 85.0299 115.481 84.3998 115.481 84.1718C115.481 83.8117 115.663 83.8586 116.577 84.4067C117.507 84.986 125.018 88.8534 128.857 90.748C130.289 91.4526 131.477 91.852 131.477 91.9303C131.477 92.0086 114.629 86.5182 114.954 85.7523Z" fill="#E7EAEE"/>
<path fill-rule="evenodd" clip-rule="evenodd" d="M62.8284 86.6458C60.8936 85.3463 57.9684 82.293 56.5516 80.1166C54.5253 76.9851 53.1847 73.6344 52.5295 70.0331C52.0573 67.4183 52.0725 63.3943 52.5448 61.0613C53.0323 58.6814 53.6569 56.8651 54.7691 54.5635C56.0641 51.9017 57.4352 49.9445 59.4919 47.8307C61.5088 45.7579 52.5448 54.3299 54.7691 69.6671C56.5516 82.5197 64.2121 87.5828 62.8284 86.6458Z" fill="#E7EAEE"/>
</svg>
