<svg width="37" height="37" viewBox="0 0 37 37" fill="none" xmlns="http://www.w3.org/2000/svg">
<path d="M13.8751 24.6667H9.63928C8.26097 24.6667 7.57182 24.6667 7.07361 24.9919C6.8415 25.1434 6.64341 25.3415 6.49192 25.5736C6.16675 26.0718 6.16675 26.761 6.16675 28.1393V28.1393C6.16675 29.7867 6.16675 30.6104 6.5757 31.1473C6.76494 31.3958 7.00973 31.5964 7.29046 31.7333C7.89716 32.029 8.70487 31.8675 10.3203 31.5444L10.7768 31.4531C12.2013 31.1682 12.9136 31.0257 13.3564 30.5376C13.4012 30.4882 13.4436 30.4365 13.4833 30.3828C13.8751 29.8528 13.8751 29.1265 13.8751 27.6737V12.5293C13.8751 10.9595 13.8751 10.1747 14.3284 9.62171C14.7817 9.06876 15.5513 8.91483 17.0906 8.60697L24.5073 7.12364C26.7209 6.68092 27.8277 6.45956 28.5597 7.05967C29.2917 7.65979 29.2917 8.78851 29.2917 11.046V13.8751M29.2917 21.5834V24.5904C29.2917 26.0431 29.2917 26.7695 28.9 27.2994C28.8603 27.3531 28.8179 27.4048 28.773 27.4543C28.3302 27.9424 27.618 28.0848 26.1934 28.3697L25.737 28.461C24.1215 28.7841 23.3138 28.9457 22.7071 28.6499C22.4264 28.5131 22.1816 28.3124 21.9924 28.064C21.5834 27.5271 21.5834 26.7034 21.5834 25.0559V25.0559C21.5834 23.6776 21.5834 22.9885 21.9086 22.4903C22.0601 22.2582 22.2582 22.0601 22.4903 21.9086C22.9885 21.5834 23.6776 21.5834 25.0559 21.5834H29.2917ZM29.2917 21.5834V13.8751M29.2917 13.8751L13.8751 16.9584" stroke="black" stroke-width="2"/>
</svg>
