<svg width="39" height="39" viewBox="0 0 39 39" fill="none" xmlns="http://www.w3.org/2000/svg">
<path d="M21.125 22.75H14.3287C13.283 22.75 12.7602 22.75 12.3132 22.854C11.0255 23.1534 9.96896 24.0697 9.49043 25.3021C9.32429 25.73 9.25035 26.2475 9.10248 27.2826V27.2826C8.88878 28.7785 8.78194 29.5264 8.87145 30.1114C9.13201 31.814 10.4533 33.1587 12.1511 33.4491C12.7344 33.5488 13.4841 33.4551 14.9835 33.2677L15.8896 33.1544C17.5219 32.9504 18.3381 32.8484 18.9783 32.5136C19.8526 32.0565 20.5271 31.2924 20.8722 30.3682C21.125 29.6914 21.125 28.8689 21.125 27.2239V9.88851C21.125 8.27017 21.125 7.461 21.599 6.9015C22.0729 6.34201 22.8711 6.20899 24.4674 5.94293L30.5741 4.92515C30.7099 4.90251 30.7778 4.89119 30.8145 4.93088C30.8511 4.97057 30.8344 5.03736 30.801 5.17093L29.2807 11.2522C29.2658 11.3119 29.2583 11.3417 29.2373 11.3617C29.2164 11.3817 29.1862 11.3878 29.1259 11.3998L21.125 13" stroke="black" stroke-width="2"/>
</svg>
