<svg width="113" height="135" viewBox="0 0 113 135" fill="none" xmlns="http://www.w3.org/2000/svg">
<path fill-rule="evenodd" clip-rule="evenodd" d="M74.8627 86.0222C75.4626 85.5818 76.0875 85.0966 76.3547 84.3911C76.6261 83.6748 76.4758 82.8699 76.2935 82.1245C74.9236 76.5221 71.8869 71.3612 67.6936 67.5089C85.1318 58.6229 98.3305 41.4172 102.654 21.9339C98.8841 33.0174 93.8245 43.8238 86.2122 52.586C78.6 61.3482 68.2032 67.9465 56.8291 69.187C54.2987 69.463 51.4765 69.3807 49.5767 67.6431C47.6769 65.9055 47.7358 62.0134 50.1538 61.1998C54.702 59.6695 58.3368 55.883 60.3906 51.4458C62.4444 47.0086 63.0308 41.9717 62.764 37.0669C62.6425 34.8337 62.5216 32.1792 64.26 30.8304C68.6587 27.4178 70.7636 21.4793 70.5135 15.8259C70.2635 10.1724 67.911 4.79644 64.7867 0.133301C63.7392 3.4401 61.0529 6.15073 57.8137 7.16959C55.0982 8.02374 52.25 7.72171 49.3913 7.41856C47.9974 7.27075 46.601 7.12267 45.2162 7.10821C40.9913 7.06412 35.9747 9.19927 35.5047 13.5088C35.3508 14.9195 34.1086 15.7344 32.8817 16.5391C32.4827 16.8008 32.0853 17.0615 31.7275 17.3412C28.4765 19.883 28.1862 24.767 28.6927 28.9292C28.7658 29.5294 28.8486 30.135 28.9317 30.7434C29.4253 34.3533 29.9322 38.0607 28.4931 41.3324C28.4294 41.4774 28.3617 41.6217 28.294 41.7661C28.0425 42.3023 27.7899 42.8409 27.7304 43.4282C27.5594 45.1141 28.8702 46.2433 30.219 47.4053C30.935 48.022 31.6616 48.648 32.183 49.3713C33.471 51.1582 33.4415 53.6687 32.6573 55.7407C31.8732 57.8127 30.4422 59.5465 29.0366 61.2375C30.5372 58.1989 31.309 54.7845 31.2649 51.3782L27.2657 58.2713C28.6674 54.8218 29.4593 51.1125 29.5913 47.3775L26.3523 59.3065C28.066 58.3456 29.4774 56.8268 30.3315 55.0245L27.6723 62.9502C30.6864 60.9334 32.975 57.8006 34.0164 54.2657C34.621 55.8335 35.648 57.2271 36.9532 58.251C41.4807 61.8026 41.1335 70.0645 36.3249 73.2028C26.7721 79.4373 19.4663 88.8063 13.9833 98.9714C8.50034 109.137 4.7067 120.152 0.938477 131.108C6.36771 118.219 12.2616 105.536 18.6041 93.0938C20.0824 97.4371 22.095 101.589 24.5791 105.418L29.9724 101.334C29.8841 109.58 30.288 117.832 31.1809 126.027C32.2419 126.143 32.4932 124.546 32.326 123.464C30.7247 113.109 30.4843 102.532 31.6134 92.1106C30.5475 92.8089 30.5271 94.2645 30.508 95.6268C30.5043 95.8848 30.5008 96.1394 30.4901 96.3849C30.3441 99.762 27.89 102.901 24.7093 103.778C23.0689 101.646 21.4035 99.4695 20.47 96.9273C19.5365 94.3851 19.4349 91.3722 20.8489 89.0755C24.6467 82.9072 30.1151 77.8349 36.4775 74.5791C39.3078 77.4025 42.6641 79.6687 46.3107 81.2187C47.4699 81.7114 48.8047 82.1291 49.9467 81.596C50.736 81.2276 51.277 80.4697 51.7474 79.7222C53.5296 76.8906 54.8285 73.7396 55.5675 70.4551C58.9849 69.9567 62.3684 69.2138 65.6854 68.2336C67.0276 67.837 68.3168 68.9558 69.2239 70.0457C72.0378 73.4267 74.1197 77.4458 75.2768 81.7307C75.5127 82.6042 75.7052 83.5642 75.348 84.3932C75.0609 85.0596 74.4661 85.5241 73.8867 85.9454C71.719 87.5216 69.4265 88.9169 67.0391 90.1129C67.2907 87.4526 66.629 84.7106 65.1968 82.4782C67.4538 88.7001 66.2604 95.2996 65.0547 101.967C64.1337 107.06 63.2056 112.193 63.8028 117.227L67.4673 90.9766C69.9995 89.4339 72.4676 87.7804 74.8627 86.0222ZM30.4003 39.055C31.6057 39.4463 32.2123 40.7911 32.6792 41.9969L34.5153 46.7376C36.5967 44.4167 37.5592 41.395 38.5274 38.3553C39.295 35.9457 40.0661 33.5249 41.4011 31.433C40.6436 31.0441 39.6859 31.5121 39.2064 32.2287C38.7589 32.8972 38.617 33.7209 38.4788 34.5232C38.4688 34.5808 38.4589 34.6383 38.4489 34.6956C37.786 38.4953 36.4652 42.173 34.5667 45.5052C34.0382 42.9163 32.8049 40.4828 31.0429 38.5524C30.4832 37.9391 30.3556 37.0452 30.2544 36.2112L29.7571 32.1138C29.3666 28.8959 28.9811 25.5859 29.7755 22.4474C30.5699 19.3089 32.831 16.339 35.938 15.7508C35.7135 16.6241 36.1426 17.6279 36.9207 18.0498C36.4215 15.3828 36.0313 12.2772 37.8019 10.2591C38.9651 8.93338 40.786 8.45432 42.5157 8.27787C44.6526 8.05987 46.8009 8.20182 48.9478 8.34368C49.6072 8.38726 50.2666 8.43083 50.9254 8.46395C53.7291 8.60491 56.6102 8.54369 59.2351 7.52274C61.86 6.50178 64.2108 4.36345 64.8731 1.56374C67.1802 5.66483 69.0936 10.108 69.5473 14.8207C70.0011 19.5334 68.8365 24.5687 65.6607 28.0041C63.3306 30.5246 60.0714 32.0249 56.7238 32.5421C53.3763 33.0593 49.9398 32.6437 46.6697 31.7454C43.3337 30.829 40.1289 29.411 37.1894 27.5507C37.9823 28.9086 39.348 29.7995 40.722 30.5187C47.073 33.8426 54.7175 34.4638 61.499 32.2071C61.7788 32.114 61.9556 32.5109 61.9913 32.8106C62.7029 38.7774 61.9182 44.9258 59.7333 50.5032C59.0428 52.2657 58.2042 53.9892 57.0159 55.4456C55.2843 57.5679 52.9057 59.0136 50.5228 60.3103C49.3349 60.9568 48.1101 61.585 46.7843 61.8154C45.4585 62.0458 43.9979 61.827 42.974 60.9324L43.9683 60.6954C44.0147 60.1912 43.3019 60.0823 42.8092 60.1115C40.2533 60.2631 37.8439 58.6442 36.3143 56.537C34.7847 54.4299 33.9765 51.8774 33.1932 49.3757L34.6003 50.2023C35.1044 49.943 34.5379 49.2013 34.0272 48.956C32.6322 48.2858 31.3272 47.4187 30.1605 46.3866C29.4119 45.7244 28.6871 44.933 28.4984 43.9373C28.3097 42.9416 28.8893 41.7389 29.8714 41.6256C30.3266 41.573 30.7602 41.7511 31.1948 41.9296C31.6081 42.0994 32.0224 42.2695 32.4572 42.2422C32.3003 41.7011 31.8015 41.3973 31.3116 41.099C31.1748 41.0156 31.0386 40.9327 30.9107 40.8451C30.3254 40.4441 29.8661 39.5252 30.4003 39.055ZM42.5127 61.5819C43.7939 62.5719 45.5097 62.944 47.0716 62.5705C46.3418 64.4787 47.2606 66.7352 48.7959 68.0464C50.3312 69.3576 52.3493 69.8988 54.3216 70.2221C54.2638 73.8174 53.0025 77.3808 50.7984 80.1757C50.1505 80.9973 48.8987 80.8187 47.9156 80.5043C44.0238 79.2595 40.4231 77.0668 37.4935 74.1575C37.7463 73.7803 38.15 73.5678 38.5553 73.3545C38.9281 73.1583 39.3023 72.9615 39.5615 72.635C39.7965 72.3391 39.9129 71.9648 40.0159 71.5981C41.0267 67.9984 41.2146 64.1582 40.5603 60.4727C41.1761 60.4825 41.6795 60.8989 42.1715 61.3059C42.2854 61.4001 42.3987 61.4938 42.5127 61.5819ZM102.126 14.5491C101.118 15.1328 99.9805 15.9262 99.9552 17.1151C99.9335 18.1304 100.695 18.8109 101.481 19.5127C102.036 20.0081 102.602 20.5141 102.913 21.1559C101.297 20.9843 99.8436 19.7215 99.4101 18.1131C98.9767 16.5046 99.5912 14.6535 100.891 13.6524C102.344 12.5332 102.817 10.5205 102.962 8.66049C102.992 8.27738 103.013 7.89084 103.034 7.50371L103.034 7.50293V7.50286C103.115 6.01081 103.196 4.51001 103.795 3.16253C104.03 2.63554 104.432 2.08661 104.996 2.07355C105.896 2.0527 106.219 3.27528 106.255 4.19942L106.416 8.34212C106.796 7.64796 107.911 7.82042 108.366 8.46434C108.822 9.10826 108.811 9.97121 108.782 10.7668C108.994 9.00088 109.681 7.29765 110.747 5.89517C111.081 5.455 111.584 5.00276 112.102 5.17135C112.65 5.34954 112.785 6.07132 112.804 6.66123C112.968 11.7798 111.477 16.94 108.621 21.1373C107.711 22.4748 107.49 24.162 107.277 25.7824L107.263 25.8922C106.342 32.8979 104.812 39.8189 102.696 46.5455C101.437 50.5475 99.9348 54.5492 97.409 57.8588C96.077 59.6043 94.487 61.1212 92.8973 62.6217C87.3653 67.8434 81.7459 72.9671 76.0423 77.9901C75.5574 77.99 75.7801 77.182 76.1468 76.8559C77.3846 75.7554 78.6308 74.6629 79.8773 73.5703C85.1133 68.9802 90.3535 64.3866 94.9958 59.1742C96.3488 57.6551 97.6555 56.0761 98.679 54.3057C99.6642 52.6016 100.372 50.7455 101.031 48.8825C103.926 40.6924 105.944 32.1756 107.038 23.535C107.116 22.9147 107.181 22.2429 106.876 21.7012C110.672 17.4992 112.56 11.5476 111.902 5.8543C110.424 6.55367 110.102 8.2508 109.77 9.99823C109.492 11.4627 109.208 12.9624 108.23 13.9399L108.084 9.80343C108.07 9.40635 108.011 8.93274 107.663 8.75785C107.09 8.46926 106.595 9.29981 106.537 9.95275C106.479 10.6057 106.368 11.4643 105.739 11.5724C105.945 8.5626 105.771 5.52552 105.222 2.56143C103.814 3.91001 103.78 6.11117 103.75 8.11699C103.748 8.24078 103.746 8.36384 103.744 8.4859C103.706 10.5857 103.176 13.0916 101.259 13.8211C101.721 14.1906 102.242 13.8191 102.774 13.4397C103.003 13.2758 103.235 13.1104 103.465 13.0026C104.742 12.4044 106.204 14.0577 105.847 15.4516C105.49 16.8456 103.968 17.6386 102.565 17.6326C102.86 17.1289 103.434 16.8238 103.986 16.5307C104.714 16.144 105.404 15.778 105.36 15.0044C105.322 14.3316 104.613 13.8694 103.957 13.8739C103.302 13.8784 102.698 14.2183 102.126 14.5491ZM41.531 38.7315C41.5481 38.4841 41.8971 38.4477 42.1489 38.458C42.9239 38.4897 43.6824 38.256 44.4175 38.0122L44.5215 37.9776C45.2228 37.7445 45.9342 37.508 46.673 37.4866C47.4483 37.4642 48.2757 37.7201 48.7401 38.3314C48.8013 38.412 48.8579 38.5072 48.8445 38.6069C48.8215 38.7773 48.602 38.8592 48.4328 38.8162C48.301 38.7827 48.1911 38.7004 48.0817 38.6185L48.0816 38.6185C48.0505 38.5952 48.0195 38.5719 47.988 38.5498C47.1292 37.9478 45.9421 38.2076 44.9544 38.5708C44.88 38.5981 44.8051 38.626 44.7299 38.654L44.729 38.6544C43.8065 38.9978 42.8299 39.3613 41.8964 39.0855C41.7191 39.0331 41.5185 38.9132 41.531 38.7315ZM50.3087 50.5694C50.898 50.5982 51.5371 50.6127 52.0179 50.2594C52.6887 49.7664 52.7721 48.7768 52.6975 47.9297C52.6533 47.428 52.5762 46.9298 52.4991 46.4317L52.4991 46.4317C52.393 45.747 52.2871 45.0627 52.267 44.3705C52.2323 43.1748 52.4973 41.896 53.3266 41.0613C53.3723 40.771 53.0004 40.5631 52.7332 40.6644C52.466 40.7657 52.3071 41.0457 52.1906 41.314C51.3954 43.1468 51.5918 45.2219 51.7834 47.2455L51.7835 47.2462L51.7835 47.2469C51.8126 47.5542 51.8416 47.8602 51.867 48.1641C51.908 48.6558 51.9033 49.2351 51.5236 49.5346C51.2411 49.7576 50.871 49.7332 50.5038 49.7089H50.5038H50.5037H50.5036H50.5036H50.5035H50.5034C50.3831 49.701 50.2631 49.6931 50.1466 49.6939C49.9024 49.6956 49.6055 49.7901 49.5604 50.0382C49.4965 50.389 49.9637 50.5525 50.3087 50.5694ZM48.8135 40.8845C49.0908 40.844 49.3266 41.1547 49.3183 41.4478C49.3099 41.7409 49.13 41.9976 48.9316 42.2045C48.2127 42.9538 47.172 43.2999 46.1576 43.3058C45.1433 43.3117 44.1484 43.0053 43.2113 42.5986C43.0087 42.5107 42.802 42.4137 42.6521 42.2461C42.5021 42.0785 42.4216 41.8221 42.5133 41.6134C42.605 41.4048 42.9048 41.3116 43.0569 41.477C43.748 42.2282 44.8215 42.4223 45.8176 42.4398C46.7182 42.4557 47.7461 42.2864 48.2427 41.4996C48.2706 41.4555 48.2978 41.4087 48.3253 41.3615C48.4515 41.1447 48.5834 40.9182 48.8135 40.8845ZM60.8281 42.0293C59.7054 43.0302 57.9685 43.3424 56.5443 42.7992C56.1508 42.6492 55.7658 42.4246 55.5555 42.0721C55.4733 41.9343 55.4206 41.7656 55.4796 41.6172C55.575 41.3773 55.9175 41.3141 56.167 41.407C56.3552 41.477 56.5079 41.6069 56.6602 41.7366C56.7099 41.7788 56.7594 41.821 56.8102 41.8611C57.7063 42.5687 59.1164 42.5891 60.0343 41.9076C60.0538 41.8932 60.0733 41.8783 60.093 41.8634C60.2397 41.752 60.3928 41.6358 60.5766 41.6328C60.785 41.6295 60.9808 41.8932 60.8281 42.0293ZM23.2381 103.943C22.8115 104.203 22.5079 104.626 22.2195 105.039C19.2617 109.284 16.6503 113.782 14.4217 118.471C12.17 123.208 10.3128 128.129 8.45841 133.044C8.30122 133.461 8.14691 133.943 8.35578 134.335C8.64476 134.878 9.47562 134.852 9.92706 134.442C10.3785 134.032 10.5492 133.396 10.7047 132.799C13.2961 122.846 17.6012 113.387 23.1487 104.794C23.318 104.532 23.4747 104.143 23.2381 103.943ZM47.6232 56.5968C47.6445 57.0883 47.0767 57.3691 46.6079 57.3731C46.0984 57.3774 45.5518 57.1848 45.2752 56.7357C44.9986 56.2867 45.1307 55.5671 45.6093 55.3834L42.3042 54.0746C42.0262 53.9645 41.7321 53.8526 41.439 53.9037C41.3711 53.9155 41.3044 53.936 41.2377 53.9565C41.1256 53.9909 41.014 54.0252 40.8984 54.0178C40.7142 54.006 40.5227 53.808 40.6069 53.6356C40.6385 53.571 40.6998 53.5294 40.7584 53.4908L41.9705 52.6926C42.108 52.6021 42.2592 52.5079 42.4207 52.5252C42.5822 52.5426 42.7308 52.7341 42.6505 52.8821C42.4124 53.3209 43.0057 53.7291 43.4714 53.856C45.0361 54.2821 46.6134 54.7105 48.2275 54.8036C49.8416 54.8967 51.5149 54.6326 52.8996 53.7572C53.3251 53.4883 53.8526 53.1571 54.2745 53.4321C54.112 53.9202 53.6344 54.1908 53.1677 54.4553C52.6452 54.7514 52.1362 55.0398 52.0979 55.6174C52.0583 56.2134 51.55 56.7349 50.9813 56.7628C50.4125 56.7908 49.86 56.3214 49.7676 55.7318C49.753 55.6386 49.6459 55.6021 49.5572 55.586C49.1481 55.5116 48.7164 55.4729 48.3268 55.6237C47.9373 55.7745 47.6043 56.1615 47.6232 56.5968ZM47.025 55.5394C46.8431 55.3046 46.4615 55.3397 46.2581 55.5541C46.0546 55.7686 46.0028 56.0989 46.0339 56.3998C46.2748 56.5416 46.5977 56.5111 46.8106 56.3263C47.0235 56.1414 47.1126 55.8144 47.025 55.5394ZM51.3534 55.7164C51.3829 55.5973 51.4584 55.4916 51.5589 55.4283C51.4341 55.2003 51.1052 55.2897 50.8814 55.4079C50.7626 55.4706 50.6289 55.5545 50.6128 55.693C50.593 55.8632 50.7814 55.994 50.9436 55.9734C51.1058 55.9529 51.2388 55.8342 51.3612 55.7207L51.3534 55.7164ZM58.1862 39.4474C58.3406 39.4882 58.4951 39.529 58.6521 39.5589C59.4669 39.7139 60.3465 39.5586 61.0402 39.1373C61.2248 39.0251 61.0533 38.7323 60.8331 38.7106C60.6628 38.6938 60.5045 38.7653 60.3476 38.8362C60.3016 38.8569 60.2557 38.8777 60.2097 38.8961C59.618 39.133 58.9576 38.9967 58.3001 38.8609C57.6141 38.7193 56.9313 38.5784 56.3334 38.8628C56.1175 38.9655 55.9159 39.1515 55.9269 39.3742C55.938 39.5969 56.28 39.7688 56.4389 39.6C56.6939 39.3291 57.1281 39.2602 57.5155 39.3044C57.7437 39.3305 57.9648 39.3889 58.1862 39.4474Z" fill="#00160A"/>
</svg>
