<svg width="116" height="332" viewBox="0 0 116 332" fill="none" xmlns="http://www.w3.org/2000/svg">
<path d="M66.0391 183.387C60.8897 185.08 56.6341 187.938 53.2719 191.961C49.9094 195.982 47.8605 200.377 47.125 205.139C46.3895 209.902 46.9937 214.613 48.9376 219.27C50.8814 223.928 54.5327 227.685 59.8912 230.544C61.1522 230.544 61.9398 231.073 62.2561 232.131C62.5703 233.189 62.097 233.718 60.838 233.718C55.6885 232.66 51.1704 230.49 47.2827 227.21C40.0326 221.175 36.0399 213.397 35.3044 203.869C34.8841 199.106 35.3306 194.502 36.6441 190.055C37.9575 185.609 39.77 181.534 42.0816 177.829C44.9185 173.914 48.2808 170.525 52.1686 167.668C52.3787 167.456 52.9829 166.981 53.981 166.239C54.9793 165.498 55.9511 164.811 56.8968 164.176C57.8426 163.54 59.2607 162.535 61.1522 161.158L55.3208 132.896C50.1721 137.236 45.0762 142.025 40.0328 147.264C34.9891 152.504 30.4185 158.036 26.3206 163.857C22.2229 169.68 18.9394 175.845 16.47 182.355C14.0009 188.865 12.7664 195.718 12.7664 202.917C12.7664 209.586 14.1585 215.857 16.943 221.732C19.7274 227.607 23.4312 232.714 28.0544 237.052C32.6776 241.392 38.01 244.807 44.0517 247.295C50.0934 249.782 56.2138 251.026 62.4132 251.026C62.6241 251.026 63.5947 250.92 65.329 250.708C67.0634 250.497 68.9012 250.233 70.8445 249.914C72.7897 249.598 74.5758 249.253 76.2047 248.882C77.8317 248.512 78.6472 248.115 78.6472 247.692L77.7004 243.246C73.6032 222.393 69.7147 202.44 66.0391 183.387ZM71.5545 182.752L84.4788 245.787C91.9395 242.927 96.9815 238.032 99.6089 231.099C102.236 224.167 102.839 217.128 101.421 209.982C100.003 202.837 96.6672 196.511 91.4124 191.007C86.1595 185.503 79.5402 182.752 71.5545 182.752ZM55.0055 97.8069C58.2622 96.1118 61.2835 93.5731 64.068 90.1848C66.8526 86.7985 69.4263 83.1718 71.7912 79.3087C74.1541 75.4455 76.2047 71.5022 77.9371 67.4788C79.6715 63.4574 81.0638 59.8066 82.1139 56.5245C83.2695 53.0321 84.0572 49.1148 84.4788 44.7748C84.8985 40.4348 84.2163 36.784 82.4302 33.8185C81.1692 31.1737 79.5144 29.6388 77.4657 29.214C75.4151 28.7912 73.3665 28.9495 71.3178 29.6909C69.2692 30.4323 67.326 31.6225 65.4862 33.2635C63.6484 34.9046 62.3078 36.3592 61.4685 37.6296C59.1553 41.7572 57.1325 46.3617 55.3995 51.4431C53.6657 56.5245 52.4837 61.7903 51.8534 67.2424C51.2229 72.6924 51.1441 77.9321 51.6169 82.9614C52.0897 87.9887 53.2192 92.9379 55.0055 97.8069ZM50.2773 102.728C48.491 95.7431 46.915 88.8884 45.549 82.166C44.1829 75.4455 43.5001 68.5388 43.5001 61.4456C43.5001 56.2601 43.8679 50.5695 44.6034 44.3781C45.3387 38.1866 46.6785 32.1515 48.6223 26.2766C50.5661 20.4017 53.2455 15.136 56.6603 10.4794C60.0762 5.82077 64.619 2.4345 70.2935 0.316586C70.8186 0.106196 71.3437 0 71.8688 0C72.6047 0 73.4719 0.422782 74.4703 1.27035C75.4688 2.11591 76.519 3.36021 77.6229 5.00125C78.7247 6.64228 79.6973 8.33542 80.5387 10.0826C81.378 11.8279 82.0085 13.0201 82.4302 13.6553C85.2665 19.0532 87.341 24.7959 88.6557 30.8811C89.9684 36.9684 90.7302 43.0276 90.941 49.0607C91.3607 58.1656 90.8614 67.1622 89.4433 76.0547C88.0252 84.9451 85.161 93.6252 80.8529 102.093C79.3831 104.634 77.8854 107.2 76.3619 109.793C74.8383 112.388 73.0264 114.9 70.924 117.335C70.5043 117.76 69.7426 118.527 68.6387 119.637C67.5348 120.749 66.4051 121.887 65.2495 123.052C64.0939 124.216 63.0696 125.302 62.1765 126.306C61.2835 127.311 60.838 127.921 60.838 128.133L67.2981 159.888C67.3399 160.096 70.5302 159.888 70.5302 159.888C76.696 159.966 83.2238 160.972 88.8923 163.222C94.356 165.763 99.058 169.255 102.998 173.701C106.938 178.147 110.089 183.149 112.454 188.705C114.819 194.263 116 199.9 116 205.616C116 211.331 115.159 217.154 113.478 223.081C109.17 234.301 102.288 242.611 92.8325 248.009C91.7803 248.644 90.2826 249.359 88.3394 250.153C86.3962 250.946 85.6344 252.19 86.0541 253.884C88.5761 265.417 90.2826 273.352 91.1777 277.7C92.0707 282.048 92.7271 287.658 93.1468 294.531C93.5664 301.103 92.4367 307.014 89.7576 312.304C87.0784 317.613 83.4804 321.921 78.9614 325.248C74.4445 328.594 70.3194 330.537 66.59 331.138C62.8587 331.719 60.3109 332 58.9464 332C54.2175 332 49.5943 331.098 45.0762 329.295C39.5073 327.191 34.8316 323.965 31.049 319.617C27.2664 315.269 25.3751 309.979 25.3751 303.748C25.3751 299.82 26.5046 295.793 28.7637 291.665C31.0227 287.538 33.9911 284.572 37.6685 282.789C41.7663 280.665 45.4702 280.084 48.78 281.026C52.0897 281.988 54.8215 283.791 56.9756 286.436C59.1294 289.081 60.6271 292.287 61.4685 296.033C62.3078 299.8 62.2561 303.307 61.3093 306.593C60.3646 309.879 58.4472 312.664 55.5572 314.928C52.6677 317.213 48.6486 318.235 43.5001 318.034C45.6015 321.841 48.5436 324.246 52.3262 325.248C56.1088 326.269 59.9966 326.33 63.9885 325.488C67.9823 324.646 71.7375 323.084 75.258 320.799C78.7785 318.535 81.5371 316.071 83.5321 313.426C84.7931 311.522 85.7398 309.038 86.3703 305.972C87.0008 302.886 87.3688 299.7 87.4722 296.354C87.5776 293.028 87.4722 290.423 87.158 288.58C86.8417 286.716 86.3166 283.831 85.5807 279.924C82.4302 267.12 80.4333 259.065 79.5919 255.779C79.1723 254.731 78.0425 254.386 76.2047 254.757C74.3649 255.128 72.8155 255.472 71.5545 255.779C62.5186 256.961 54.953 256.42 48.8588 254.202C39.4023 251.661 31.0752 247.135 23.8778 240.625C16.6803 234.117 10.9013 226.23 6.54072 216.967C2.18031 207.706 0 200.667 0 195.85C0 191.035 0 187.992 0 186.721C0 178.147 1.47104 170.103 4.41312 162.587C9.98183 150.837 16.5753 140.041 24.193 130.197C31.8108 120.353 40.5055 111.196 50.2773 102.728Z" fill="#F5F5F5"/>
</svg>
