<svg width="177" height="182" viewBox="0 0 177 182" fill="none" xmlns="http://www.w3.org/2000/svg">
<rect width="177" height="181.909" fill="white"/>
<path fill-rule="evenodd" clip-rule="evenodd" d="M57.4525 157.035C57.2337 157.172 56.951 157.127 56.7827 156.928C55.7715 156.018 54.6303 155.283 53.5913 154.407C53.0358 153.933 52.4435 153.506 51.8205 153.13C51.3649 152.86 51.0227 152.438 50.5865 152.13L50.4651 152.049C49.9313 151.714 49.4984 151.231 48.9838 150.855C48.5496 150.537 48.2373 150.067 47.8022 149.727C47.175 149.224 46.5729 148.69 45.9981 148.125C45.587 147.809 45.2356 147.419 44.9611 146.973C44.8995 146.846 44.7862 146.819 44.7044 146.74C44.3422 146.414 43.9997 146.065 43.6789 145.695C43.0213 144.894 42.2892 144.158 41.6445 143.348C41.1769 142.759 40.6775 142.203 40.1938 141.63C39.7288 141.079 39.2744 140.518 38.8306 139.948C37.7869 138.618 36.82 137.225 35.9347 135.779C35.2553 134.637 34.6392 133.457 34.0894 132.245C33.6049 131.28 33.1835 130.284 32.828 129.262C32.5702 128.437 32.1942 127.645 32.0132 126.812C31.8425 126.025 31.6288 125.243 31.4402 124.466C31.0032 122.668 30.6373 120.857 30.3426 119.033C30.1679 117.96 30.0144 116.876 29.8238 115.809C29.6001 114.558 29.5164 113.29 29.2967 112.038C29.1686 111.305 29.1303 110.529 29.0463 109.777C28.9649 109.049 28.9831 108.313 28.8573 107.59C28.7563 106.865 28.6913 106.135 28.6623 105.403C28.6134 104.724 28.4077 104.009 28.6259 103.313C28.2837 102.825 28.5186 102.26 28.4633 101.737C28.4081 101.214 28.3867 100.681 28.3021 100.173C28.2147 99.6483 28.1399 99.1114 28.068 98.5905C27.9217 97.5326 27.6779 96.4954 27.5304 95.4441C27.4398 94.8026 27.1684 94.2357 27.027 93.6197C26.7499 92.4417 26.3594 91.2949 25.8614 90.1963C25.653 89.7591 25.5104 89.292 25.4385 88.8108C25.3929 88.4443 25.0604 88.2884 24.9626 87.9545C24.8043 87.414 24.5576 86.9015 24.3585 86.374C24.3233 86.1948 24.1968 86.049 24.0276 85.9926L24.1637 85.5293C24.0912 85.3405 24.0169 85.5647 23.9175 85.5047C23.8159 85.296 23.6541 85.0975 23.6831 84.8129C23.7108 84.5454 23.4155 84.4662 23.3525 84.2171C23.2135 83.676 22.632 83.3076 22.7539 82.6526C22.3543 82.2807 22.2188 81.7419 21.9467 81.2891C21.8034 81.0773 21.7381 80.8209 21.7611 80.5653L21.768 80.5064C21.8134 80.2564 21.334 80.2275 21.5192 79.9087C20.8953 79.2226 20.8643 78.2809 20.6136 77.4599C20.2116 76.1426 19.7097 74.8494 19.5228 73.4528C19.4291 72.7542 19.1346 72.0561 19.0262 71.3462C18.782 69.7504 18.4316 68.1693 18.3739 66.5431C18.3504 65.8714 18.1812 65.2049 18.1639 64.5325L18.144 63.7553C18.1159 62.5894 18.0998 61.4228 18.1564 60.2567C18.129 59.9864 18.1759 59.7135 18.2917 59.4692C18.4619 59.198 18.1755 58.9527 18.2003 58.6542C18.228 58.2998 18.4201 57.9942 18.3862 57.6065C18.3675 57.3929 18.4772 57.075 18.4562 56.8273C18.388 56.0217 18.7776 55.2743 18.691 54.4708C18.7073 54.1693 18.7888 53.8753 18.9297 53.6102C19.2417 52.6969 19.1307 51.6864 19.5634 50.8179C19.7699 50.3883 19.8763 49.9157 19.8748 49.4374L19.8715 49.2525C19.8699 49.1157 19.8758 48.9839 19.9543 48.9062C20.2827 48.5817 20.2721 48.1233 20.4088 47.7322C20.5551 47.3133 20.5584 46.847 20.7607 46.4299C21.0076 46.0304 21.1834 45.589 21.2801 45.1262C21.3516 44.3247 21.7315 43.6627 22.0156 42.9581C22.1573 42.606 22.1667 42.1586 22.6051 41.9571C22.8281 41.8545 22.4042 41.5003 22.724 41.349L22.7612 41.3336C22.9913 41.2499 23.0158 41.0522 22.9972 40.8066C22.9801 40.5821 23.37 40.4997 23.3034 40.2611C23.2368 40.0225 23.2447 39.694 23.3735 39.6757C23.6956 39.6281 23.4444 39.231 23.7111 39.2127C23.7387 39.2032 23.7604 39.1811 23.7699 39.1529C23.9987 38.3437 24.6307 37.76 24.8999 36.9586C25.081 36.4837 25.3477 36.0484 25.6862 35.6754C25.9763 35.3086 26.2364 34.9178 26.4638 34.5069C26.8765 33.8215 27.472 33.2946 27.8737 32.6108C27.9827 32.4258 28.4711 32.5828 28.2868 32.1292C28.5965 32.0761 28.5613 31.7492 28.7118 31.5763C28.8661 31.453 29.038 31.3549 29.2215 31.2854C29.404 30.8682 29.6797 30.5011 30.0261 30.2138C30.6597 29.5469 31.3336 28.9219 32.0439 28.3424L32.63 27.8669C33.4133 27.2332 34.2148 26.6197 35.1658 26.2574C35.4103 26.1643 35.3528 25.8931 35.5587 25.7891C36.7534 25.1774 37.8832 24.4425 39.1902 24.0517C39.7371 23.8877 40.2463 23.513 40.8062 23.3408C41.93 22.9946 42.9993 22.4956 44.1873 22.314C44.8906 22.2069 45.6035 21.9806 46.3205 21.8524C47.8015 21.5433 49.3134 21.4186 50.8234 21.4809L51.751 21.542C52.5756 21.5965 53.3999 21.6585 54.2208 21.7835C54.6093 21.8427 54.9585 22.0361 55.3203 22.0546C55.6726 22.0723 56.0176 22.1648 56.3335 22.3262C56.5838 22.4497 56.8465 22.2569 57.1085 22.4337C57.3022 22.6132 57.5683 22.6831 57.8204 22.6233L57.8706 22.6096C58.0188 22.5538 58.2578 22.7499 58.4546 22.8346C58.7458 22.9316 59.0265 23.0595 59.2921 23.2162C59.4938 23.3606 59.8317 23.0753 59.9234 23.4604C60.2395 23.2887 60.4752 23.5272 60.7343 23.6308L60.7698 23.6441C61.0301 23.7343 61.2787 23.8612 61.5325 23.9719L62.3784 24.341C62.6147 24.487 62.8722 24.5935 63.1411 24.6564C63.6412 24.6864 64.0373 25.0022 64.5194 25.0981C65.0517 25.2469 65.5641 25.4628 66.0449 25.741C66.4788 25.9536 66.9767 25.8499 67.4091 26.1104C67.8156 26.3949 68.2753 26.5893 68.7588 26.6815C69.2549 26.7319 69.6691 27.0591 70.112 27.0869L70.1954 27.0885C70.762 27.0764 71.1424 27.4922 71.637 27.5481C72.7155 27.6697 73.7194 28.1393 74.7753 28.282C76.1072 28.462 77.4089 28.8108 78.7566 28.925C79.6324 28.9993 80.5145 29.0451 81.3912 29.1198C82.2696 29.1593 83.1497 29.1221 84.022 29.0085C85.1143 28.8968 86.1962 28.6947 87.2569 28.404C88.3281 28.1241 89.3454 27.6803 90.4074 27.3843C90.892 27.2491 91.3412 27.0256 91.8334 26.9047C92.3631 26.7745 92.8445 26.4318 93.3746 26.2996C94.7015 25.9687 95.9191 25.2713 97.2879 25.0926C98.8659 24.385 100.591 24.2615 102.229 23.7866C102.991 23.5651 103.807 23.5489 104.603 23.4477L104.774 23.4246C106.183 23.2226 107.603 23.1676 109.022 23.0987C110.325 23.0464 111.629 23.0823 112.927 23.2061C113.862 23.2872 114.793 23.4149 115.728 23.4779C116.107 23.5038 116.426 23.8399 116.83 23.674C117.608 24.0514 118.515 23.9288 119.286 24.3357C119.857 24.2687 120.332 24.5661 120.805 24.8077C121.165 24.9929 121.566 24.8167 121.921 25.0575C122.239 25.3088 122.615 25.4696 123.013 25.5234C123.686 25.5389 124.214 25.8895 124.788 26.1284C126.122 26.6836 127.447 27.2625 128.763 27.8651C129.194 28.0629 129.708 28.1099 130.033 28.5348C130.318 28.9076 130.887 28.8093 131.156 29.2374C131.255 29.3933 131.455 29.162 131.62 29.2964C131.943 29.5584 132.424 29.5113 132.697 29.9278C132.899 30.2361 133.396 30.1423 133.614 30.5101L133.643 30.5631C133.764 30.8232 134.284 30.3563 134.322 30.8932C134.824 31.0257 135.197 31.3878 135.616 31.6658C135.964 31.8954 136.423 31.8845 136.704 32.2825C136.944 32.6218 137.526 32.5096 137.702 32.985C138.313 33.1011 138.683 33.6543 139.245 33.8841C139.668 34.0839 140.062 34.3411 140.417 34.6486C140.988 35.0949 141.572 35.5238 142.164 35.9373C142.375 36.0894 142.579 36.2534 142.773 36.4286C142.882 36.524 142.884 36.6918 143.051 36.7629C144.109 37.2138 144.922 38.0426 145.764 38.7914C146.252 39.1742 146.709 39.5963 147.131 40.0538L147.27 40.2076C147.391 40.3592 147.675 40.4746 147.77 40.6721C148.035 41.2221 148.515 41.5547 148.937 41.9326L149.006 41.996C149.245 42.2057 149.452 42.4498 149.622 42.7208C149.655 42.7724 149.654 42.8716 149.695 42.89C150.444 43.2314 150.798 43.9827 151.317 44.5573C151.82 45.113 152.222 45.7647 152.737 46.3053C153.775 47.3955 164.248 64.4787 165.285 67.2873L165.582 68.0911C165.878 68.8961 166.168 69.7055 166.423 70.5235L166.639 71.22C166.856 71.9176 167.066 72.6189 167.237 73.3246L167.467 74.2668C167.923 76.1519 168.362 78.0428 168.684 79.9617C168.97 81.6738 169.155 83.3947 169.345 85.1178C169.466 86.224 169.539 87.3265 169.57 88.4369C169.62 90.2115 169.631 91.9863 169.604 93.7613C169.577 95.4322 169.201 97.0646 169.26 98.7322C168.871 99.6793 169.103 100.754 168.683 101.694C168.786 102.215 168.536 102.69 168.436 103.167C168.333 103.659 168.352 104.197 168.074 104.664C167.947 104.876 168.103 105.187 167.945 105.446C167.784 105.655 167.723 105.928 167.778 106.189C167.425 106.284 167.774 106.593 167.6 106.789C167.413 107.001 167.3 107.272 167.279 107.557C167.266 108.204 166.815 108.72 166.779 109.3C166.744 109.892 166.381 110.334 166.292 110.855L166.279 110.954C166.21 111.646 165.647 112.075 165.52 112.719C165.509 112.775 165.37 112.804 165.289 112.847C165.287 112.997 165.449 112.992 165.54 113.125C165.336 113.251 165.15 113.406 164.987 113.584C164.843 113.843 164.725 114.117 164.635 114.401L164.982 115.08C164.758 115.392 164.762 115.713 164.494 115.941C164.378 116.041 164.37 116.408 164.316 116.653C164.245 116.975 163.806 117.095 163.86 117.369C163.885 117.677 163.807 117.985 163.639 118.242C162.608 120.768 161.566 123.29 160.514 125.807C160.403 126.077 160.397 126.441 160.032 126.545C160.333 127.002 159.732 127.034 159.67 127.342C159.574 127.623 159.418 127.879 159.214 128.091C158.907 128.501 158.79 129.059 158.572 129.544C158.475 129.898 158.284 130.217 158.02 130.464C157.755 130.663 157.716 131.084 157.489 131.389C157.182 131.751 156.922 132.153 156.718 132.586C156.624 132.906 156.444 133.193 156.199 133.413C155.986 133.583 156.061 134.03 155.688 134.12C155.489 134.691 155.067 135.101 154.726 135.571L154.663 135.66C153.815 136.874 152.897 138.035 151.913 139.136C151.094 140.064 150.289 141.007 149.461 141.927C149.192 142.223 148.91 142.516 148.623 142.792C147.615 143.815 146.552 144.78 145.44 145.683C144.432 146.456 143.456 147.277 142.412 148.006C141.857 148.394 141.369 148.906 140.822 149.326C139.534 150.317 138.222 151.272 136.863 152.157C135.701 152.983 134.464 153.692 133.169 154.274C132.82 154.414 132.511 154.656 132.17 154.82C131.764 154.962 131.37 155.134 130.988 155.334C130.531 155.642 130.009 155.797 129.553 156.076C129.199 156.293 128.735 156.049 128.431 156.499C128.209 156.827 127.632 156.588 127.358 156.968C126.801 156.887 126.448 157.392 125.914 157.482L125.844 157.491C125.288 157.544 124.761 157.902 124.221 158.126C123.694 158.383 123.15 158.603 122.594 158.786C121.563 159.055 120.622 159.581 119.61 159.869C118.645 160.143 117.734 160.636 116.721 160.703C116.482 160.719 116.489 160.935 116.316 160.995C116.136 161.058 115.966 160.964 115.799 161.044C115.114 161.345 114.407 161.59 113.684 161.775C112.668 162.072 111.64 162.341 110.629 162.646C109.058 163.093 107.465 163.455 105.856 163.73C104.811 163.925 103.76 164.083 102.711 164.253L101.25 164.49C100.519 164.608 99.7871 164.723 99.0548 164.824C98.123 164.953 97.1842 165.017 96.2511 165.134C95.5125 165.226 94.7756 165.35 94.0403 165.474C93.0236 165.645 91.9992 165.779 90.9847 165.943C89.5466 166.167 88.0975 166.308 86.644 166.366C85.9085 166.418 85.1705 166.421 84.4345 166.376C84.0245 166.34 83.6127 166.33 83.2016 166.346L82.9962 166.357C82.0396 166.423 81.1254 166.223 80.1927 166.142C79.906 166.115 79.6415 166.026 79.3732 165.973L79.2579 165.952C79.0267 165.916 78.8045 165.864 78.58 165.814L78.4109 165.777C77.6134 165.61 76.844 165.301 76.0253 165.242L75.8713 165.234C75.8127 165.233 75.7551 165.219 75.7029 165.192C74.9032 164.727 73.9629 164.692 73.134 164.301L72.9889 164.228C72.2199 163.817 71.2966 163.823 70.539 163.352C69.9592 163.449 69.5285 163 69.0124 162.904C67.6793 162.656 66.512 161.977 65.2842 161.458L65.1236 161.392C63.8423 160.871 62.5846 160.288 61.3135 159.739C60.4432 159.3 59.6093 158.789 58.8201 158.21C58.6549 158.049 58.4701 157.91 58.2704 157.797C57.9052 157.674 57.608 157.397 57.4525 157.035Z" fill="#FFD600" fill-opacity="0.57"/>
<path fill-rule="evenodd" clip-rule="evenodd" d="M76.0165 83.2379C75.1189 87.027 72.8823 89.9813 69.4131 92.3718C70.2995 89.7299 71.4451 86.6385 72.3315 83.9966C71.4775 85.799 69.9378 87.5668 68.2241 88.5276C69.3038 84.5513 71.5677 81.3896 71.5677 76.3496C71.5677 74.5373 69.6557 73.1375 69.7304 72.4003C69.8061 71.6548 70.1927 70.9877 70.4932 70.3045C72.1748 66.4815 76.6211 84.8056 76.0165 83.2379Z" fill="white"/>
<path fill-rule="evenodd" clip-rule="evenodd" d="M144.563 50.1284C144.522 50.124 144.481 50.1189 144.44 50.1131C144.489 50.0539 144.529 50.0579 144.563 50.1284ZM117.426 107.049C117.256 107.199 117.086 107.348 116.917 107.498C116.776 107.498 116.218 106.524 115.441 105.17C114.726 103.923 113.826 102.353 112.897 100.925C112.085 99.6768 111.198 98.5521 110.561 97.7455C109.983 97.0122 109.611 96.5418 109.693 96.481C111.485 95.1556 113.353 93.9247 115.22 92.6947C118.235 90.7076 121.247 88.7229 123.929 86.3462C131.091 79.9986 136.075 72.0253 139.059 65.1837C141.576 59.4123 142.934 54.851 143.692 52.3069C144.064 51.0563 144.291 50.293 144.44 50.1131C142.874 49.8921 141.483 48.653 141.06 47.0856C140.627 45.4771 141.241 43.6259 142.541 42.6249C143.994 41.5057 144.467 39.493 144.612 37.633C144.642 37.2496 144.663 36.8628 144.684 36.4754C144.765 34.9833 144.847 33.4825 145.446 32.135C145.68 31.608 146.083 31.0591 146.646 31.046C147.546 31.0252 147.869 32.2478 147.905 33.1719L148.067 37.3146C148.446 36.6205 149.561 36.7929 150.017 37.4368C150.472 38.0807 150.462 38.9437 150.432 39.7393C150.644 37.9734 151.331 36.2701 152.397 34.8677C152.731 34.4275 153.234 33.9752 153.752 34.1438C154.3 34.322 154.435 35.0438 154.454 35.6337C154.618 40.7523 153.127 45.9125 150.271 50.1098C149.72 50.9198 149.422 51.8581 149.225 52.8321C149.297 53.5147 149.33 54.2506 149.249 54.8647C148.329 61.8704 146.799 68.7914 144.683 75.518C143.424 79.5199 141.921 83.5217 139.396 86.8313C138.063 88.5768 136.474 90.0937 134.884 91.5942C130.012 96.193 124.093 101.399 118.854 106.007C118.144 106.631 117.447 107.244 116.766 107.843C116.73 107.843 116.969 107.566 117.426 107.049Z" fill="white"/>
<path d="M64.4961 130.17C64.9083 131.375 65.9447 132.915 65.9447 132.915C65.9447 132.915 58.7313 143.389 55.9833 149.373C53.4294 154.934 50.8508 167.811 42.9385 160.08C46.7067 149.124 50.5003 138.109 55.9833 127.943C58.4771 123.32 60.6556 121.679 60.6556 121.679C60.6556 121.679 63.0544 125.954 64.4961 130.17Z" fill="white"/>
<path fill-rule="evenodd" clip-rule="evenodd" d="M72.4003 68.0274C71.866 68.4976 72.3253 69.4165 72.9107 69.8175C73.4961 70.2185 74.2564 70.5223 74.4572 71.2146C73.565 71.2707 72.7595 70.4955 71.8713 70.598C70.8892 70.7113 70.3097 71.914 70.4984 72.9097C70.687 73.9054 71.4119 74.6968 72.1605 75.359C73.3272 76.3911 74.6322 77.2582 76.0271 77.9284C76.5378 78.1737 77.1043 78.9154 76.6002 79.1747C76.1312 78.8992 75.6622 78.6236 75.1932 78.3481C75.9764 80.8498 76.7847 83.4023 78.3143 85.5094C79.8439 87.6166 82.2532 89.2355 84.8092 89.0839C85.3018 89.0547 86.0147 89.1636 85.9683 89.6678C85.6369 89.7468 85.3054 89.8258 84.974 89.9048C85.9979 90.7994 87.4585 91.0182 88.7843 90.7878C90.11 90.5574 91.3348 89.9292 92.5228 89.2827C94.9057 87.986 97.2843 86.5403 99.0159 84.418C100.204 82.9616 101.043 81.2381 101.733 79.4756C103.918 73.8982 104.703 67.7498 103.991 61.783C103.956 61.4833 103.779 61.0864 103.499 61.1795C96.7175 63.4362 89.0729 62.815 82.722 59.4911C81.3479 58.7719 79.9823 57.881 79.1894 56.5231C82.1289 58.3834 85.3336 59.8014 88.6696 60.7178C91.9398 61.6161 95.3762 62.0317 98.7238 61.5145C102.071 60.9973 105.331 59.497 107.661 56.9765C110.836 53.5411 112.001 48.5058 111.547 43.7931C111.094 39.0804 109.18 34.6372 106.873 30.5361C106.211 33.3358 103.86 35.4742 101.235 36.4951C98.6102 37.5161 95.7291 37.5773 92.9254 37.4363C90.1217 37.2954 87.3089 36.9653 84.5156 37.2503C82.786 37.4267 80.965 37.9058 79.8019 39.2315C78.0312 41.2496 78.4215 44.3552 78.9206 47.0222C78.1425 46.6003 77.7135 45.5965 77.938 44.7232C74.831 45.3114 72.5698 48.2813 71.7755 51.4198C70.9811 54.5583 71.3666 57.8683 71.7571 61.0862C71.9228 62.452 72.0886 63.8178 72.2544 65.1836C72.3556 66.0176 72.4831 66.9115 73.0429 67.5248C74.8048 69.4552 76.0381 71.8887 76.5666 74.4776C78.4651 71.1454 79.786 67.4677 80.4489 63.668C80.5982 62.8123 80.7268 61.9176 81.2063 61.2011C81.6859 60.4845 82.6435 60.0165 83.401 60.4054C80.3821 65.1361 80.2467 71.5492 76.5152 75.71C75.9032 74.1298 75.2912 72.5495 74.6792 70.9693C74.2122 69.7635 73.6056 68.4187 72.4003 68.0274Z" fill="white"/>
<path fill-rule="evenodd" clip-rule="evenodd" d="M116.863 114.994C114.468 116.753 111.999 118.406 109.467 119.949C108.912 123.929 107.619 131.579 106.622 138.026C106.169 140.959 106.169 143.453 105.782 145.504C104.993 149.674 101.684 151.891 97.7055 151.689C74.4211 150.507 74.0739 163.195 73.1809 154.999C72.288 146.804 71.8841 138.552 71.9724 130.306C70.1747 131.668 68.3769 133.029 66.5791 134.39C66.0007 133.499 60.9478 125.12 61.2045 122.066C61.4844 118.737 65.0774 113.903 69.1801 110.097C71.736 107.726 74.7232 106 76.5164 104.534C77.2412 103.942 81.0165 100.433 81.892 97.0069C82.8082 93.4209 80.8453 89.9142 82.5603 89.4447C83.914 89.0742 84.779 90.1733 86.2993 90.873C87.4682 91.4109 89.397 90.455 89.849 91.2153C90.301 91.9756 89.7014 94.9801 90.8465 96.1349C92.969 98.2753 97.3498 98.6338 97.7055 98.595C102.447 98.0778 107.409 95.8602 108.84 96.4118C113.759 98.3079 117.495 107.83 118.294 111.097C118.476 111.842 118.626 112.647 118.355 113.363C118.087 114.069 117.463 114.554 116.863 114.994Z" fill="white"/>
<path fill-rule="evenodd" clip-rule="evenodd" d="M111.121 98.0682C110.974 97.8728 110.831 97.7006 110.696 97.549C110.045 96.8158 109.583 96.5627 109.694 96.481C114.38 93.0147 119.587 90.1942 123.929 86.3462C131.091 79.9987 136.075 72.0254 139.059 65.1837C141.343 59.9479 138.096 71.9597 130.526 83.5165C124.301 93.0212 111.376 98.4055 111.121 98.0682Z" fill="#E7EAEE"/>
<path fill-rule="evenodd" clip-rule="evenodd" d="M116.863 114.994C117.463 114.554 118.087 114.069 118.355 113.363C118.626 112.647 118.476 111.842 118.294 111.097C116.924 105.494 113.887 100.333 109.694 96.481C127.132 87.5951 140.33 70.3894 144.654 50.9061C140.884 61.9896 135.824 72.7959 128.212 81.5582C120.6 90.3204 110.203 96.9186 98.8291 98.1592C96.2987 98.4351 93.4765 98.3529 91.5767 96.6153C89.6769 94.8777 89.7358 90.9856 92.1538 90.172C96.702 88.6417 100.337 84.8552 102.391 80.418C104.444 75.9808 105.031 70.9439 104.764 66.0391C104.642 63.8058 104.522 61.1514 106.26 59.8026C110.659 56.3899 112.764 50.4515 112.514 44.7981C112.263 39.1446 109.911 33.7686 106.787 29.1055C105.739 32.4123 103.053 35.1229 99.8137 36.1418C97.0982 36.9959 94.25 36.6939 91.3913 36.3907C89.9974 36.2429 88.601 36.0948 87.2162 36.0804C82.9913 36.0363 77.9747 38.1714 77.5047 42.4809C77.3508 43.8917 76.1086 44.7065 74.8817 45.5113C74.4827 45.773 74.0853 46.0337 73.7275 46.3134C70.4765 48.8551 70.1862 53.7391 70.6927 57.9014C70.7658 58.5016 70.8486 59.1072 70.9317 59.7155C71.4253 63.3255 71.9322 67.0329 70.4931 70.3046C70.4294 70.4496 70.3617 70.5938 70.294 70.7383C70.0425 71.2744 69.7899 71.813 69.7304 72.4004C69.5594 74.0863 70.8702 75.2155 72.219 76.3774C72.935 76.9942 73.6616 77.6201 74.183 78.3434C75.471 80.1304 75.4415 82.6409 74.6573 84.7129C73.8732 86.7849 72.4422 88.5186 71.0366 90.2097C72.5372 87.1711 73.309 83.7567 73.2649 80.3503L69.2657 87.2435C70.6674 83.794 71.4593 80.0846 71.5913 76.3496L68.3523 88.2787C70.066 87.3178 71.4774 85.799 72.3315 83.9966L69.6723 91.9224C72.6864 89.9056 74.975 86.7728 76.0164 83.2379C76.621 84.8057 77.648 86.1993 78.9532 87.2232C83.4807 90.7747 83.1335 99.0367 78.3249 102.175C68.7721 108.41 61.4663 117.778 55.9833 127.944C50.5003 138.109 46.7067 149.124 42.9385 160.08C48.3677 147.191 54.2616 134.508 60.6041 122.066C62.0824 126.409 64.095 130.561 66.5791 134.39L71.9724 130.306C71.8841 138.552 72.288 146.804 73.1809 154.999C74.2419 155.115 74.4932 153.518 74.326 152.437C72.7247 142.081 72.4843 131.504 73.6134 121.083C72.5475 121.781 72.5271 123.237 72.508 124.599C72.5043 124.857 72.5008 125.112 72.4901 125.357C72.3441 128.734 69.89 131.873 66.7093 132.751C65.0689 130.618 63.4035 128.442 62.47 125.899C61.5365 123.357 61.4349 120.344 62.8489 118.048C66.6467 111.879 72.1151 106.807 78.4775 103.551C81.3078 106.375 84.6641 108.641 88.3107 110.191C89.4699 110.684 90.8047 111.101 91.9467 110.568C92.736 110.2 93.277 109.442 93.7474 108.694C95.5296 105.863 96.8285 102.712 97.5675 99.4273C100.985 98.9289 104.368 98.186 107.685 97.2058C109.028 96.8091 110.317 97.9279 111.224 99.0179C114.038 102.399 116.12 106.418 117.277 110.703C117.513 111.576 117.705 112.536 117.348 113.365C117.061 114.032 116.466 114.496 115.887 114.918C113.719 116.494 111.426 117.889 109.039 119.085C109.291 116.425 108.629 113.683 107.197 111.45C109.454 117.672 108.26 124.272 107.055 130.939C106.134 136.032 105.206 141.165 105.803 146.2L109.467 119.949C111.999 118.406 114.468 116.753 116.863 114.994ZM72.4003 68.0272C73.6057 68.4184 74.2123 69.7633 74.6792 70.969L76.5153 75.7098C78.5967 73.3889 79.5592 70.3671 80.5274 67.3275C81.295 64.9179 82.0661 62.497 83.4011 60.4052C82.6436 60.0163 81.6859 60.4843 81.2064 61.2009C80.7589 61.8694 80.617 62.693 80.4788 63.4954C80.4688 63.553 80.4589 63.6105 80.4489 63.6678C79.786 67.4675 78.4652 71.1452 76.5667 74.4773C76.0382 71.8884 74.8049 69.455 73.0429 67.5246C72.4832 66.9113 72.3556 66.0173 72.2544 65.1834L71.7571 61.0859C71.3666 57.8681 70.9811 54.5581 71.7755 51.4196C72.5699 48.281 74.831 45.3112 77.938 44.7229C77.7135 45.5962 78.1426 46.6001 78.9207 47.022C78.4215 44.355 78.0313 41.2494 79.8019 39.2312C80.9651 37.9056 82.786 37.4265 84.5157 37.25C86.6526 37.032 88.8009 37.174 90.9478 37.3159C91.6072 37.3594 92.2666 37.403 92.9254 37.4361C95.7291 37.5771 98.6102 37.5159 101.235 36.4949C103.86 35.474 106.211 33.3356 106.873 30.5359C109.18 34.637 111.094 39.0802 111.547 43.7929C112.001 48.5055 110.837 53.5409 107.661 56.9763C105.331 59.4968 102.071 60.9971 98.7238 61.5143C95.3763 62.0315 91.9398 61.6159 88.6697 60.7175C85.3337 59.8011 82.1289 58.3832 79.1894 56.5229C79.9823 57.8808 81.348 58.7717 82.722 59.4908C89.073 62.8148 96.7175 63.436 103.499 61.1793C103.779 61.0861 103.956 61.4831 103.991 61.7828C104.703 67.7496 103.918 73.8979 101.733 79.4753C101.043 81.2378 100.204 82.9613 99.0159 84.4177C97.2843 86.54 94.9057 87.9858 92.5228 89.2825C91.3349 89.929 90.1101 90.5572 88.7843 90.7876C87.4585 91.0179 85.9979 90.7991 84.974 89.9045L85.9683 89.6676C86.0147 89.1634 85.3019 89.0545 84.8092 89.0837C82.2533 89.2353 79.8439 87.6164 78.3143 85.5092C76.7847 83.402 75.9765 80.8496 75.1932 78.3479L76.6003 79.1745C77.1044 78.9152 76.5379 78.1735 76.0272 77.9281C74.6322 77.258 73.3272 76.3908 72.1605 75.3588C71.4119 74.6966 70.6871 73.9051 70.4984 72.9094C70.3097 71.9138 70.8893 70.711 71.8714 70.5977C72.3266 70.5452 72.7602 70.7233 73.1948 70.9018C73.6081 71.0715 74.0224 71.2417 74.4572 71.2144C74.3003 70.6733 73.8015 70.3695 73.3116 70.0712C73.1748 69.9878 73.0386 69.9049 72.9107 69.8173C72.3254 69.4163 71.8661 68.4974 72.4003 68.0272ZM84.5127 90.5541C85.7939 91.5441 87.5097 91.9162 89.0716 91.5427C88.3418 93.4509 89.2606 95.7073 90.7959 97.0185C92.3312 98.3297 94.3493 98.8709 96.3216 99.1943C96.2638 102.79 95.0025 106.353 92.7984 109.148C92.1505 109.969 90.8987 109.791 89.9156 109.476C86.0238 108.232 82.4231 106.039 79.4935 103.13C79.7463 102.752 80.15 102.54 80.5553 102.327C80.9281 102.131 81.3023 101.934 81.5615 101.607C81.7965 101.311 81.9129 100.937 82.0159 100.57C83.0267 96.9705 83.2146 93.1303 82.5603 89.4448C83.1761 89.4547 83.6795 89.8711 84.1715 90.278C84.2854 90.3723 84.3987 90.466 84.5127 90.5541ZM144.126 43.5213C143.118 44.1049 141.98 44.8984 141.955 46.0872C141.934 47.1025 142.695 47.7831 143.481 48.4849C144.036 48.9803 144.602 49.4863 144.913 50.128C143.297 49.9565 141.844 48.6937 141.41 47.0852C140.977 45.4768 141.591 43.6256 142.891 42.6246C144.344 41.5054 144.817 39.4926 144.962 37.6327C144.992 37.2495 145.013 36.863 145.034 36.4759L145.034 36.4751V36.475C145.115 34.983 145.196 33.4822 145.795 32.1347C146.03 31.6077 146.432 31.0588 146.996 31.0457C147.896 31.0249 148.219 32.2475 148.255 33.1716L148.416 37.3143C148.796 36.6201 149.911 36.7926 150.366 37.4365C150.822 38.0804 150.811 38.9434 150.782 39.739C150.994 37.9731 151.681 36.2698 152.747 34.8673C153.081 34.4272 153.584 33.9749 154.102 34.1435C154.65 34.3217 154.785 35.0435 154.804 35.6334C154.968 40.7519 153.477 45.9122 150.621 50.1095C149.711 51.4469 149.49 53.1342 149.277 54.7546L149.263 54.8644C148.342 61.8701 146.812 68.7911 144.696 75.5177C143.437 79.5196 141.935 83.5214 139.409 86.831C138.077 88.5765 136.487 90.0933 134.897 91.5939C129.365 96.8155 123.746 101.939 118.042 106.962C117.557 106.962 117.78 106.154 118.147 105.828C119.385 104.728 120.631 103.635 121.877 102.542C127.113 97.9524 132.354 93.3587 136.996 88.1464C138.349 86.6273 139.655 85.0482 140.679 83.2779C141.664 81.5738 142.372 79.7177 143.031 77.8546C145.926 69.6646 147.944 61.1478 149.038 52.5071C149.116 51.8869 149.181 51.2151 148.876 50.6733C152.672 46.4713 154.56 40.5198 153.902 34.8265C152.424 35.5258 152.102 37.223 151.77 38.9704C151.492 40.4348 151.208 41.9346 150.23 42.912L150.084 38.7756C150.07 38.3785 150.011 37.9049 149.663 37.73C149.09 37.4414 148.595 38.272 148.537 38.9249C148.479 39.5779 148.368 40.4365 147.739 40.5445C147.945 37.5348 147.771 34.4977 147.222 31.5336C145.814 32.8822 145.78 35.0833 145.75 37.0892C145.748 37.213 145.746 37.336 145.744 37.4581C145.706 39.5578 145.176 42.0638 143.259 42.7933C143.721 43.1627 144.242 42.7913 144.774 42.4118C145.003 42.248 145.235 42.0826 145.465 41.9748C146.742 41.3766 148.204 43.0298 147.847 44.4238C147.49 45.8178 145.968 46.6108 144.565 46.6047C144.86 46.1011 145.434 45.796 145.986 45.5028C146.714 45.1161 147.404 44.7502 147.36 43.9765C147.322 43.3038 146.613 42.8416 145.957 42.8461C145.302 42.8505 144.698 43.1905 144.126 43.5213ZM83.531 67.7037C83.5481 67.4563 83.8971 67.4198 84.1489 67.4301C84.9239 67.4618 85.6824 67.2282 86.4175 66.9844L86.5215 66.9498C87.2228 66.7166 87.9342 66.4802 88.673 66.4588C89.4483 66.4364 90.2757 66.6923 90.7401 67.3036C90.8013 67.3841 90.8579 67.4793 90.8445 67.5791C90.8215 67.7495 90.602 67.8314 90.4328 67.7883C90.301 67.7548 90.1911 67.6725 90.0817 67.5906L90.0816 67.5906C90.0505 67.5673 90.0195 67.5441 89.988 67.522C89.1292 66.9199 87.9421 67.1797 86.9544 67.5429C86.88 67.5703 86.8051 67.5982 86.7299 67.6262L86.729 67.6265C85.8065 67.9699 84.8299 68.3335 83.8964 68.0577C83.7191 68.0053 83.5185 67.8854 83.531 67.7037ZM92.3087 79.5415C92.898 79.5703 93.5371 79.5849 94.0179 79.2316C94.6887 78.7386 94.7721 77.749 94.6975 76.9018C94.6533 76.4002 94.5762 75.9019 94.4991 75.4039L94.4991 75.4039C94.393 74.7192 94.2871 74.0349 94.267 73.3427C94.2323 72.1469 94.4973 70.8682 95.3266 70.0335C95.3723 69.7432 95.0004 69.5353 94.7332 69.6366C94.466 69.7378 94.3071 70.0178 94.1906 70.2862C93.3954 72.119 93.5918 74.1941 93.7834 76.2177L93.7835 76.2184L93.7835 76.2191C93.8126 76.5264 93.8416 76.8324 93.867 77.1363C93.908 77.628 93.9033 78.2073 93.5236 78.5068C93.2411 78.7297 92.871 78.7053 92.5038 78.6811H92.5038H92.5037H92.5036H92.5036H92.5035H92.5034C92.3831 78.6731 92.2631 78.6652 92.1466 78.6661C91.9024 78.6678 91.6055 78.7623 91.5604 79.0103C91.4965 79.3611 91.9637 79.5247 92.3087 79.5415ZM90.8135 69.8567C91.0908 69.8162 91.3266 70.1269 91.3183 70.42C91.3099 70.7131 91.13 70.9698 90.9316 71.1766C90.2127 71.926 89.172 72.2721 88.1576 72.278C87.1433 72.2839 86.1484 71.9774 85.2113 71.5708C85.0087 71.4828 84.802 71.3858 84.6521 71.2183C84.5021 71.0507 84.4216 70.7942 84.5133 70.5856C84.605 70.377 84.9048 70.2837 85.0569 70.4491C85.748 71.2004 86.8215 71.3945 87.8176 71.412C88.7182 71.4278 89.7461 71.2586 90.2427 70.4718C90.2706 70.4276 90.2978 70.3809 90.3253 70.3337C90.4515 70.1169 90.5834 69.8903 90.8135 69.8567ZM102.828 71.0015C101.705 72.0024 99.9685 72.3146 98.5443 71.7714C98.1508 71.6213 97.7658 71.3968 97.5555 71.0442C97.4733 70.9064 97.4206 70.7377 97.4796 70.5894C97.575 70.3495 97.9175 70.2862 98.167 70.3791C98.3552 70.4492 98.5079 70.5791 98.6602 70.7087C98.7099 70.751 98.7594 70.7932 98.8102 70.8333C99.7063 71.5409 101.116 71.5612 102.034 70.8798C102.054 70.8653 102.073 70.8505 102.093 70.8356C102.24 70.7242 102.393 70.6079 102.577 70.605C102.785 70.6016 102.981 70.8654 102.828 71.0015ZM65.2381 132.915C64.8115 133.175 64.5079 133.598 64.2195 134.012C61.2617 138.256 58.6503 142.754 56.4217 147.443C54.17 152.18 52.3128 157.102 50.4584 162.016C50.3012 162.433 50.1469 162.915 50.3558 163.307C50.6448 163.85 51.4756 163.824 51.9271 163.414C52.3785 163.004 52.5492 162.368 52.7047 161.771C55.2961 151.818 59.6012 142.359 65.1487 133.767C65.318 133.504 65.4747 133.115 65.2381 132.915ZM89.6232 85.569C89.6445 86.0604 89.0767 86.3413 88.6079 86.3452C88.0984 86.3495 87.5518 86.157 87.2752 85.7079C86.9986 85.2588 87.1307 84.5392 87.6093 84.3556L84.3042 83.0468C84.0262 82.9367 83.7321 82.8247 83.439 82.8759C83.3711 82.8877 83.3044 82.9082 83.2377 82.9287C83.1256 82.9631 83.014 82.9974 82.8984 82.99C82.7142 82.9781 82.5227 82.7801 82.6069 82.6078C82.6385 82.5432 82.6998 82.5016 82.7584 82.463L83.9705 81.6648C84.108 81.5742 84.2592 81.4801 84.4207 81.4974C84.5822 81.5147 84.7308 81.7062 84.6505 81.8543C84.4124 82.2931 85.0057 82.7013 85.4714 82.8281C87.0361 83.2543 88.6134 83.6826 90.2275 83.7758C91.8416 83.8689 93.5149 83.6048 94.8996 82.7294C95.3251 82.4605 95.8526 82.1292 96.2745 82.4043C96.112 82.8924 95.6344 83.163 95.1677 83.4274C94.6452 83.7236 94.1362 84.012 94.0979 84.5895C94.0583 85.1856 93.55 85.7071 92.9813 85.735C92.4125 85.763 91.86 85.2936 91.7676 84.704C91.753 84.6108 91.6459 84.5742 91.5572 84.5581C91.1481 84.4838 90.7164 84.445 90.3268 84.5958C89.9373 84.7467 89.6043 85.1337 89.6232 85.569ZM89.025 84.5115C88.8431 84.2767 88.4615 84.3119 88.2581 84.5263C88.0546 84.7407 88.0028 85.0711 88.0339 85.3719C88.2748 85.5138 88.5977 85.4832 88.8106 85.2984C89.0235 85.1136 89.1126 84.7865 89.025 84.5115ZM93.3534 84.6886C93.3829 84.5695 93.4584 84.4637 93.5589 84.4005C93.4341 84.1724 93.1052 84.2619 92.8814 84.3801C92.7626 84.4428 92.6289 84.5266 92.6128 84.6652C92.593 84.8353 92.7814 84.9661 92.9436 84.9456C93.1058 84.9251 93.2388 84.8064 93.3612 84.6928L93.3534 84.6886ZM100.186 68.4196C100.341 68.4604 100.495 68.5012 100.652 68.5311C101.467 68.6861 102.347 68.5307 103.04 68.1094C103.225 67.9973 103.053 67.7045 102.833 67.6828C102.663 67.6659 102.504 67.7375 102.348 67.8083C102.302 67.8291 102.256 67.8498 102.21 67.8682C101.618 68.1052 100.958 67.9688 100.3 67.8331C99.6141 67.6915 98.9313 67.5505 98.3334 67.835C98.1175 67.9377 97.9159 68.1236 97.9269 68.3463C97.938 68.569 98.28 68.741 98.4389 68.5722C98.6939 68.3013 99.1281 68.2323 99.5155 68.2766C99.7437 68.3027 99.9648 68.3611 100.186 68.4196Z" fill="#00160A"/>
<path fill-rule="evenodd" clip-rule="evenodd" d="M89.0717 91.5426C88.6132 91.6522 88.1415 91.6976 87.6714 91.682C86.5399 91.6444 85.2538 95.6752 87.6714 100.273C90.047 104.79 94.5221 106.598 95.1008 105.168C95.8657 103.278 96.2887 101.241 96.3217 99.1942C94.3494 98.8708 92.3312 98.3296 90.7959 97.0184C89.2606 95.7072 88.3419 93.4508 89.0717 91.5426Z" fill="#E7EAEE"/>
<ellipse cx="80.4761" cy="79.7973" rx="1.416" ry="1.45498" fill="#FFB61D"/>
<ellipse cx="98.4121" cy="80.2823" rx="1.41599" ry="1.45499" fill="#FFB61D"/>
<path fill-rule="evenodd" clip-rule="evenodd" d="M83.0875 132.516C83.5982 131.917 84.629 132.201 85.4097 132.407C87.4889 132.954 90.0198 132.315 91.576 130.851C93.1421 129.378 95.9984 131.112 98.0465 130.199C99.2812 129.649 100.285 128.156 101.526 128.533C103.047 128.995 104.934 128.611 106.183 127.603L106.185 127.305L106.192 126.647C104.949 127.759 102.961 128.199 101.372 127.716C100.132 127.339 99.1274 128.832 97.8928 129.382C95.8446 130.295 92.9884 128.562 91.4223 130.035C89.8972 131.469 87.436 132.111 85.3812 131.621L84.9713 131.516C84.2399 131.33 83.3843 131.171 82.9337 131.7C81.5121 133.368 78.7095 134.07 76.6525 133.273L76.9037 134.126L77.0255 134.168C79.0582 134.836 81.7157 134.126 83.0875 132.516ZM81.1579 123.003C81.6971 122.44 82.7068 122.737 83.4719 122.952C85.5098 123.525 88.059 122.972 89.6829 121.604C91.317 120.227 94.0648 121.957 96.1486 121.129C97.4047 120.629 98.4815 119.22 99.6945 119.611C101.183 120.09 106.701 117.15 106.701 117.15C105.311 117.118 101.232 119.306 99.6938 118.857L99.5847 118.823C98.3717 118.432 97.2949 119.842 96.0387 120.341C93.9549 121.169 91.2072 119.439 89.573 120.816C87.9816 122.157 85.5015 122.716 83.485 122.198L83.083 122.087C82.3659 121.891 81.5238 121.719 81.0481 122.216C79.5473 123.783 75.472 123.125 74.7221 123.579C74.7221 123.579 79.7098 124.516 81.1579 123.003Z" fill="#FFB61D"/>
<path fill-rule="evenodd" clip-rule="evenodd" d="M82.6621 150.553C83.1728 149.954 84.2037 150.238 84.9844 150.444C87.0636 150.991 89.5945 150.352 91.1507 148.889C92.7168 147.416 95.5731 149.149 97.6212 148.236C98.8558 147.686 99.8602 146.193 101.1 146.57C102.622 147.032 104.508 146.648 105.758 145.64L105.759 145.342L105.767 144.685C104.523 145.796 102.536 146.236 100.947 145.753C99.7064 145.376 98.7021 146.869 97.4675 147.419C95.4193 148.332 92.5631 146.599 90.997 148.072C89.4718 149.506 87.0107 150.148 84.9559 149.658L84.546 149.553C83.8146 149.367 82.959 149.208 82.5084 149.737C81.0868 151.405 78.2842 152.107 76.2272 151.31L76.4784 152.163L76.6001 152.205C78.6329 152.873 81.2904 152.163 82.6621 150.553ZM80.7327 141.04C81.2718 140.477 82.2815 140.774 83.0466 140.989C85.0845 141.563 87.6337 141.009 89.2576 139.641C90.8917 138.264 93.6395 139.994 95.7233 139.166C96.9794 138.666 98.0563 137.257 99.2692 137.648C100.757 138.127 106.276 135.187 106.276 135.187C104.886 135.155 100.806 137.343 99.2686 136.894L99.1594 136.86C97.9464 136.47 96.8696 137.879 95.6135 138.378C93.5297 139.207 90.7819 137.476 89.1477 138.853C87.5563 140.194 85.0763 140.753 83.0597 140.235L82.6578 140.124C81.9406 139.928 81.0986 139.756 80.6228 140.253C79.122 141.821 75.0467 141.163 74.2968 141.616C74.2968 141.616 79.2845 142.553 80.7327 141.04Z" fill="#FFB61D"/>
<path fill-rule="evenodd" clip-rule="evenodd" d="M78.3861 47.8599C79.751 48.7236 84.7538 39.2315 92.2035 39.2315C107.993 39.2315 109.18 34.6372 106.873 30.5361C106.211 33.3358 103.86 35.4742 101.235 36.4951C98.6102 37.5161 95.7291 37.5773 92.9254 37.4363C90.1217 37.2954 87.3089 36.9653 84.5156 37.2503C82.786 37.4267 80.965 37.9058 79.8019 39.2315C78.0312 41.2496 78.4215 44.3552 78.9206 47.0222C78.1425 46.6003 77.7135 45.5965 77.938 44.7232C74.831 45.3114 72.5698 48.2813 71.7755 51.4198C70.9811 54.5583 71.3666 57.8683 71.7571 61.0862C71.9228 62.452 72.0886 63.8178 72.2544 65.1837C72.2544 65.1837 72.9616 54.1808 73.921 51.4198C75.227 47.6611 78.6909 48.3818 78.3861 47.8599Z" fill="#E7EAEE"/>
</svg>
